<svg preserveAspectRatio="none" viewBox="0 0 1528 998" fill="none" xmlns="http://www.w3.org/2000/svg">
<g opacity="0.75">
<g clip-path="url(#clip0_339_2931)">
<path fill-rule="evenodd" clip-rule="evenodd" d="M0 0V942.006L1528 998V396.198C1426.14 392.471 1339.25 453.324 1305.39 542.069C1300.46 541.002 1295.39 540.357 1290.21 540.159C1243.23 538.434 1205.14 575.122 1205.14 622.096C1205.14 637.543 1209.27 652.186 1216.47 664.947C1165.9 668.397 1120.21 688.374 1084.76 719.69C1012.35 609.203 889.27 533.706 749.589 528.597C640.377 524.594 541.334 564.364 468.701 632.17C452.538 623.255 434.202 617.882 414.76 617.171C406.949 616.881 399.309 617.368 391.906 618.553C364.85 595.56 332.011 579.178 296.037 572.12C282.72 538.645 258.838 510.187 228.594 491.066C230.122 477.357 230.912 463.398 230.912 449.228C230.912 322.636 168.317 208.384 72.3824 136.758C73.7655 129.502 74.5032 121.983 74.5032 114.279C74.5032 63.9742 43.7324 19.7533 0 0Z" fill="url(#paint0_linear_339_2931)"/>
<path fill-rule="evenodd" clip-rule="evenodd" d="M1528 1.06665V911.336H0V329.827C101.862 329.827 188.748 391.707 222.614 478.661C227.54 477.805 232.612 477.357 237.788 477.357C284.774 477.357 322.856 514.151 322.856 559.544C322.856 574.477 318.733 588.476 311.528 600.551C362.096 605.674 407.792 626.599 443.239 658.112C515.647 553.907 638.73 485.324 778.411 485.324C887.623 485.324 986.667 527.254 1059.3 595.363C1075.46 587.317 1093.8 582.774 1113.23 582.774C1121.05 582.774 1128.68 583.524 1136.08 584.92C1163.14 563.652 1195.98 548.982 1231.95 543.451C1245.27 511.583 1269.15 484.916 1299.39 467.507C1297.86 454.206 1297.07 440.695 1297.07 426.999C1297.07 304.674 1359.67 196.479 1455.6 130.661C1454.22 123.603 1453.5 116.307 1453.5 108.867C1453.5 60.2737 1484.25 18.6207 1528 1.09299V1.06665Z" fill="url(#paint1_linear_339_2931)"/>
<path fill-rule="evenodd" clip-rule="evenodd" d="M0 55.9939V998H1528V396.197C1426.14 396.197 1339.25 460.238 1305.39 550.22C1300.46 549.338 1295.39 548.864 1290.21 548.864C1243.23 548.864 1205.14 586.935 1205.14 633.908C1205.14 649.355 1209.27 663.854 1216.47 676.338C1165.9 681.645 1120.21 703.295 1084.76 735.901C1012.35 628.061 889.27 557.081 749.589 557.081C640.377 557.081 541.334 600.486 468.701 670.952C452.538 662.629 434.202 657.928 414.76 657.928C406.949 657.928 399.309 658.692 391.906 660.154C364.85 638.148 332.011 622.965 296.037 617.236C282.72 584.248 258.838 556.673 228.594 538.645C230.122 524.883 230.912 510.898 230.912 496.715C230.912 370.123 168.317 258.162 72.3824 190.053C73.7655 182.744 74.5032 175.211 74.5032 167.494C74.5032 117.203 43.7324 74.101 0 55.9543L0 55.9939Z" fill="url(#paint2_linear_339_2931)"/>
<path fill-rule="evenodd" clip-rule="evenodd" d="M1528 269.329V997.987H415.814C492.53 875.517 626.296 791.671 781.625 785.126C904.392 779.95 1017.81 824.053 1102.79 899.826C1120.58 889.7 1140.97 883.55 1162.81 882.628C1171.59 882.259 1180.22 882.76 1188.6 884.037C1217.97 858.015 1254.16 839.395 1294.35 831.256C1307.76 793.541 1333.29 761.409 1366.44 739.72C1364.07 724.325 1362.52 708.628 1361.84 692.694C1355.84 550.378 1420.91 421.548 1525.54 340.428C1523.64 332.276 1522.45 323.835 1522.1 315.17C1521.43 299.196 1523.53 283.762 1528.01 269.316L1528 269.329ZM408.411 998H0V656.335C70.1958 681.369 127.259 734.992 156.488 803.733C161.981 802.509 167.658 801.745 173.481 801.495C226.302 799.269 270.917 840.277 273.143 893.071C273.868 910.44 269.929 926.928 262.421 941.308C317.284 944.732 367.813 965.354 408.411 998Z" fill="url(#paint3_linear_339_2931)"/>
</g>
</g>
<mask id="mask0_339_2931" style="mask-type:alpha" maskUnits="userSpaceOnUse" x="0" y="0" width="1528" height="998">
<g clip-path="url(#clip1_339_2931)">
<path fill-rule="evenodd" clip-rule="evenodd" d="M0 0V942.006L1528 998V396.198C1426.14 392.471 1339.25 453.324 1305.39 542.069C1300.46 541.002 1295.39 540.357 1290.21 540.159C1243.23 538.434 1205.14 575.122 1205.14 622.096C1205.14 637.543 1209.27 652.186 1216.47 664.947C1165.9 668.397 1120.21 688.374 1084.76 719.69C1012.35 609.203 889.27 533.706 749.589 528.597C640.377 524.594 541.334 564.364 468.701 632.17C452.538 623.255 434.202 617.882 414.76 617.171C406.949 616.881 399.309 617.368 391.906 618.553C364.85 595.56 332.011 579.178 296.037 572.12C282.72 538.645 258.838 510.187 228.594 491.066C230.122 477.357 230.912 463.398 230.912 449.228C230.912 322.636 168.317 208.384 72.3824 136.758C73.7655 129.502 74.5032 121.983 74.5032 114.279C74.5032 63.9742 43.7324 19.7533 0 0Z" fill="url(#paint4_linear_339_2931)"/>
<path fill-rule="evenodd" clip-rule="evenodd" d="M1528 1.06665V911.336H0V329.827C101.862 329.827 188.748 391.707 222.614 478.661C227.54 477.805 232.612 477.357 237.788 477.357C284.774 477.357 322.856 514.151 322.856 559.544C322.856 574.477 318.733 588.476 311.528 600.551C362.096 605.674 407.792 626.599 443.239 658.112C515.647 553.907 638.73 485.324 778.411 485.324C887.623 485.324 986.667 527.254 1059.3 595.363C1075.46 587.317 1093.8 582.774 1113.23 582.774C1121.05 582.774 1128.68 583.524 1136.08 584.92C1163.14 563.652 1195.98 548.982 1231.95 543.451C1245.27 511.583 1269.15 484.916 1299.39 467.507C1297.86 454.206 1297.07 440.695 1297.07 426.999C1297.07 304.674 1359.67 196.479 1455.6 130.661C1454.22 123.603 1453.5 116.307 1453.5 108.867C1453.5 60.2737 1484.25 18.6207 1528 1.09299V1.06665Z" fill="url(#paint5_linear_339_2931)"/>
<path fill-rule="evenodd" clip-rule="evenodd" d="M0 55.9939V998H1528V396.197C1426.14 396.197 1339.25 460.238 1305.39 550.22C1300.46 549.338 1295.39 548.864 1290.21 548.864C1243.23 548.864 1205.14 586.935 1205.14 633.908C1205.14 649.355 1209.27 663.854 1216.47 676.338C1165.9 681.645 1120.21 703.295 1084.76 735.901C1012.35 628.061 889.27 557.081 749.589 557.081C640.377 557.081 541.334 600.486 468.701 670.952C452.538 662.629 434.202 657.928 414.76 657.928C406.949 657.928 399.309 658.692 391.906 660.154C364.85 638.148 332.011 622.965 296.037 617.236C282.72 584.248 258.838 556.673 228.594 538.645C230.122 524.883 230.912 510.898 230.912 496.715C230.912 370.123 168.317 258.162 72.3824 190.053C73.7655 182.744 74.5032 175.211 74.5032 167.494C74.5032 117.203 43.7324 74.101 0 55.9543L0 55.9939Z" fill="url(#paint6_linear_339_2931)"/>
<path fill-rule="evenodd" clip-rule="evenodd" d="M1528 269.329V997.987H415.814C492.53 875.517 626.296 791.671 781.625 785.126C904.392 779.95 1017.81 824.053 1102.79 899.826C1120.58 889.7 1140.97 883.55 1162.81 882.628C1171.59 882.259 1180.22 882.76 1188.6 884.037C1217.97 858.015 1254.16 839.395 1294.35 831.256C1307.76 793.541 1333.29 761.409 1366.44 739.72C1364.07 724.325 1362.52 708.628 1361.84 692.694C1355.84 550.378 1420.91 421.548 1525.54 340.428C1523.64 332.276 1522.45 323.835 1522.1 315.17C1521.43 299.196 1523.53 283.762 1528.01 269.316L1528 269.329ZM408.411 998H0V656.335C70.1958 681.369 127.259 734.992 156.488 803.733C161.981 802.509 167.658 801.745 173.481 801.495C226.302 799.269 270.917 840.277 273.143 893.071C273.868 910.44 269.929 926.928 262.421 941.308C317.284 944.732 367.813 965.354 408.411 998Z" fill="url(#paint7_linear_339_2931)"/>
</g>
</mask>
<g mask="url(#mask0_339_2931)">
</g>
<defs>
<linearGradient id="paint0_linear_339_2931" x1="764" y1="0" x2="764" y2="998" gradientUnits="userSpaceOnUse">
<stop stop-color="#EE2E22" stop-opacity="0.35"/>
<stop offset="1" stop-color="white" stop-opacity="0"/>
</linearGradient>
<linearGradient id="paint1_linear_339_2931" x1="764" y1="1.06665" x2="764" y2="911.336" gradientUnits="userSpaceOnUse">
<stop stop-color="#EE2E22" stop-opacity="0.35"/>
<stop offset="1" stop-color="white" stop-opacity="0"/>
</linearGradient>
<linearGradient id="paint2_linear_339_2931" x1="764" y1="55.9543" x2="764" y2="998" gradientUnits="userSpaceOnUse">
<stop stop-color="#EE2E22" stop-opacity="0.35"/>
<stop offset="1" stop-color="white" stop-opacity="0"/>
</linearGradient>
<linearGradient id="paint3_linear_339_2931" x1="764.007" y1="269.316" x2="764.007" y2="998" gradientUnits="userSpaceOnUse">
<stop stop-color="#EE2E22" stop-opacity="0.35"/>
<stop offset="1" stop-color="white" stop-opacity="0"/>
</linearGradient>
<linearGradient id="paint4_linear_339_2931" x1="764" y1="0" x2="764" y2="998" gradientUnits="userSpaceOnUse">
<stop stop-color="#F8D7E0"/>
<stop offset="1" stop-color="white" stop-opacity="0"/>
</linearGradient>
<linearGradient id="paint5_linear_339_2931" x1="764" y1="1.06665" x2="764" y2="911.336" gradientUnits="userSpaceOnUse">
<stop stop-color="#F8D7E0"/>
<stop offset="1" stop-color="white" stop-opacity="0"/>
</linearGradient>
<linearGradient id="paint6_linear_339_2931" x1="764" y1="55.9543" x2="764" y2="998" gradientUnits="userSpaceOnUse">
<stop stop-color="#F8D7E0"/>
<stop offset="1" stop-color="white" stop-opacity="0"/>
</linearGradient>
<linearGradient id="paint7_linear_339_2931" x1="764.007" y1="269.316" x2="764.007" y2="998" gradientUnits="userSpaceOnUse">
<stop stop-color="#F8D7E0"/>
<stop offset="1" stop-color="white" stop-opacity="0"/>
</linearGradient>
<clipPath id="clip0_339_2931">
<rect width="1528" height="998" fill="white"/>
</clipPath>
<clipPath id="clip1_339_2931">
<rect width="1528" height="998" fill="white"/>
</clipPath>
</defs>
</svg>
