<svg width="148" height="66" viewBox="0 0 148 66" fill="none" xmlns="http://www.w3.org/2000/svg">
<path d="M40.5717 28.4255C40.3399 19.4422 31.4241 14.2568 24.295 20.8521C18.4525 14.221 10.0854 13.3845 5.34365 16.9605C0.358827 20.7885 -0.801 26.8303 0.483838 33.5568C2.7653 45.4759 10.6245 57.4936 12.6308 60.7172C14.4174 63.5958 16.7561 67.1996 19.891 65.6108C23.0215 64.0252 19.5559 59.0545 18.8327 57.8363C16.8247 54.4337 0.297189 28.2076 13.0431 23.1319C16.0382 21.9399 19.3145 23.7545 20.6237 24.7708C19.1227 26.6299 17.8491 29.293 17.8491 31.5768C17.8491 35.7229 20.2921 38.7899 23.854 38.7899C27.422 38.7899 30.3147 35.6537 30.3147 31.6555C30.3147 28.8326 28.5116 26.0526 26.9081 24.0305C30.0299 21.2656 36.0096 23.9748 35.6276 31.448C35.3516 36.8894 32.4564 43.5054 27.0531 54.3788C27.0531 54.3812 27.0531 54.3883 27.0531 54.3955C26.9246 54.6531 26.8491 55.0309 26.8491 55.3362C26.8491 56.4988 27.7901 57.4506 29.0611 57.4506C30.6168 57.4506 31.4476 55.9183 31.5683 55.6964C33.163 52.8966 36.4176 45.3932 36.6989 44.7069C38.0159 41.4626 40.7566 35.2005 40.5717 28.4255ZM23.9104 35.1702C22.4633 35.1702 21.4232 34.1309 21.4232 32.0181C21.4232 29.9021 23.8106 27.0506 23.8106 27.0506C23.8106 27.0506 26.4671 29.8997 26.4671 32.0181C26.4688 34.1317 25.3515 35.1702 23.9104 35.1702ZM30.4327 16.8181C32.5866 16.6114 34.098 14.3292 33.8072 11.7154C33.5137 9.11831 31.5231 7.15658 29.3589 7.36492C27.1955 7.57008 25.678 9.85386 25.9766 12.4684C26.2718 15.0735 28.2633 17.0257 30.4327 16.8181ZM11.7253 12.2498C14.3193 12.7905 17.0947 10.5011 17.9264 7.14465C18.7615 3.7834 17.3335 0.620934 14.7438 0.0802059C12.1481 -0.464498 9.37006 1.82326 8.53926 5.17974C7.70585 8.54895 9.1348 11.7098 11.7253 12.2498Z" fill="#007DAD"/>
<path d="M58.3867 33.5714C56.9479 33.5714 55.6345 33.2726 54.4466 32.6752C53.2586 32.0644 52.3214 31.2147 51.635 30.126C50.9487 29.024 50.6055 27.7626 50.6055 26.342C50.6055 24.9213 50.9487 23.6666 51.635 22.5779C52.3214 21.4759 53.2586 20.6261 54.4466 20.0287C55.6345 19.4179 56.9479 19.1125 58.3867 19.1125C59.6143 19.1125 60.7428 19.3449 61.7724 19.8096C62.802 20.2743 63.66 20.9182 64.3463 21.7414C65.0327 22.5646 65.5079 23.5007 65.7719 24.5495H62.2278C61.9242 23.8459 61.4292 23.2816 60.7428 22.8567C60.0564 22.4186 59.2711 22.1995 58.3867 22.1995C57.5683 22.1995 56.8225 22.3721 56.1493 22.7173C55.4894 23.0625 54.968 23.5471 54.5852 24.1711C54.2024 24.7952 54.011 25.5188 54.011 26.342C54.011 27.1651 54.2024 27.8888 54.5852 28.5128C54.968 29.1368 55.4894 29.6214 56.1493 29.9666C56.8225 30.3118 57.5683 30.4844 58.3867 30.4844C59.2843 30.4844 60.0696 30.2654 60.7428 29.8272C61.4292 29.3758 61.9242 28.7783 62.2278 28.0348H65.7719C65.5211 29.1103 65.0459 30.0662 64.3463 30.9027C63.66 31.7391 62.802 32.3963 61.7724 32.8743C60.7428 33.339 59.6143 33.5714 58.3867 33.5714Z" fill="white"/>
<path d="M66.565 33.4718V30.1459H67.0798C68.2545 30.1459 68.9013 29.5949 69.0201 28.4929L69.9309 19.3715H80.8404V33.3125H77.4349V22.6974H73.0196L72.3464 29.3692C72.2012 30.7102 71.7326 31.7325 70.9407 32.4362C70.1619 33.1266 69.0729 33.4718 67.6737 33.4718H66.565Z" fill="white"/>
<path d="M93.1293 19.3715H96.9902L90.6345 31.4404C89.9745 32.6884 88.8922 33.3125 87.3874 33.3125H84.5957V30.2853H86.7736C87.0376 30.2853 87.2554 30.2455 87.427 30.1658C87.5986 30.0861 87.7504 29.96 87.8824 29.7874L88.1002 29.4887L82.3187 19.3715H86.239L89.5852 25.4657H90.0405L93.1293 19.3715Z" fill="white"/>
<path d="M101.266 33.3125H97.1877L102.138 26.2225L97.6431 19.3715H101.662L105.583 25.4657V19.3715H108.988V25.4657L112.909 19.3715H116.928L112.433 26.2225L117.383 33.3125H113.305L108.988 26.9195V33.3125H105.583V26.9195L101.266 33.3125Z" fill="white"/>
<path d="M118.874 33.3125V19.3715H130.456V22.2393H122.279V24.6292H126.873C128.272 24.6292 129.374 25.0275 130.179 25.8242C130.984 26.6075 131.387 27.6564 131.387 28.9708C131.387 30.2853 130.984 31.3408 130.179 32.1374C129.374 32.9208 128.272 33.3125 126.873 33.3125H118.874ZM126.437 30.4446C126.912 30.4446 127.288 30.3118 127.566 30.0463C127.843 29.7675 127.981 29.409 127.981 28.9708C127.981 28.5327 127.843 28.1809 127.566 27.9153C127.288 27.6365 126.912 27.4971 126.437 27.4971H122.279V30.4446H126.437Z" fill="white"/>
<path d="M148 33.3125H144.357L143.367 30.7234H136.813L135.823 33.3125H132.18L137.784 19.3715H142.397L148 33.3125ZM139.862 22.8368L137.982 27.7361H142.199L140.318 22.8368H139.862Z" fill="white"/>
<path d="M54.605 53.2282H51.1995V39.2872H54.605V45.3018L59.5747 39.2872H63.594L57.9313 46.1581L64.0493 53.2282H59.9508L54.605 46.9548V53.2282Z" fill="white"/>
<path d="M65.237 53.2282V39.2872H72.7014C73.7046 39.2872 74.589 39.4864 75.3546 39.8847C76.1201 40.283 76.7075 40.8473 77.1167 41.5775C77.5391 42.3078 77.7503 43.1641 77.7503 44.1466C77.7503 45.1291 77.5391 45.9855 77.1167 46.7158C76.7075 47.446 76.1201 48.0103 75.3546 48.4086C74.589 48.8069 73.7046 49.0061 72.7014 49.0061H68.6425V53.2282H65.237ZM72.5232 45.8594C73.0776 45.8594 73.5198 45.7067 73.8498 45.4013C74.1798 45.0827 74.3448 44.6644 74.3448 44.1466C74.3448 43.6288 74.1798 43.2172 73.8498 42.9119C73.5198 42.5932 73.0776 42.4339 72.5232 42.4339H68.6425V45.8594H72.5232Z" fill="white"/>
<path d="M87.1192 53.4871C85.6804 53.4871 84.3671 53.1884 83.1791 52.5909C81.9911 51.9802 81.0539 51.1304 80.3676 50.0417C79.6812 48.9397 79.338 47.6784 79.338 46.2577C79.338 44.8371 79.6812 43.5824 80.3676 42.4936C81.0539 41.3916 81.9911 40.5419 83.1791 39.9444C84.3671 39.3337 85.6804 39.0283 87.1192 39.0283C88.558 39.0283 89.8713 39.3337 91.0593 39.9444C92.2473 40.5419 93.1844 41.3916 93.8708 42.4936C94.5572 43.5824 94.9004 44.8371 94.9004 46.2577C94.9004 47.6784 94.5572 48.9397 93.8708 50.0417C93.1844 51.1304 92.2473 51.9802 91.0593 52.5909C89.8713 53.1884 88.558 53.4871 87.1192 53.4871ZM87.1192 50.4002C87.9376 50.4002 88.6768 50.2276 89.3367 49.8824C90.0099 49.5372 90.5379 49.0525 90.9207 48.4285C91.3035 47.8045 91.4949 47.0809 91.4949 46.2577C91.4949 45.4345 91.3035 44.7109 90.9207 44.0869C90.5379 43.4629 90.0099 42.9782 89.3367 42.633C88.6768 42.2878 87.9376 42.1152 87.1192 42.1152C86.3008 42.1152 85.555 42.2878 84.8818 42.633C84.2219 42.9782 83.7005 43.4629 83.3177 44.0869C82.9349 44.7109 82.7435 45.4345 82.7435 46.2577C82.7435 47.0809 82.9349 47.8045 83.3177 48.4285C83.7005 49.0525 84.2219 49.5372 84.8818 49.8824C85.555 50.2276 86.3008 50.4002 87.1192 50.4002Z" fill="white"/>
<path d="M97.0825 53.2282V39.2872H105.062C105.933 39.2872 106.698 39.4532 107.358 39.7851C108.018 40.117 108.527 40.5817 108.883 41.1792C109.253 41.7767 109.437 42.4671 109.437 43.2504C109.437 43.9276 109.259 44.5317 108.903 45.0628C108.56 45.5806 108.177 45.9457 107.754 46.1581V46.2577C108.243 46.4701 108.685 46.8552 109.081 47.4128C109.49 47.9572 109.695 48.5746 109.695 49.265C109.695 50.0483 109.517 50.7387 109.16 51.3362C108.804 51.9337 108.296 52.3984 107.636 52.7303C106.976 53.0623 106.21 53.2282 105.339 53.2282H97.0825ZM104.468 44.8835C104.969 44.8835 105.352 44.764 105.616 44.525C105.893 44.2728 106.032 43.9408 106.032 43.5293C106.032 43.1177 105.893 42.7924 105.616 42.5534C105.352 42.3144 104.969 42.1949 104.468 42.1949H100.488V44.8835H104.468ZM104.765 50.3205C105.24 50.3205 105.61 50.201 105.874 49.962C106.151 49.7098 106.289 49.3845 106.289 48.9862C106.289 48.5746 106.151 48.2493 105.874 48.0103C105.61 47.758 105.24 47.6319 104.765 47.6319H100.488V50.3205H104.765Z" fill="white"/>
<path d="M116.087 53.2282H112.068V39.2872H115.473V48.3289H115.948L121.532 39.2872H125.551V53.2282H122.145V44.1865H121.67L116.087 53.2282Z" fill="white"/>
</svg>
