<svg viewBox="0 0 20 20" fill="none" xmlns="http://www.w3.org/2000/svg">
<path d="M8.33366 11.25L8.57774 11.0059C8.95503 10.6286 9.46675 10.4167 10.0003 10.4167C10.5339 10.4167 11.0456 10.6286 11.4229 11.0059L11.667 11.25M18.3337 12.9167V5.83333C18.3337 4.68274 17.4009 3.75 16.2503 3.75H15.8337M18.3337 12.9167C18.3337 14.7576 16.8413 16.25 15.0003 16.25C13.1594 16.25 11.667 14.7576 11.667 12.9167C11.667 11.0757 13.1594 9.58333 15.0003 9.58333C16.8413 9.58333 18.3337 11.0757 18.3337 12.9167ZM1.66699 12.9167V5.83333C1.66699 4.68274 2.59973 3.75 3.75033 3.75H4.16699M1.66699 12.9167C1.66699 14.7576 3.15938 16.25 5.00033 16.25C6.84127 16.25 8.33366 14.7576 8.33366 12.9167C8.33366 11.0757 6.84127 9.58333 5.00033 9.58333C3.15938 9.58333 1.66699 11.0757 1.66699 12.9167Z" stroke="currentColor" stroke-width="1.6"/>
</svg>
