<svg viewBox="0 0 20 20" fill="none" xmlns="http://www.w3.org/2000/svg">
<path fill-rule="evenodd" clip-rule="evenodd" d="M14.25 14H5.75V8C5.75 5.334 7.875 4 9.99894 4H10.0011C12.125 4 14.25 5.334 14.25 8V14ZM11.0625 17C11.0625 17.552 10.5865 18 10 18C9.4135 18 8.9375 17.552 8.9375 17V16H11.0625V17ZM17.4375 14H16.375V8C16.375 4.447 13.859 2.47498 11.0625 2.07898V0H8.9375V2.07898C6.141 2.47498 3.625 4.447 3.625 8V14H2.5625C1.976 14 1.5 14.448 1.5 15C1.5 15.552 1.976 16 2.5625 16H6.8125V17C6.8125 18.657 8.23944 20 10 20C11.7606 20 13.1875 18.657 13.1875 17V16H17.4375C18.024 16 18.5 15.552 18.5 15C18.5 14.448 18.024 14 17.4375 14Z" fill="currentColor"/>
</svg>
