<svg viewBox="0 0 24 24" fill="none" xmlns="http://www.w3.org/2000/svg">
<path d="M20.6739 9.92079H20.6145V8.46534C20.6145 3.79007 16.8245 0 12.1491 0C7.47379 0 3.68378 3.79007 3.68378 8.46534V9.92079H3.32737C2.02042 9.92079 1.01054 11.0792 1.01054 12.4159V16.1287C0.97762 17.4242 2.00121 18.5011 3.29672 18.5341C3.30696 18.5343 3.31713 18.5345 3.32737 18.5346H5.52537C5.8367 18.52 6.07725 18.2557 6.06258 17.9444C6.06207 17.9332 6.06122 17.922 6.06002 17.9108V10.6336C6.06002 10.2772 5.85211 9.92073 5.52537 9.92073H4.8719V8.46529C4.8719 4.44621 8.13005 1.18806 12.1491 1.18806C16.1682 1.18806 19.4263 4.44621 19.4263 8.46529V9.92073H18.7729C18.4461 9.92073 18.2382 10.2771 18.2382 10.6336V17.9108C18.2051 18.2207 18.4294 18.4989 18.7393 18.532C18.7505 18.5332 18.7617 18.5341 18.7729 18.5346H19.456L19.3966 18.6237C18.5053 19.8082 17.1067 20.502 15.6243 20.4949C15.2998 18.9037 13.7467 17.8767 12.1554 18.2013C10.7947 18.4788 9.81353 19.6706 9.80256 21.0593C9.81882 22.6882 11.144 24 12.7729 23.9999C13.5792 23.9868 14.3478 23.6559 14.9115 23.0791C15.2917 22.6896 15.5409 22.1912 15.6243 21.6533C17.4807 21.6604 19.2314 20.7905 20.3471 19.3068L20.9115 18.4751C22.1887 18.386 22.9907 17.584 22.9907 16.4256V12.7127C22.9907 11.4356 22.0402 9.92079 20.6739 9.92079ZM4.8719 17.3465H3.32737C2.68777 17.3309 2.18189 16.7999 2.19746 16.1603C2.19775 16.1498 2.19815 16.1392 2.19866 16.1287V12.4158C2.19866 11.7326 2.6739 11.1089 3.32737 11.1089H4.8719V17.3465ZM14.0501 22.2475C13.7209 22.6044 13.2584 22.8088 12.7729 22.8119C11.8065 22.7965 11.0223 22.0254 10.9907 21.0594C10.9903 20.0915 11.7746 19.3066 12.7425 19.3062C13.7104 19.3058 14.4953 20.0901 14.4957 21.058C14.4957 21.0584 14.4957 21.0589 14.4957 21.0594C14.5204 21.5004 14.3587 21.9315 14.0501 22.2475ZM21.8026 16.4257C21.8026 17.2277 21.0303 17.3465 20.6739 17.3465H19.4263V11.1089H20.6739C21.3274 11.1089 21.8026 12.0297 21.8026 12.7129V16.4257Z" fill="currentColor"/>
</svg>
