<svg viewBox="0 0 24 24" fill="none" xmlns="http://www.w3.org/2000/svg">
<path d="M4.60988 10.7935C8.9261 8.8491 11.8036 7.56708 13.2423 6.94772C17.355 5.17911 18.2085 4.87195 18.766 4.86154C18.8886 4.85951 19.1615 4.89085 19.3396 5.03976C19.4877 5.16536 19.5293 5.33521 19.5501 5.45447C19.5686 5.5736 19.5941 5.84512 19.5733 6.05708C19.3512 8.47806 18.3866 14.353 17.8963 17.0646C17.6904 18.212 17.281 18.5966 16.8854 18.6342C16.025 18.716 15.3727 18.0467 14.54 17.4823C13.2377 16.5989 12.5021 16.0491 11.2369 15.1872C9.77501 14.191 10.7234 13.6434 11.5561 12.7487C11.7735 12.5145 15.5624 8.95125 15.6341 8.62805C15.6433 8.58762 15.6526 8.43691 15.5647 8.35748C15.4791 8.27782 15.3519 8.30509 15.2593 8.32662C15.1275 8.35725 13.048 9.78017 9.014 12.5952C8.42416 13.0148 7.88984 13.2193 7.40872 13.2085C6.88133 13.1968 5.86357 12.8994 5.10719 12.6454C4.18195 12.3337 3.44408 12.1688 3.50884 11.6394C3.54123 11.3639 3.90901 11.0818 4.60988 10.7935Z" fill="currentColor"/>
</svg>
