<svg viewBox="0 0 24 24" fill="none" xmlns="http://www.w3.org/2000/svg">
<path d="M15.3984 10.5173C14.5321 11.3836 13.3326 11.9167 11.9999 11.9167C10.6672 11.9167 9.46775 11.3836 8.60147 10.5173C7.73519 9.65098 7.20204 8.45149 7.20204 7.11881C7.20204 5.78613 7.73514 4.58663 8.60147 3.72035C9.46776 2.85407 10.6672 2.32092 11.9999 2.32092C13.3326 2.32092 14.5321 2.85402 15.3984 3.72035C16.2647 4.58669 16.7978 5.78613 16.7978 7.11881C16.7978 8.45149 16.2647 9.65099 15.3984 10.5173ZM11.9999 4.95307C11.4002 4.95307 10.8505 5.20296 10.4673 5.58612C10.0675 5.98595 9.83425 6.51904 9.83425 7.11874C9.83425 7.71844 10.0841 8.2682 10.4673 8.65136C10.8671 9.05118 11.4002 9.28441 11.9999 9.28441C12.5996 9.28441 13.1494 9.03452 13.5325 8.65136C13.9324 8.25153 14.1656 7.71844 14.1656 7.11874C14.1656 6.51904 13.9157 5.96928 13.5325 5.58612C13.1494 5.1863 12.5996 4.95307 11.9999 4.95307ZM17.0477 11.95L18.4471 13.8659C18.5138 13.9659 18.4971 14.0991 18.4138 14.1658C17.231 15.132 15.8483 15.7817 14.4155 16.1149L17.131 21.3459C17.2143 21.4959 17.0977 21.6791 16.9311 21.6791H14.0324C13.9491 21.6791 13.8658 21.6291 13.8325 21.5458L12 17.2311L10.1675 21.5458C10.1341 21.6291 10.0508 21.6791 9.96755 21.6791H7.05221C6.88562 21.6791 6.769 21.4959 6.8523 21.3459L9.58441 16.1149C8.15166 15.7817 6.76894 15.132 5.58616 14.1658C5.50286 14.0991 5.4862 13.9659 5.55284 13.8659L6.96888 11.95C7.05217 11.8501 7.20211 11.8334 7.30207 11.9167C8.63486 13.0496 10.2674 13.7825 12.0167 13.7825C13.766 13.7825 15.3986 13.0495 16.7313 11.9167C16.8146 11.8167 16.9646 11.8334 17.0479 11.95H17.0477Z" fill="currentColor"/>
</svg>
