<svg viewBox="0 0 24 24" fill="none" xmlns="http://www.w3.org/2000/svg">
<path d="M21.2831 8.27547L15.3323 7.41063L12.6722 2.01766C12.5995 1.87 12.48 1.75047 12.3323 1.67782C11.962 1.495 11.512 1.64735 11.3268 2.01766L8.66668 7.41063L2.7159 8.27547C2.55184 8.29891 2.40184 8.37625 2.28699 8.49344C2.14815 8.63614 2.07165 8.82813 2.07428 9.02721C2.07692 9.22629 2.15849 9.41618 2.30106 9.55516L6.60653 13.7528L5.58934 19.6802C5.56549 19.818 5.58074 19.9599 5.63338 20.0895C5.68602 20.2192 5.77394 20.3315 5.88716 20.4137C6.00038 20.4959 6.13437 20.5448 6.27395 20.5547C6.41352 20.5647 6.5531 20.5353 6.67684 20.47L11.9995 17.6716L17.3222 20.47C17.4675 20.5473 17.6362 20.5731 17.7979 20.545C18.2057 20.4747 18.48 20.088 18.4097 19.6802L17.3925 13.7528L21.6979 9.55516C21.8151 9.44032 21.8925 9.29032 21.9159 9.12625C21.9792 8.7161 21.6932 8.33641 21.2831 8.27547Z" fill="currentColor"/>
</svg>
