<svg viewBox="0 0 20 20" fill="none" xmlns="http://www.w3.org/2000/svg">
<g clip-path="url(#clip0_339_4655)">
<path d="M5.00033 12.5C6.17884 12.5 6.76809 12.5 7.13421 12.8661C7.50033 13.2322 7.50033 13.8215 7.50033 15V15.8333C7.50033 17.0118 7.50033 17.6011 7.86644 17.9672C8.23256 18.3333 8.82181 18.3333 10.0003 18.3333C11.1788 18.3333 11.7681 18.3333 12.1342 17.9672C12.5003 17.6011 12.5003 17.0118 12.5003 15.8333V15C12.5003 13.8215 12.5003 13.2322 12.8664 12.8661C13.2326 12.5 13.8218 12.5 15.0003 12.5H15.8337C17.0122 12.5 17.6014 12.5 17.9675 12.1339C18.3337 11.7678 18.3337 11.1785 18.3337 10C18.3337 8.82149 18.3337 8.23223 17.9675 7.86611C17.6014 7.5 17.0122 7.5 15.8337 7.5H15.0003C13.8218 7.5 13.2326 7.5 12.8664 7.13388C12.5003 6.76776 12.5003 6.17851 12.5003 5V4.16666C12.5003 2.98815 12.5003 2.3989 12.1342 2.03278C11.7681 1.66666 11.1788 1.66666 10.0003 1.66666C8.82181 1.66666 8.23256 1.66666 7.86644 2.03278C7.50033 2.3989 7.50033 2.98815 7.50033 4.16666V5C7.50033 6.17851 7.50033 6.76776 7.13421 7.13388C6.76809 7.5 6.17884 7.5 5.00033 7.5H4.16699C2.98848 7.5 2.39923 7.5 2.03311 7.86611C1.66699 8.23223 1.66699 8.82149 1.66699 10C1.66699 11.1785 1.66699 11.7678 2.03311 12.1339C2.39923 12.5 2.98848 12.5 4.16699 12.5H5.00033Z" stroke="currentColor" stroke-width="1.6" stroke-linejoin="round"/>
</g>
<defs>
<clipPath id="clip0_339_4655">
<rect width="20" height="20" fill="white"/>
</clipPath>
</defs>
</svg>
