<svg viewBox="0 0 20 20" fill="none" xmlns="http://www.w3.org/2000/svg">
<path d="M12.3676 17.4702C11.474 18.2421 10.3685 18.7481 9.18406 18.9275C7.99964 19.1068 6.78679 18.9518 5.69146 18.4811C4.59614 18.0104 3.66499 17.244 3.01009 16.2742C2.35518 15.3044 2.00442 14.1725 2 13.0147C2 9.00983 4.07352 8.0086 8.22055 1C10.377 4.63446 11.9632 6.65694 13 8.30897" stroke="currentColor" stroke-width="2" stroke-linecap="round" stroke-linejoin="round"/>
<path d="M15 6C12.33 10.67 11 11.33 11 14C11 15.0609 11.4214 16.0783 12.1716 16.8284C12.9217 17.5786 13.9391 18 15 18C16.0609 18 17.0783 17.5786 17.8284 16.8284C18.5786 16.0783 19 15.0609 19 14C19 11.33 17.67 10.67 15 6Z" stroke="currentColor" stroke-width="2" stroke-linecap="round" stroke-linejoin="round"/>
</svg>
