<svg viewBox="0 0 24 24" fill="none" xmlns="http://www.w3.org/2000/svg">
<path d="M20.811 12.6042C20.379 11.2853 19.6538 9.88083 18.8111 8.48995C17.5468 6.4073 16.0132 4.36359 14.7867 2.8313C14.1743 2.06583 13.6386 1.42866 13.2522 0.981516C13.0588 0.757266 12.9035 0.581203 12.792 0.458016C12.7365 0.395953 12.6922 0.347391 12.6567 0.310078C12.6385 0.290109 12.6232 0.274547 12.6042 0.254578C12.5938 0.244641 12.5834 0.233812 12.5595 0.213797C12.5465 0.202125 12.5326 0.188672 12.4949 0.161344C12.4754 0.146625 12.4515 0.129234 12.3987 0.09975C12.3709 0.085875 12.3366 0.0685312 12.2802 0.0481406C12.223 0.0290625 12.1445 0.00215625 12.0005 0C11.8903 0.00046875 11.8192 0.0186563 11.7654 0.033375C11.6609 0.0654844 11.6175 0.0928125 11.5815 0.111891C11.5156 0.150469 11.4952 0.169125 11.4757 0.184734C11.4405 0.212484 11.4288 0.223313 11.4176 0.2355C11.3968 0.255469 11.385 0.266719 11.3716 0.280594C11.3473 0.305766 11.3213 0.333562 11.2879 0.369938C11.1626 0.507 10.9431 0.753797 10.6486 1.09725C9.61939 2.29777 7.68936 4.65244 5.99698 7.21566C5.15127 8.49816 4.36447 9.83222 3.77727 11.1173C3.48448 11.7597 3.24116 12.3907 3.06814 13.004C2.89597 13.6164 2.79139 14.2124 2.79102 14.7905C2.79059 17.3308 3.82325 19.6386 5.48872 21.3027C7.15245 22.9686 9.45983 24.0008 12.0005 24C14.5412 24.0008 16.8485 22.9686 18.5123 21.3027C20.1777 19.6386 21.21 17.3308 21.21 14.7905C21.2091 14.0871 21.0564 13.3579 20.811 12.6042ZM17.3287 20.1187C15.962 21.4831 14.084 22.325 12.0005 22.3263C9.91695 22.325 8.03895 21.4831 6.67231 20.1187C5.30741 18.7524 4.46605 16.874 4.46516 14.7905C4.46427 14.339 4.57184 13.7639 4.78175 13.1233C5.14738 12 5.81745 10.6802 6.6207 9.35864C7.82558 7.37264 9.32403 5.37239 10.5207 3.87778C11.1113 3.14048 11.6284 2.52591 12.0005 2.09391C12.0196 2.11519 12.0378 2.13731 12.0573 2.16028C13.0445 3.3083 14.9489 5.63002 16.5861 8.1082C17.4054 9.34598 18.1566 10.6246 18.6927 11.7978C18.9616 12.3846 19.1758 12.9437 19.3194 13.4524C19.4638 13.9607 19.5358 14.417 19.535 14.7904C19.535 16.8741 18.6927 18.7525 17.3287 20.1187Z" fill="currentColor"/>
<path d="M13.1412 11.3021H10.8581V13.9279H8.23242V16.2109H10.8581V18.8371H13.1412V16.2109H15.7669V13.9279H13.1412V11.3021Z" fill="currentColor"/>
</svg>
