<svg viewBox="0 0 20 20" fill="none" xmlns="http://www.w3.org/2000/svg">
<path fill-rule="evenodd" clip-rule="evenodd" d="M10.0007 0C6.31875 0 3.33398 2.98477 3.33398 6.66667C3.33398 8.35742 3.96338 9.90117 5.00065 11.0763V19.1667C5.00065 19.4638 5.15878 19.7383 5.41571 19.8874C5.67264 20.0365 5.98952 20.0376 6.24743 19.8902L10.0007 17.7455L13.7539 19.8902C14.0118 20.0376 14.3287 20.0365 14.5856 19.8874C14.8425 19.7383 15.0007 19.4638 15.0007 19.1667V11.0763C16.0379 9.90117 16.6673 8.35742 16.6673 6.66667C16.6673 2.98477 13.6826 0 10.0007 0ZM5.00065 6.66667C5.00065 3.90524 7.23923 1.66667 10.0007 1.66667C12.7621 1.66667 15.0007 3.90524 15.0007 6.66667C15.0007 9.42808 12.7621 11.6667 10.0007 11.6667C7.23923 11.6667 5.00065 9.42808 5.00065 6.66667ZM13.334 12.4414C12.3534 13.0087 11.2149 13.3333 10.0007 13.3333C8.7864 13.3333 7.64789 13.0087 6.66732 12.4414V17.7307L9.58723 16.0622C9.8434 15.9157 10.1579 15.9157 10.4141 16.0622L13.334 17.7307V12.4414Z" fill="currentColor"/>
</svg>
