<svg viewBox="0 0 22 22" fill="none" xmlns="http://www.w3.org/2000/svg">
<path d="M8.25065 8.25001H8.25982M13.7506 13.75H13.7598M14.6673 7.33335L7.33398 14.6667M8.43572 18.8842C8.73616 18.8444 9.03965 18.9259 9.27897 19.1102L10.382 19.9566C10.7465 20.2367 11.2537 20.2367 11.6173 19.9566L12.762 19.0777C12.9759 18.9137 13.2457 18.8414 13.5126 18.877L14.9445 19.0654C15.3997 19.1255 15.8387 18.8719 16.0149 18.4472L16.5659 17.115C16.6688 16.8655 16.8663 16.6679 17.1158 16.565L18.4479 16.014C18.8726 15.8388 19.1263 15.3989 19.0661 14.9436L18.8849 13.5636C18.8451 13.2631 18.9266 12.9596 19.1109 12.7202L19.9573 11.6172C20.2373 11.2526 20.2373 10.7454 19.9573 10.3818L19.0783 9.23699C18.9144 9.02312 18.8421 8.75323 18.8777 8.48637L19.0661 7.05439C19.1263 6.59911 18.8726 6.16015 18.4479 5.98395L17.1158 5.43295C16.8663 5.33008 16.6688 5.13249 16.5659 4.88296L16.0149 3.55078C15.8397 3.12607 15.3997 2.87246 14.9445 2.93255L13.5126 3.12097C13.2457 3.15764 12.9759 3.08532 12.763 2.92236L11.6183 2.04341C11.2537 1.76332 10.7465 1.76332 10.383 2.04341L9.23826 2.92236C9.02438 3.08532 8.75449 3.15764 8.48766 3.12301L7.05575 2.93459C6.6005 2.8745 6.16157 3.1281 5.98537 3.55281L5.43542 4.88499C5.33154 5.13351 5.13396 5.3311 4.88546 5.43498L3.55336 5.98497C3.12866 6.16117 2.87508 6.60013 2.93516 7.0554L3.12358 8.4874C3.1582 8.75424 3.08589 9.02414 2.92295 9.23699L2.04404 10.3818C1.76397 10.7464 1.76397 11.2537 2.04404 11.6172L2.92295 12.762C3.08691 12.9759 3.15922 13.2458 3.12358 13.5126L2.93516 14.9446C2.87508 15.3999 3.12866 15.8388 3.55336 16.0151L4.88546 16.5661C5.13498 16.669 5.33256 16.8665 5.43542 17.116L5.98639 18.4482C6.16157 18.873 6.60153 19.1265 7.05676 19.0665L8.43572 18.8842ZM8.70898 8.25001C8.70898 8.50314 8.50378 8.70835 8.25065 8.70835C7.99752 8.70835 7.79232 8.50314 7.79232 8.25001C7.79232 7.99688 7.99752 7.79168 8.25065 7.79168C8.50378 7.79168 8.70898 7.99688 8.70898 8.25001ZM14.209 13.75C14.209 14.0031 14.0037 14.2083 13.7506 14.2083C13.4976 14.2083 13.2923 14.0031 13.2923 13.75C13.2923 13.4969 13.4976 13.2917 13.7506 13.2917C14.0037 13.2917 14.209 13.4969 14.209 13.75Z" stroke="currentColor" stroke-width="1.5" stroke-linecap="round" stroke-linejoin="round"/>
</svg>
