<svg viewBox="0 0 20 20" fill="none" xmlns="http://www.w3.org/2000/svg">
<g clip-path="url(#clip0_1217_4237)">
<path d="M1.27661 12.468L11.9149 1.82973L11.4893 1.44675C11.1489 1.10633 11.1489 0.595696 11.4893 0.255243C11.8298 -0.085209 12.3404 -0.0851292 12.6808 0.255283L19.7447 7.27656C20.0851 7.61698 20.0851 8.12761 19.7447 8.46807C19.5745 8.63829 19.3617 8.72339 19.149 8.72339C18.9362 8.72339 18.7234 8.63829 18.5958 8.51063L18.1702 8.08509L7.53189 18.7234C6.72336 19.5319 5.61699 20 4.42549 20C3.23399 20 2.12762 19.5319 1.27657 18.6808C0.46804 17.8723 -3.24249e-05 16.7659 -3.24249e-05 15.5744C7.62939e-06 14.4255 0.425514 13.3191 1.27661 12.468ZM16.9787 6.89359L13.0639 2.9787L5.27662 10.7659H13.1064L16.9787 6.89359ZM2.42554 17.5319C2.97875 18.0425 3.65957 18.3404 4.383 18.3404C5.14896 18.3404 5.82983 18.0425 6.34047 17.5319L11.4042 12.468H3.61701H3.57444L2.4255 13.617C1.91486 14.1702 1.61698 14.851 1.61698 15.5744C1.61702 16.3404 1.9149 17.0213 2.42554 17.5319Z" fill="currentColor"/>
</g>
<defs>
<clipPath id="clip0_1217_4237">
<rect width="20" height="20" fill="white" transform="matrix(-1 0 0 1 20 0)"/>
</clipPath>
</defs>
</svg>
