<svg viewBox="0 0 20 20" fill="none" xmlns="http://www.w3.org/2000/svg">
<g clip-path="url(#clip0_1217_4224)">
<path fill-rule="evenodd" clip-rule="evenodd" d="M10 9.99998C7.7835 9.99998 5.98096 8.20599 5.98096 5.99998C5.98096 3.79398 7.7835 1.99998 10 1.99998C12.2165 1.99998 14.019 3.79398 14.019 5.99998C14.019 8.20599 12.2165 9.99998 10 9.99998ZM13.7759 10.673C15.3705 9.39596 16.2999 7.33093 15.9582 5.06993C15.5614 2.44693 13.369 0.347977 10.7224 0.0419769C7.07012 -0.381023 3.97144 2.44898 3.97144 5.99998C3.97144 7.88998 4.8516 9.57396 6.22411 10.673C2.85213 11.934 0.390463 14.895 0.00463406 18.891C-0.0516319 19.482 0.411567 20 1.0084 20C1.51982 20 1.95589 19.616 2.0011 19.109C2.40401 14.646 5.83728 12 10 12C14.1627 12 17.596 14.646 17.9989 19.109C18.0441 19.616 18.4802 20 18.9916 20C19.5884 20 20.0516 19.482 19.9954 18.891C19.6095 14.895 17.1479 11.934 13.7759 10.673Z" fill="currentColor"/>
</g>
<defs>
<clipPath id="clip0_1217_4224">
<rect width="20" height="20" fill="white"/>
</clipPath>
</defs>
</svg>
