<svg viewBox="0 0 32 32" fill="none" xmlns="http://www.w3.org/2000/svg">
<path d="M27.6134 4.39053C27.0927 3.86982 26.2485 3.86982 25.7278 4.39053L16.0019 14.1164L6.27614 4.39053C5.75545 3.86982 4.91122 3.86982 4.39053 4.39053C3.86982 4.91122 3.86982 5.75545 4.39053 6.27614L14.1163 16.002L4.39056 25.7277C3.86985 26.2485 3.86985 27.0926 4.39056 27.6135C4.91125 28.1341 5.75548 28.1341 6.27617 27.6135L16.0019 17.8876L25.7278 27.6135C26.2485 28.1341 27.0927 28.1341 27.6134 27.6135C28.1341 27.0926 28.1341 26.2485 27.6134 25.7278L17.8875 16.002L27.6134 6.27614C28.1341 5.75545 28.1341 4.91122 27.6134 4.39053Z" fill="currentColor"/>
</svg>
