<svg viewBox="0 0 24 24" fill="none" xmlns="http://www.w3.org/2000/svg">
<path fill-rule="evenodd" clip-rule="evenodd" d="M12.1934 20.9486C10.4269 20.9486 9.606 20.6896 8.17907 19.6536C7.27649 20.8191 4.41833 21.7299 4.29369 20.1716C4.29369 19.0018 4.03581 18.0133 3.74355 16.9342C3.39541 15.6046 3 14.124 3 11.9786C3 6.85477 7.18623 3 12.1461 3C17.1103 3 20.9999 7.0447 20.9999 12.0261C21.0079 14.3815 20.0852 16.6439 18.4341 18.3167C16.783 19.9895 14.5386 20.9361 12.1934 20.9486ZM12.2664 7.42888C9.85098 7.3037 7.96847 8.98288 7.55156 11.616C7.20772 13.7959 7.81804 16.4507 8.33809 16.5888C8.58738 16.6493 9.21488 16.1399 9.606 15.7471C10.2527 16.1958 11.0058 16.4653 11.7894 16.5284C12.9925 16.5865 14.1703 16.1682 15.0696 15.3635C15.969 14.5587 16.518 13.4317 16.5988 12.2247C16.6458 11.0152 16.2182 9.83544 15.408 8.93935C14.5978 8.04326 13.4697 7.50242 12.2664 7.4332V7.42888Z" fill="currentColor"/>
</svg>
