<svg viewBox="0 0 20 20" fill="none" xmlns="http://www.w3.org/2000/svg">
<g clip-path="url(#clip0_333_1643)">
<path d="M13.3337 5.41669C13.3337 7.48775 11.8413 9.16669 10.0003 9.16669C8.15938 9.16669 6.66699 7.48775 6.66699 5.41669C6.66699 3.34562 8.15938 1.66669 10.0003 1.66669C11.8413 1.66669 13.3337 3.34562 13.3337 5.41669Z" stroke="currentColor" stroke-width="1.6" stroke-linejoin="round"/>
<path d="M2.08366 15.2778C3.39515 13.5291 5.4534 12.5 7.63921 12.5H12.3614C14.5473 12.5 16.6055 13.5291 17.917 15.2778L17.9587 15.3334C18.2021 15.6579 18.3337 16.0527 18.3337 16.4584C18.3337 17.4939 17.4942 18.3334 16.4587 18.3334H3.54199C2.50646 18.3334 1.66699 17.4939 1.66699 16.4584C1.66699 16.0527 1.79858 15.6579 2.04199 15.3334L2.08366 15.2778Z" stroke="currentColor" stroke-width="1.6" stroke-linejoin="round"/>
</g>
<defs>
<clipPath id="clip0_333_1643">
<rect width="20" height="20" fill="currentColor"/>
</clipPath>
</defs>
</svg>
