<svg width="260" height="260" viewBox="0 0 260 260" fill="none" xmlns="http://www.w3.org/2000/svg">
<g clip-path="url(#clip0_339_6329)">
<path d="M260 130V132.229H252.2V130V129.876V127.771H260V129.876V130Z" fill="white" fill-opacity="0.5"/>
<path d="M259.753 121.829L259.877 124.057L252.077 124.552L251.953 122.324L251.829 120.095L259.629 119.6L259.753 121.829Z" fill="white" fill-opacity="0.5"/>
<path d="M259.877 135.943L259.753 138.171L259.629 140.4L251.829 139.905L251.953 137.676L252.077 135.448L259.877 135.943Z" fill="white" fill-opacity="0.5"/>
<path d="M259.01 113.657L259.258 115.886L251.458 116.876L251.21 114.772L250.963 112.543L258.639 111.552L259.01 113.657Z" fill="white" fill-opacity="0.5"/>
<path d="M259.258 144.114L259.01 146.343L258.639 148.448L250.963 147.457L251.21 145.229L251.458 143.124L259.258 144.114Z" fill="white" fill-opacity="0.5"/>
<path d="M257.648 105.61L258.143 107.838L250.343 109.324L249.972 107.219L249.6 104.99L257.276 103.505L257.648 105.61Z" fill="white" fill-opacity="0.5"/>
<path d="M258.143 152.162L257.648 154.39L257.276 156.495L249.6 155.009L249.972 152.781L250.343 150.676L258.143 152.162Z" fill="white" fill-opacity="0.5"/>
<path d="M255.914 97.5619L256.41 99.7905L248.857 101.771L248.362 99.6667L247.743 97.4381L255.419 95.5809L255.914 97.5619Z" fill="white" fill-opacity="0.5"/>
<path d="M256.41 160.209L255.914 162.438V162.314L255.419 164.419L247.743 162.562L248.362 160.333L248.857 158.229L256.41 160.209Z" fill="white" fill-opacity="0.5"/>
<path d="M253.685 89.7619L254.304 91.9904L246.876 94.3428L246.257 92.2381L246.133 92.3619L245.514 90.1333L252.942 87.6571L253.562 89.7619H253.685Z" fill="white" fill-opacity="0.5"/>
<path d="M254.304 168.133L253.685 170.238H253.562L252.942 172.219L245.514 169.867L246.133 167.638L246.257 167.762L246.876 165.657L254.304 168.133Z" fill="white" fill-opacity="0.5"/>
<path d="M250.838 82.0857L251.705 84.1905L244.4 87.0381L243.657 85.0571H243.533L242.791 82.9524L250.095 80.1047L250.838 82.0857Z" fill="white" fill-opacity="0.5"/>
<path d="M251.705 175.81L250.838 177.914L250.095 179.895L242.791 177.048L243.533 174.943H243.657L244.4 172.962L251.705 175.81Z" fill="white" fill-opacity="0.5"/>
<path d="M247.62 74.5334L248.487 76.6382L241.429 79.981L240.563 78.0001L239.696 76.0191L246.753 72.6763L247.62 74.6572V74.5334Z" fill="white" fill-opacity="0.5"/>
<path d="M248.487 183.362L247.62 185.467V185.343L246.753 187.324L239.696 183.981L240.563 182L241.429 180.019L248.487 183.362Z" fill="white" fill-opacity="0.5"/>
<path d="M243.904 67.3525L244.895 69.3335L238.085 73.0477L237.095 71.1906H236.971L235.98 69.2096L242.914 65.4954L243.904 67.3525Z" fill="white" fill-opacity="0.5"/>
<path d="M244.895 190.667L243.904 192.648L242.914 194.629L235.98 190.79L236.971 188.81H237.095L238.085 186.952L244.895 190.667Z" fill="white" fill-opacity="0.5"/>
<path d="M239.82 60.2951L240.934 62.1523L234.248 66.3618L233.134 64.5047V64.6285L232.02 62.6475L238.581 58.438L239.696 60.2951H239.82Z" fill="white" fill-opacity="0.5"/>
<path d="M240.934 197.847L239.82 199.705H239.696L238.581 201.562L232.02 197.352L233.134 195.371V195.495L234.248 193.514L240.934 197.847Z" fill="white" fill-opacity="0.5"/>
<path d="M237.22 124.429C237.715 124.924 237.715 125.667 237.343 126.162C232.391 131.857 227.315 137.057 222.239 141.886C221.743 141.267 221.248 140.524 220.753 139.905C225.705 135.2 230.658 130 235.61 124.429C235.982 124.057 236.724 124.057 237.22 124.429Z" fill="white" fill-opacity="0.5"/>
<path d="M235.115 53.4858L236.477 55.3429L230.039 59.9239L228.925 58.1905H228.801L227.563 56.4572L233.877 51.7524L235.115 53.6096V53.4858Z" fill="white" fill-opacity="0.5"/>
<path d="M236.477 204.657L235.115 206.514V206.39L233.877 208.248L227.563 203.543L228.801 201.686L228.925 201.809L230.039 200.076L236.477 204.657Z" fill="white" fill-opacity="0.5"/>
<path d="M230.162 47.0476L231.524 48.781L225.457 53.8572L224.219 52.1238H224.095L222.733 50.3905L228.8 45.4381L230.162 47.1714V47.0476Z" fill="white" fill-opacity="0.5"/>
<path d="M231.524 211.095L230.162 212.952V212.829L228.8 214.562L222.733 209.609L224.095 207.752L224.219 207.876L225.457 206.143L231.524 211.095Z" fill="white" fill-opacity="0.5"/>
<path d="M226.324 99.0476C226.943 99.2952 227.191 100.038 226.943 100.657C222.238 111.676 217.286 121.952 212.581 131.238C212.086 130.867 211.591 130.495 211.219 130.124L210.724 129.752C215.429 120.59 220.257 110.562 224.838 99.7904C224.962 99.0476 225.705 98.8 226.324 99.0476Z" fill="white" fill-opacity="0.5"/>
<path d="M224.838 40.981L226.2 42.5905L220.505 48.0381L219.143 46.3048L219.019 46.4286L217.533 44.6953L223.229 39.3715L224.714 40.981H224.838Z" fill="white" fill-opacity="0.5"/>
<path d="M226.2 217.41L224.838 219.019H224.714L223.229 220.629L217.533 215.181L219.019 213.571L219.143 213.695L220.505 211.962L226.2 217.41Z" fill="white" fill-opacity="0.5"/>
<path d="M220.505 36.7715L215.181 42.4667L213.696 40.981H213.572L212.086 39.3715L217.41 33.6763L218.896 35.2858L219.02 35.162L220.505 36.7715Z" fill="white" fill-opacity="0.5"/>
<path d="M215.181 217.533L220.505 223.229L219.02 224.838L218.896 224.714L217.41 226.324L212.086 220.629L213.572 219.019H213.696L215.181 217.533Z" fill="white" fill-opacity="0.5"/>
<path d="M214.562 31.2L209.486 37.2667L207.876 35.9048L206.267 34.4191L211.219 28.3524L212.828 29.8381L214.562 31.2Z" fill="white" fill-opacity="0.5"/>
<path d="M209.486 222.733L214.562 228.8L212.828 230.162L211.219 231.648L206.267 225.581L207.876 224.095L209.486 222.733Z" fill="white" fill-opacity="0.5"/>
<path d="M209.734 62.7714C210.353 62.8952 210.848 63.5143 210.725 64.1333C208.867 78 205.772 99.2952 201.934 122.695L199.829 120.838C203.544 98.0571 206.515 77.2571 208.372 63.7619C208.496 63.1428 209.115 62.6476 209.734 62.7714Z" fill="white" fill-opacity="0.5"/>
<path d="M208.124 26.1238L203.543 32.4381L201.809 31.0762V31.2L200.076 29.8381L204.657 23.5238L206.39 24.8857V24.7619L208.124 26.1238Z" fill="white" fill-opacity="0.5"/>
<path d="M203.543 227.562L208.124 233.876L206.39 235.238V235.114L204.657 236.476L200.076 230.162L201.809 228.8L203.543 227.562Z" fill="white" fill-opacity="0.5"/>
<path d="M201.437 21.419L197.228 27.9809L195.495 26.8667L193.637 25.6286L197.847 19.0667L199.58 20.3047L199.704 20.1809L201.437 21.419Z" fill="white" fill-opacity="0.5"/>
<path d="M197.228 231.895L201.437 238.581L199.704 239.819L199.58 239.695L197.847 240.933L193.637 234.371L195.495 233.133L197.228 231.895Z" fill="white" fill-opacity="0.5"/>
<path d="M200.2 36.0286C200.819 36.1524 201.314 36.6476 201.314 37.3905L198.095 83.6952C198.095 84.3143 197.476 84.8095 196.857 84.8095C196.238 84.6857 195.743 84.1905 195.743 83.4476L198.838 37.1428C198.838 36.5238 199.457 36.0286 200.2 36.0286Z" fill="white" fill-opacity="0.5"/>
<path d="M196.237 94.3428C196.857 94.4666 197.352 94.9619 197.352 95.7047L195.866 117.495C195.123 116.752 194.38 116.133 193.637 115.39L194.999 95.4571C194.999 94.7142 195.495 94.219 196.237 94.3428Z" fill="white" fill-opacity="0.5"/>
<path d="M180.886 192.648C181.133 192.648 181.381 192.771 181.505 192.771H181.752L182.991 192.895H183.486L184.972 193.019H185.467C185.714 193.019 185.838 193.019 186.086 193.019C186.829 193.019 187.695 193.019 188.438 193.019H189.305C189.8 193.019 190.419 193.019 190.914 192.895L191.657 192.771C191.905 192.771 192.276 192.771 192.524 192.648L193.267 192.524L194.01 192.4H194.133H194.381H194.629H195.372H195.495H195.619H195.743H195.867L195.991 192.524C196.238 192.648 196.362 192.771 196.486 193.019V193.143V193.267C196.486 193.39 196.486 193.514 196.486 193.638V193.762V193.886C196.362 194.01 196.362 194.133 196.238 194.257L196.114 194.381L195.991 194.505L195.867 194.629L195.743 194.752L195.495 194.876C194.752 195.124 194.01 195.371 193.143 195.495L192.524 195.619H192.276H192.029H191.657H191.533H191.41L190.791 195.743L190.048 195.867H189.676H189.305C188.81 195.867 188.314 195.99 187.943 195.99H187.324H185.714H184.848H184.229L183.61 195.867L182.991 195.743L182.495 195.619L181.876 195.495L181.257 195.867L180.267 195.619L179.152 195.371L178.533 195.248L177.419 194.876C174.572 193.886 171.972 192.4 169.248 191.41C168.629 191.162 167.638 190.79 166.648 190.543C166.4 190.171 166.152 189.8 166.029 189.305C162.191 181.629 165.286 171.352 169.124 164.048L169.619 163.057V162.933L170.114 162.067C170.238 161.695 170.486 161.448 170.61 161.076L171.229 160.086C171.724 159.219 172.219 158.476 172.591 157.61C172.962 156.99 173.21 156.495 173.581 155.876L174.2 154.762C174.572 154.143 174.943 153.4 175.314 152.781C175.438 152.41 175.686 152.038 175.81 151.667C175.933 151.295 176.181 150.924 176.305 150.552C176.429 150.181 176.552 149.933 176.676 149.686C176.8 149.438 176.924 149.067 177.048 148.695C177.048 148.571 177.048 148.571 177.172 148.448C177.295 148.324 177.172 148.2 177.295 148.2C177.419 148.2 177.543 147.705 177.543 147.333L177.791 146.467L177.914 145.848C177.914 145.724 178.038 145.6 178.038 145.476C178.162 145.105 178.162 144.733 178.286 144.362C178.286 144.238 178.41 143.99 178.41 143.867C178.533 143.495 178.533 143.124 178.533 142.752C178.781 140.771 179.648 135.076 177.914 133.59C178.657 134.333 179.524 134.952 180.267 135.695L180.762 136.19C181.381 136.809 182 137.429 182.619 137.924C182.991 138.295 183.238 138.543 183.61 138.914C184.229 139.533 184.724 140.029 185.343 140.648L186.21 141.514L187.2 142.505L188.314 143.619C188.686 143.99 188.933 144.362 189.305 144.733L189.676 145.229C190.419 145.971 191.162 146.838 191.781 147.705L191.905 147.952L192.152 148.324C192.772 148.943 193.267 149.686 193.762 150.305L194.381 151.048C194.505 151.295 194.752 151.543 195 151.79L195.495 152.409L196.486 153.648C196.61 153.771 196.61 153.771 196.733 153.895L197.476 155.009C197.724 155.381 197.972 155.752 198.219 156.124C198.714 156.867 199.086 157.61 199.581 158.352C199.705 158.6 199.829 158.848 199.952 159.095C200.076 159.343 200.2 159.59 200.324 159.838C200.448 160.086 200.572 160.333 200.695 160.705L201.067 161.571C201.067 161.695 201.191 161.695 201.191 161.819V161.943V162.067L201.438 162.562C201.438 162.686 201.562 162.809 201.686 163.057C201.81 163.305 201.81 163.429 201.933 163.676C202.057 163.924 202.057 163.924 202.057 164.048C202.057 164.171 202.181 164.295 202.181 164.419L202.429 165.038C202.552 165.286 202.552 165.533 202.676 165.781C202.924 166.524 203.172 167.143 203.295 167.886C203.419 168.257 203.419 168.629 203.543 169C203.667 169.371 203.667 169.495 203.667 169.743C203.667 169.99 203.791 170.362 203.791 170.61C203.791 170.857 203.914 171.352 204.038 171.724L204.162 172.219C204.162 172.467 204.162 172.714 204.286 172.838C204.41 172.962 204.286 173.21 204.286 173.333C204.286 173.457 204.41 173.952 204.41 174.2C204.41 174.448 204.41 174.695 204.41 174.943C204.533 176.429 204.533 178.038 204.41 179.524C204.41 179.895 204.41 180.143 204.286 180.514C201.81 180.39 199.21 180.886 196.981 182L196.362 182.248L195.991 182.371L195 182.867L193.886 183.486L193.514 183.733L192.772 184.105L192.524 184.229C192.4 184.352 192.152 184.476 191.905 184.476L191.41 184.724H191.286L190.791 184.971L190.048 185.219L189.305 185.467L188.81 185.59L188.314 185.838L187.695 185.962L187.2 186.086H186.705H186.086H184.972C184.6 186.086 184.352 186.086 183.981 186.086H183.733L182.743 185.962C181.381 185.838 180.019 185.59 178.657 185.219L177.543 184.848C176.552 184.6 175.562 185.095 175.314 186.086C175.191 186.333 175.191 186.705 175.314 187.076C175.314 187.2 175.438 187.448 175.438 187.571C175.686 188.81 176.305 189.924 177.295 190.79C177.419 190.914 177.419 190.914 177.543 191.038L177.667 191.162C177.791 191.286 177.914 191.41 178.162 191.41L178.286 191.533C178.41 191.533 178.533 191.657 178.533 191.657L178.781 191.781L179.152 191.905L179.524 192.029L179.895 192.152L180.886 192.648Z" fill="white" fill-opacity="0.5"/>
<path d="M194.505 17.2094L190.791 24.0189L188.934 22.9046L188.81 23.0285L186.953 21.9142L190.791 14.9808L192.648 16.0951V15.9713L194.505 17.2094Z" fill="white" fill-opacity="0.5"/>
<path d="M190.791 235.981L194.505 242.79L192.648 243.905L190.791 245.019L186.953 238.086L188.81 236.971L188.934 237.095L190.791 235.981Z" fill="white" fill-opacity="0.5"/>
<path d="M191.533 191.905C191.038 191.905 190.542 192.028 190.047 192.028C190.419 192.028 190.914 192.028 191.533 191.905Z" fill="white" fill-opacity="0.5"/>
<path d="M187.323 85.5523L188.314 110.19C187.323 109.2 186.581 108.209 185.838 107.343L184.847 85.6761C184.847 85.057 185.342 84.438 185.961 84.438C186.704 84.438 187.323 84.9332 187.323 85.5523Z" fill="white" fill-opacity="0.5"/>
<path d="M187.324 13.3715L183.981 20.4286L182 19.4381V19.5619L180.02 18.4476L183.362 11.3905L185.343 12.381L187.324 13.3715Z" fill="white" fill-opacity="0.5"/>
<path d="M183.981 239.571L187.324 246.628L185.343 247.619L183.362 248.609L180.02 241.552L182 240.562L183.981 239.571Z" fill="white" fill-opacity="0.5"/>
<path d="M182.495 26.1237C182.495 25.5046 182.99 24.8856 183.609 24.8856H183.856C156.866 11.0189 125.666 8.04747 96.5708 16.5903L113.904 46.7998H111.18L94.5898 17.8284C94.466 17.5808 94.466 17.457 94.466 17.2094C32.066 36.8951 -2.47684 103.257 17.2089 165.533C27.8565 199.333 53.1136 226.571 85.9231 239.695C85.9231 239.819 85.9231 239.819 85.9231 239.819C85.7993 240.19 85.9231 240.562 86.2946 240.809C86.4184 240.933 86.666 241.057 86.9136 241.057C87.0374 241.057 87.1612 241.057 87.4089 240.933L88.1517 240.438C110.19 248.733 134.209 250.343 157.114 245.019C160.456 241.676 165.533 234 172.837 217.657C173.704 217.781 174.571 217.781 175.437 217.781C169.99 229.914 165.285 238.705 161.323 243.905C166.771 242.419 172.095 240.562 177.295 238.333C179.399 231.647 181.133 224.838 182.371 217.905L184.847 217.781C183.361 225.086 181.876 231.647 180.142 237.095C183.856 235.362 187.571 233.381 191.161 231.276L190.542 217.038C191.285 216.914 192.152 216.79 192.895 216.543L193.39 229.79L194.876 228.8L193.266 216.419C194.009 216.295 194.876 216.047 195.618 215.8L197.104 227.19C199.085 225.828 200.942 224.467 202.799 222.981L199.952 214.438C200.695 214.19 201.437 213.819 202.18 213.571L204.904 221.495C206.142 220.505 207.38 219.39 208.618 218.4L205.152 212.209C205.895 211.838 206.514 211.467 207.256 211.095L210.352 216.79C212.704 214.562 215.056 212.333 217.161 209.857L214.066 206.267C214.685 205.771 215.304 205.152 215.923 204.657L218.895 208C220.504 206.143 222.114 204.286 223.599 202.305L220.876 199.457C221.371 198.838 221.866 198.219 222.361 197.476L225.085 200.2C226.695 198.095 228.18 195.867 229.666 193.638L225.952 191.781C226.323 191.038 226.695 190.295 227.066 189.552L230.904 191.409C232.142 189.428 233.38 187.324 234.495 185.219C232.761 185.095 230.904 184.971 229.171 184.6C229.418 183.857 229.666 182.99 229.914 182.247C231.895 182.619 233.876 182.867 235.856 182.743C236.847 180.762 237.837 178.657 238.828 176.552C237.342 176.8 235.98 176.924 234.495 176.924C233.38 176.924 232.266 176.924 231.152 176.8C231.276 175.933 231.399 175.19 231.399 174.324C234.99 174.571 238.085 174.447 240.066 173.581C241.056 171.228 241.923 168.752 242.79 166.152C239.076 167.143 235.237 167.886 231.523 168.381C231.523 167.514 231.523 166.771 231.399 165.905C235.609 165.409 239.695 164.543 243.78 163.305C244.399 161.324 244.895 159.343 245.39 157.362C240.809 159.714 235.98 161.447 231.028 162.562C230.904 161.695 230.78 160.952 230.533 160.086C236.847 158.476 242.914 156.371 246.133 153.771C246.752 150.676 247.371 147.581 247.742 144.362L240.685 148.819C240.561 148.943 240.314 148.943 240.066 148.943C239.695 148.943 239.199 148.695 239.076 148.324C238.704 147.705 238.828 146.962 239.447 146.59L248.114 141.019C248.361 138.047 248.609 134.952 248.733 131.857C241.552 137.552 234.123 142.876 226.323 147.581C225.952 146.838 225.58 146.095 225.209 145.352C233.38 140.276 241.304 134.705 248.856 128.638C248.856 123.562 248.485 118.486 247.866 113.533C246.999 114.647 245.885 116.133 244.399 117.99C244.028 118.486 243.285 118.609 242.79 118.114C242.295 117.619 242.171 116.876 242.666 116.381C245.39 113.162 246.999 110.809 247.495 110.19C246.876 106.6 246.133 103.009 245.266 99.5427C241.428 105.114 231.028 120.467 218.895 135.943C218.399 135.324 217.78 134.705 217.161 134.086C230.904 116.505 242.295 99.4189 244.399 96.3237C242.542 89.7618 240.066 83.3237 236.971 77.1332C236.228 79.1141 234.99 82.2094 233.38 86.1713C233.256 86.6665 232.761 86.9141 232.266 86.9141C232.142 86.9141 231.895 86.9141 231.771 86.7903C231.152 86.5427 230.904 85.7999 231.152 85.1808C233.38 79.6094 234.866 75.6475 235.485 74.2856C233.504 70.4475 231.276 66.7332 228.799 63.1427C226.818 70.076 220.628 90.9998 212.58 116.009C212.456 116.505 211.961 116.876 211.466 116.876C211.342 116.876 211.218 116.876 211.095 116.876C210.476 116.628 210.104 115.886 210.352 115.267C219.266 87.4094 225.828 64.6284 227.066 60.5427C223.104 55.0951 218.771 50.0189 214.066 45.1903C213.942 46.057 213.695 48.4094 213.199 51.6284C213.076 52.2475 212.58 52.7427 211.961 52.7427H211.837C211.218 52.6189 210.723 51.9998 210.847 51.3808C211.466 46.9237 211.714 44.4475 211.714 44.4475C211.714 44.076 211.961 43.7046 212.333 43.5808C204.285 35.9046 195.247 29.4665 185.342 24.2665C185.59 24.5141 185.714 24.7618 185.714 25.1332L186.209 38.257H183.856L182.495 26.1237ZM215.304 44.6951C262.352 91.8665 262.352 168.133 215.304 215.305C168.256 262.476 91.866 262.352 44.6946 215.305C-2.47684 168.257 -2.35303 91.8665 44.6946 44.6951C67.3517 22.0379 97.9327 9.28556 129.999 9.28556C161.942 9.16175 192.771 21.9141 215.304 44.6951Z" fill="white" fill-opacity="0.5"/>
<path d="M187.2 64.2571H179.647V63.6381H180.266C180.39 63.6381 180.638 63.6381 180.761 63.5142C180.885 63.5142 180.885 63.3904 181.009 63.2666C181.133 63.019 181.133 62.7714 181.133 62.5238V53.8571L180.638 53.4857L181.133 52.619V50.2666C181.133 50.019 181.133 49.8952 181.009 49.6476C181.009 49.5238 180.885 49.4 180.761 49.4C180.638 49.4 180.39 49.2762 180.266 49.2762H179.647V48.6571H187.2V49.5238H186.085C185.961 49.5238 185.714 49.5238 185.59 49.6476C185.466 49.6476 185.466 49.7714 185.342 49.8952C185.219 50.1428 185.219 50.3904 185.219 50.6381V62.7714C185.219 63.019 185.219 63.1428 185.342 63.3904C185.342 63.5142 185.466 63.6381 185.59 63.6381C185.714 63.7619 185.961 63.7619 186.085 63.7619H187.2V64.2571Z" fill="white" fill-opacity="0.5"/>
<path d="M179.896 9.90481L176.925 17.2096L174.944 16.3429V16.4667L172.963 15.6001L175.81 8.29529L177.791 9.16196L177.915 9.03815L179.896 9.90481Z" fill="white" fill-opacity="0.5"/>
<path d="M176.925 242.79L179.896 250.095L177.915 250.962L177.791 250.838L175.81 251.705L172.963 244.4L174.944 243.533V243.657L176.925 242.79Z" fill="white" fill-opacity="0.5"/>
<path d="M178.533 48.0381C177.914 48.0381 177.171 47.9143 176.552 47.7905C176.057 47.6667 175.562 47.4191 175.067 47.0477C174.695 46.6762 174.448 46.3048 174.324 45.9334C174.2 45.4381 174.076 45.0667 174.076 44.5715V44.3239H177.419V44.5715C177.419 45.4381 177.543 46.181 177.79 46.9239C178.286 47.5429 179.276 47.6667 179.895 47.1715C180.019 47.0477 180.143 47.0477 180.143 46.9239C180.514 46.181 180.638 45.4381 180.638 44.5715V44.3239H183.857V44.5715C183.857 45.0667 183.733 45.4381 183.61 45.9334C183.486 46.4286 183.238 46.8 182.867 47.0477C182.495 47.4191 182 47.6667 181.381 47.7905C180.762 47.9143 180.267 48.0381 179.648 48.0381H178.533Z" fill="white" fill-opacity="0.5"/>
<path d="M176.676 95.8286C176.676 95.9524 176.676 96.0762 176.799 96.0762C176.799 96.2 176.923 96.3239 176.923 96.5715C176.923 96.8191 177.047 96.9429 177.047 97.0667C177.047 97.1905 177.171 97.4381 177.171 97.5619C177.295 97.9334 177.418 98.4286 177.666 98.8C177.914 99.1715 177.914 99.5429 178.037 99.9143C178.037 100.038 178.161 100.162 178.161 100.162C178.285 100.533 178.409 100.781 178.533 101.152C178.657 101.524 178.904 101.895 179.028 102.391C179.028 102.391 179.028 102.391 179.028 102.514L179.523 103.505C179.523 103.629 179.523 103.629 179.647 103.752V103.876V104L179.895 104.495L180.142 104.991C180.142 105.114 180.142 105.114 180.266 105.114C180.39 105.486 180.637 105.733 180.885 106.105L181.133 106.6L181.504 107.219L181.752 107.591L182.123 108.21L182.371 108.581L182.866 109.324L182.99 109.448C183.114 109.695 183.361 109.943 183.609 110.191C183.857 110.438 183.857 110.686 184.104 110.933C184.352 111.181 184.476 111.429 184.723 111.676L185.342 112.419L185.466 112.543L185.837 113.038C185.837 113.162 185.961 113.162 185.961 113.162L186.333 113.533C186.333 113.533 186.333 113.533 186.457 113.657C186.952 114.152 187.323 114.771 187.818 115.267L188.314 115.762L188.933 116.381C189.18 116.629 189.552 117 189.799 117.248C191.037 118.362 192.276 119.476 193.514 120.591C194.257 121.21 194.999 121.952 195.742 122.571C195.866 122.695 195.99 122.819 196.114 122.819C197.228 123.81 198.218 124.676 199.333 125.667L201.437 127.524L201.561 127.648L202.923 128.886L203.542 129.505L204.904 130.743C205.399 131.114 205.771 131.61 206.266 131.981C206.761 132.352 207.133 132.724 207.504 133.219C207.876 133.714 208.123 133.838 208.495 134.21L209.485 135.2L209.857 135.571L210.476 136.191L211.218 136.933L211.961 137.676L212.58 138.295L213.323 139.162L214.066 140.029L214.809 140.895C215.552 141.762 216.171 142.629 216.914 143.495L217.533 144.362C217.78 144.733 218.028 144.981 218.276 145.352C218.276 145.352 218.276 145.352 218.276 145.476V145.6C218.523 145.848 218.647 146.219 218.895 146.467C219.142 146.714 219.266 146.962 219.39 147.21C219.514 147.457 219.885 147.952 220.009 148.324L220.504 149.191L221.123 150.181L221.371 150.676L221.618 151.171L221.742 151.543L221.866 151.914L221.99 152.286C222.237 152.905 222.485 153.4 222.733 154.019C222.857 154.143 222.857 154.391 222.98 154.514L223.352 155.257L223.723 156.124L223.847 156.495L224.095 157.114L224.342 157.981C224.342 158.229 224.466 158.352 224.466 158.6C224.466 158.848 224.59 159.219 224.714 159.467C224.837 159.714 224.837 159.962 224.961 160.333L225.085 160.829C225.085 161.076 225.209 161.324 225.209 161.571C225.333 162.067 225.457 162.686 225.457 163.181C225.457 163.429 225.58 163.8 225.58 164.048C225.58 164.171 225.58 164.295 225.58 164.295C225.58 164.295 225.704 164.791 225.704 165.038C225.704 165.286 225.828 165.657 225.828 165.905C225.828 166.152 225.828 166.4 225.828 166.524C225.828 166.648 225.828 166.771 225.828 166.895C225.828 167.143 225.828 167.514 225.828 167.762C225.828 168.01 225.828 168.381 225.828 168.629C225.828 168.876 225.828 168.876 225.828 169C225.828 169.619 225.828 170.114 225.828 170.61C225.828 170.733 225.828 170.857 225.828 170.857C225.828 170.981 225.828 171.105 225.828 171.105C225.828 171.229 225.828 171.352 225.828 171.6C225.828 171.848 225.828 172.219 225.828 172.467C225.828 172.591 225.828 172.714 225.828 172.838V172.962V173.581C225.828 173.705 225.828 173.952 225.828 174.2C225.828 174.448 225.828 174.324 225.828 174.324C225.828 174.571 225.828 174.819 225.704 175.067L225.58 176.181V176.305C225.58 176.676 225.457 177.048 225.333 177.419C225.209 177.791 225.209 178.162 225.085 178.533C224.961 179.4 224.714 180.267 224.466 181.01L224.218 182.124C224.095 182.371 224.095 182.619 223.971 182.867C223.847 183.114 223.971 182.991 223.971 182.991C223.971 182.991 223.971 182.991 223.971 183.114C223.971 183.238 223.971 183.238 223.971 183.238C223.971 183.238 223.971 183.362 223.971 183.486C223.971 183.61 223.971 183.61 223.847 183.733C223.723 184.229 223.476 184.724 223.352 185.095C223.228 185.467 222.98 185.962 222.857 186.457C222.733 186.952 222.609 187.076 222.485 187.448L222.361 187.695C222.361 187.819 222.237 187.943 222.237 187.943V188.067V188.191C222.237 188.314 222.114 188.438 221.99 188.686C221.866 188.933 221.742 189.305 221.495 189.676L220.999 190.543L220.876 190.791C220.752 191.038 220.628 191.286 220.504 191.533C220.38 191.781 220.38 191.657 220.38 191.781L220.257 192.152C220.133 192.4 220.009 192.648 219.885 192.771C219.761 192.895 219.761 193.019 219.637 193.267L219.39 193.638L219.142 194.01C219.018 194.257 218.895 194.381 218.771 194.629L218.276 195.371L217.78 195.991L217.161 196.857L216.542 197.476L216.295 197.724L216.047 197.971C215.923 198.095 215.676 198.343 215.552 198.591L215.18 198.962L214.437 199.705L213.942 200.076L213.447 200.571L213.323 200.695C213.199 200.819 213.199 200.819 213.076 200.943C212.828 201.191 212.457 201.562 212.085 201.81L211.961 201.933L211.218 202.552L210.476 203.171L209.733 203.791L209.237 204.162L208.866 204.41L208.495 204.657L208.123 204.905C207.628 205.276 207.133 205.648 206.514 205.895C205.895 206.143 205.399 206.514 204.904 206.886H204.78L203.666 207.381C203.542 207.381 203.418 207.505 203.171 207.505L202.552 207.752C201.809 208 201.066 208.248 200.199 208.495L199.457 208.743L197.971 208.991H197.847C197.352 209.114 196.733 209.114 196.237 209.114H195.618H193.266H192.399H192.028H191.904H191.161H190.914H190.666H190.171H190.047L189.428 208.991H189.304L188.933 208.867L188.19 208.743H188.066L187.323 208.619H187.199L186.58 208.495L186.333 208.371L185.59 208.124L184.723 207.876L184.104 207.629L183.237 207.257L182.866 207.133H182.742L182.247 206.886C181.752 206.638 181.133 206.391 180.637 206.019L180.514 205.895H180.39L180.142 205.771C180.018 205.648 179.771 205.524 179.647 205.4L179.276 205.152L178.657 204.533L178.533 204.41C178.037 203.914 177.542 203.419 177.047 202.924C176.552 202.429 176.18 201.933 175.809 201.562L176.799 202.057L177.666 202.429L179.028 203.048L181.009 203.791L181.257 203.914L181.876 204.162L182.618 204.41L182.99 204.533L184.228 205.029H184.352C185.095 205.276 185.837 205.524 186.704 205.771C187.571 206.019 187.942 206.143 188.561 206.391H188.809H189.057H189.304H189.676C189.923 206.391 190.171 206.391 190.418 206.391H190.79L191.161 206.267L191.904 206.143L192.523 206.019C193.018 205.895 193.39 205.771 193.761 205.648L194.133 205.524L194.628 205.276L194.752 205.152L195.123 205.029L195.495 204.781L195.742 204.657L195.99 204.533L195.866 204.657H195.742C195.618 204.781 195.495 204.781 195.371 204.781L194.876 204.905L194.38 205.029L193.761 205.152L192.771 205.4L192.152 205.524H191.904L191.409 205.648H191.161H190.914H190.79H190.542H189.18H188.933H188.561C187.942 205.4 187.323 205.276 186.58 205.029L184.228 204.162L183.98 204.038C183.114 203.667 182.123 203.295 181.257 202.924L181.009 202.8L179.152 202.057L175.933 200.571L175.066 200.2L174.818 200.076L174.199 199.829L172.59 199.086H172.466L172.218 198.838H172.095C171.599 198.467 170.98 198.219 170.485 197.848L168.628 196.857L166.647 195.867L165.657 195.371L165.409 195.248L163.923 194.505L163.676 194.381L163.428 194.257L163.18 194.133C162.933 194.01 162.561 193.762 162.314 193.514L162.19 193.391L161.942 193.143L161.571 192.648C161.571 192.648 161.571 192.524 161.695 192.4C162.19 191.533 163.799 191.286 166.152 192.029C166.895 192.276 167.637 192.524 168.257 192.648L168.752 192.771C170.114 193.267 171.476 193.886 172.714 194.381C173.952 194.876 175.437 195.619 176.923 196.114C177.295 196.238 177.666 196.362 178.037 196.486L178.657 196.61C179.028 196.733 179.399 196.857 179.895 196.857L180.39 196.981L180.885 197.105H181.133L181.628 197.229L182.247 197.352L182.866 197.476C182.99 197.476 183.114 197.476 183.114 197.476H183.609H184.476H185.218H185.342C186.085 197.476 186.952 197.476 187.818 197.476H188.437H188.933H189.428H189.552H189.923H190.418L191.037 197.352L191.657 197.229L192.276 197.105L192.771 196.981H193.018L193.39 196.857H193.514L193.885 196.733L194.257 196.61H194.38L194.628 196.486H194.752L195.123 196.362L195.495 196.238L195.742 196.114L195.866 195.991L196.114 195.867L196.485 195.743L196.857 195.495L196.98 195.371L197.228 195.124L197.352 195L197.476 194.876C197.476 194.752 197.599 194.752 197.599 194.629V194.505V194.381C197.599 194.257 197.599 194.257 197.599 194.133C197.723 193.514 197.476 192.771 196.98 192.276C196.237 191.657 195.247 191.41 194.257 191.533H194.133H193.885H193.761L192.895 191.657L192.276 191.781L191.533 191.905H191.285C190.79 191.905 190.295 192.029 189.799 192.029H189.18C188.933 192.029 188.685 192.029 188.437 192.029H185.714H184.971H184.352H183.98H183.361L181.999 191.905H181.752H181.504H181.257L180.885 191.781H180.637L180.39 191.657L180.142 191.533L179.771 191.41C179.647 191.41 179.523 191.286 179.399 191.286L179.152 191.162H179.028L178.78 191.038H178.657C178.533 191.038 178.409 190.914 178.409 190.791L178.161 190.543C177.418 189.8 176.923 188.933 176.676 187.943L176.552 187.448C176.552 187.2 176.552 186.829 176.799 186.705C177.047 186.457 177.295 186.457 177.542 186.581L178.533 186.952H178.657C180.018 187.324 181.38 187.571 182.866 187.695H183.361C183.733 187.695 183.98 187.695 184.352 187.695H184.847C187.076 187.695 189.18 187.324 191.285 186.581L191.533 186.457L191.78 186.333C191.904 186.21 192.152 186.21 192.399 186.086C192.647 185.962 192.771 185.838 193.018 185.838H193.142C193.39 185.714 193.761 185.591 194.009 185.343L194.876 184.848C195.742 184.352 196.609 183.857 197.476 183.486C199.58 182.495 201.933 182 204.409 182C205.647 182 206.761 182.371 207.876 182.743C210.228 183.61 212.085 185.219 213.447 187.324L214.314 188.686L215.057 187.324L215.428 186.705C215.552 186.457 215.676 186.21 215.799 186.086C215.923 185.962 215.923 185.714 216.047 185.591L216.171 185.219C216.418 184.848 216.542 184.352 216.79 183.981C217.037 183.61 217.037 183.362 217.161 182.991L217.285 182.495C217.285 182.371 217.409 182.124 217.409 182C217.409 181.876 217.657 181.381 217.78 181.133C217.904 180.886 218.028 180.514 218.028 180.267L218.152 179.648L218.399 178.905C218.399 178.781 218.399 178.657 218.523 178.533C218.523 178.533 218.523 178.533 218.523 178.41L218.647 177.667C218.647 177.543 218.647 177.543 218.647 177.419V177.295C218.647 177.048 218.771 176.8 218.771 176.552C218.771 176.305 218.895 175.933 218.895 175.686V175.562V175.438C218.895 175.191 219.018 175.067 219.018 174.819C219.018 174.571 219.142 174.448 219.142 174.2C219.142 173.952 219.266 173.457 219.266 173.086C219.39 172.343 219.39 171.6 219.514 170.857V169.867C219.514 169.743 219.514 169.743 219.514 169.619C219.514 169.371 219.514 169 219.514 168.752V168.133V167.267C219.514 167.143 219.514 167.019 219.514 166.895C219.514 166.771 219.514 166.648 219.514 166.524C219.514 166.4 219.514 166.276 219.514 166.152C219.514 165.905 219.514 165.781 219.514 165.533C219.39 164.667 219.266 163.924 219.142 163.057C219.142 162.81 219.018 162.686 219.018 162.438C219.018 162.191 218.895 162.067 218.895 161.819V161.695V161.571C218.771 161.2 218.771 160.952 218.647 160.581L218.399 159.591C218.399 159.591 218.399 159.591 218.399 159.467C218.399 159.343 218.276 159.219 218.276 159.219C218.276 158.971 218.152 158.848 218.028 158.6C217.904 158.352 218.028 158.352 217.904 158.352L217.78 157.733C217.657 157.61 217.657 157.362 217.533 157.114C217.409 156.743 217.285 156.371 217.037 156L216.666 155.133L216.542 155.01C216.418 154.638 216.171 154.267 216.047 153.771C215.923 153.276 215.676 153.029 215.552 152.657C215.428 152.286 215.428 152.286 215.304 152.162C215.18 152.038 215.18 151.791 215.057 151.543C214.933 151.295 214.809 151.048 214.561 150.8C214.314 150.305 213.942 149.686 213.571 149.191C212.952 148.076 212.209 147.086 211.59 146.095C211.466 145.848 211.218 145.6 211.095 145.352L210.476 144.61L210.228 144.238L209.609 143.495L209.485 143.371L209.361 143.248C209.114 143 208.866 142.629 208.618 142.381C208.371 142.133 208.247 141.886 207.999 141.638L207.133 140.648C207.009 140.524 206.885 140.276 206.637 140.029L206.142 139.41L205.523 138.667L204.657 137.676C204.285 137.305 204.037 136.933 203.666 136.562C203.171 135.943 202.552 135.448 202.057 134.829L201.314 133.962L200.076 132.724C199.457 132.105 198.714 131.362 198.095 130.743L195.99 128.638L194.999 127.648L192.771 125.419L192.523 125.171C192.028 124.676 191.533 124.057 190.914 123.562L189.18 121.705L188.561 121.086C187.571 119.971 186.828 119.105 186.085 118.114L185.714 117.743C185.466 117.371 184.847 116.505 184.352 115.762C183.98 115.267 183.609 114.771 183.361 114.4L182.866 113.533C182.371 112.667 181.752 111.552 181.38 110.933C181.257 110.81 181.257 110.562 181.133 110.438L180.39 108.952C180.142 108.457 179.895 107.962 179.771 107.467V107.343L179.523 106.724C179.399 106.476 179.276 106.229 179.276 105.981C179.152 105.733 179.152 105.486 179.028 105.238C178.904 104.991 178.78 104.619 178.657 104.248V104L178.409 103.133C178.285 102.762 178.161 102.514 178.037 102.143C177.79 101.524 177.666 100.781 177.418 100.162C177.295 99.9143 177.295 99.5429 177.171 99.2953C177.047 99.0477 177.047 98.9239 177.047 98.8V98.5524V98.4286C177.047 98.181 176.923 97.9334 176.923 97.8096C176.923 97.5619 176.799 97.3143 176.799 97.0667L176.676 96.3239C176.676 95.9524 176.552 95.7048 176.552 95.3334C176.552 95.4572 176.676 95.581 176.676 95.8286Z" fill="white" fill-opacity="0.5"/>
<path d="M170.98 48.9047H178.533V49.5237H177.914C177.79 49.5237 177.542 49.5237 177.419 49.6475C177.295 49.6475 177.295 49.7713 177.171 49.8951C177.171 50.1428 177.047 50.3904 177.047 50.638V59.3047L180.514 53.6094L181.009 53.9809L177.047 60.4189V62.7713C177.047 63.019 177.047 63.1428 177.171 63.2666C177.171 63.3904 177.295 63.3904 177.419 63.5142C177.542 63.5142 177.79 63.638 177.914 63.638H178.533V64.257H170.98V63.638H172.095C172.219 63.638 172.466 63.638 172.59 63.5142C172.714 63.5142 172.714 63.3904 172.838 63.2666C172.961 63.0189 172.961 62.7713 172.961 62.5237V50.3904C172.961 50.1428 172.961 49.8951 172.838 49.7713C172.838 49.6475 172.714 49.5237 172.59 49.5237C172.466 49.3999 172.219 49.3999 172.095 49.3999H170.98V48.9047Z" fill="white" fill-opacity="0.5"/>
<path d="M172.219 7.0571L169.867 14.4857L167.762 13.7428V13.8666L165.657 13.1238L168.133 5.69519L170.114 6.31424L172.219 7.0571Z" fill="white" fill-opacity="0.5"/>
<path d="M169.867 245.514L172.219 252.943L170.114 253.686V253.562L168.133 254.305L165.657 246.876L167.762 246.133V246.257L169.867 245.514Z" fill="white" fill-opacity="0.5"/>
<path d="M170.114 25.8762L171.848 39.1239H169.371L167.638 26.2477C167.514 25.6286 168.009 25.0096 168.628 24.8858C169.495 24.762 169.99 25.1334 170.114 25.8762Z" fill="white" fill-opacity="0.5"/>
<path d="M165.781 78.7428C165.905 79.3619 165.534 80.1047 164.915 80.2286C164.791 80.2286 164.791 80.2286 164.667 80.2286C164.048 80.2286 163.677 79.8571 163.553 79.2381L160.953 67.6H163.429L165.781 78.7428Z" fill="white" fill-opacity="0.5"/>
<path d="M164.42 4.58096L162.439 12.2572L160.458 11.6381H160.334L158.229 11.1429L160.21 3.46667L162.315 4.08572L164.42 4.58096Z" fill="white" fill-opacity="0.5"/>
<path d="M162.439 247.743L164.42 255.419L162.315 255.914L160.21 256.533L158.229 248.857L160.334 248.362H160.458L162.439 247.743Z" fill="white" fill-opacity="0.5"/>
<path d="M152.41 67.7239L164.171 102.267C163.8 102.886 163.305 103.752 162.562 104.867L149.933 67.7239H152.41Z" fill="white" fill-opacity="0.5"/>
<path d="M162.686 63.2666C162.81 63.1428 162.81 63.019 162.81 62.7714V50.3904C162.81 50.1428 162.81 50.019 162.686 49.7714C162.686 49.6475 162.562 49.5237 162.439 49.5237C162.315 49.5237 162.315 49.3999 162.191 49.3999H160.953V48.7809H169V49.3999H167.762C167.639 49.3999 167.515 49.3999 167.515 49.5237C167.391 49.5237 167.391 49.6475 167.267 49.7714C167.143 50.019 167.143 50.1428 167.143 50.3904V62.6475C167.143 62.7714 167.143 63.019 167.267 63.1428C167.267 63.2666 167.391 63.3904 167.515 63.3904C167.639 63.3904 167.639 63.5142 167.762 63.5142H169V64.1333H160.953V63.5142H162.191C162.315 63.5142 162.439 63.5142 162.439 63.3904C162.562 63.3904 162.562 63.3904 162.686 63.2666Z" fill="white" fill-opacity="0.5"/>
<path d="M162.19 116.876C161.695 117.743 161.2 118.486 160.705 119.352C159.838 120.714 158.971 121.952 158.105 123.314C157.609 124.057 157.114 124.676 156.495 125.419C155.876 126.162 155.381 126.781 154.886 127.524C154.39 128.267 153.771 128.762 153.276 129.381L152.657 130.124C149.933 133.59 146.838 137.429 143.99 141.39L142.505 143.371C141.762 144.362 141.143 145.476 140.4 146.467C140.152 146.838 139.905 147.21 139.657 147.581C139.162 148.324 138.79 148.943 138.419 149.686C138.048 150.429 137.676 151.048 137.305 151.79C136.933 152.533 136.562 153.276 136.19 154.019C135.2 156.124 134.457 158.229 133.962 160.457C133.714 161.324 133.59 162.067 133.467 162.933C132.971 166.524 133.095 170.114 133.838 173.581C133.962 174.448 134.209 175.19 134.457 176.057C134.952 177.543 135.448 178.905 136.067 180.39C136.438 181.133 136.809 181.876 137.181 182.743C137.181 182.867 137.305 182.99 137.305 183.114C138.048 184.476 138.667 185.714 139.533 186.952C140.028 187.695 140.4 188.314 140.895 189.057C141.762 190.295 142.628 191.41 143.495 192.524C144.114 193.143 144.609 193.762 145.228 194.381C145.352 194.505 145.476 194.629 145.6 194.752C146.962 195.99 148.324 197.105 149.809 198.095C150.552 198.59 151.171 199.086 151.914 199.457C153.4 200.324 155.009 201.19 156.495 201.933C157.238 202.305 157.981 202.552 158.848 202.924C160.828 203.667 162.933 204.286 165.038 204.781L166.4 205.152L167.39 205.4C170.733 206.019 174.076 206.39 177.419 206.39C177.543 206.514 177.79 206.762 177.914 206.886L178.162 207.133L178.409 207.381C178.657 207.629 179.028 207.752 179.276 208L180.143 208.495C180.514 208.743 180.886 208.867 181.257 208.99L181.876 209.238L182.99 209.733L183.486 209.857L184.724 210.352L185.59 210.6H185.714L186.457 210.848L187.448 211.095L188.314 211.343C188.809 211.467 189.305 211.59 189.924 211.59H190.171L191.038 211.714H191.162C191.781 211.714 192.4 211.838 192.895 211.838H193.638C192.4 212.21 191.162 212.457 189.8 212.829C188.314 213.2 186.705 213.448 185.095 213.571C184.228 213.695 183.486 213.695 182.619 213.819C180.638 213.943 178.657 214.067 176.676 213.943C175.809 213.943 174.943 213.943 174.076 213.819C170.857 213.571 167.762 213.2 164.543 212.457C164.171 212.333 163.8 212.333 163.428 212.21C162.686 212.086 161.819 211.838 161.076 211.59C158.476 210.848 156 209.857 153.524 208.743C152.781 208.371 152.038 208 151.295 207.629C149.562 206.638 147.828 205.648 146.095 204.41C145.352 203.914 144.733 203.419 144.114 202.924C142.876 201.933 141.762 200.943 140.648 199.829C140.028 199.086 139.409 198.467 138.79 197.724C138.171 197.105 137.676 196.486 137.181 195.743C136.19 194.505 135.324 193.143 134.457 191.781C133.962 191.038 133.59 190.419 133.219 189.676C132.228 187.819 131.238 185.962 130.495 183.981C130.248 183.238 129.876 182.371 129.628 181.629C129.133 180.143 128.638 178.533 128.267 176.924C128.143 176.057 127.895 175.314 127.771 174.448C127.152 170.981 127.152 167.39 127.648 163.924C127.771 163.305 127.771 162.81 127.895 162.19C128.019 161.324 128.267 160.581 128.514 159.714C129.133 157.362 130.124 155.01 131.238 152.781C131.609 152.038 131.981 151.295 132.476 150.552C132.971 149.81 133.467 148.943 133.962 148.076C134.457 147.21 134.828 146.714 135.324 145.971C136.438 144.486 137.552 142.876 138.79 141.39C139.286 140.771 139.905 140.152 140.4 139.533C142.381 137.181 144.486 134.829 146.59 132.476L146.962 132.105C148.324 130.495 149.933 129.01 151.419 127.524L153.152 125.79C153.895 125.048 154.514 124.305 155.257 123.562C156 122.819 156.371 122.324 156.99 121.581C157.238 121.333 157.362 121.086 157.609 120.838C158.352 119.848 159.219 118.857 159.962 117.867C160.457 117.124 161.076 116.381 161.571 115.638C162.562 114.152 163.552 112.667 164.543 111.057C165.162 110.19 165.657 109.2 166.152 108.333C166.276 108.086 166.524 107.714 166.648 107.467L166.276 108.457C165.781 109.571 165.286 110.686 164.79 111.676C164.667 112.048 164.419 112.419 164.295 112.79C163.676 114.276 162.933 115.638 162.19 116.876Z" fill="white" fill-opacity="0.5"/>
<path d="M159.22 215.429C159.963 215.676 160.829 215.8 161.696 216.048C155.505 226.572 148.696 236.6 141.267 246.257C141.02 246.505 140.648 246.753 140.277 246.753C140.029 246.753 139.782 246.629 139.534 246.505C139.039 246.01 138.915 245.267 139.41 244.772C146.591 235.362 153.277 225.581 159.22 215.429Z" fill="white" fill-opacity="0.5"/>
<path d="M145.476 81.8381L159.095 110.19C158.599 110.933 158.104 111.676 157.485 112.543L143.371 82.9524C142.999 82.3333 143.247 81.5905 143.866 81.3428C144.485 80.9714 145.104 81.219 145.476 81.8381Z" fill="white" fill-opacity="0.5"/>
<path d="M151.915 17.3333L158.601 46.7999H156.124L149.563 17.9523C149.439 17.3333 149.81 16.5904 150.429 16.4666C151.172 16.219 151.791 16.7142 151.915 17.3333Z" fill="white" fill-opacity="0.5"/>
<path d="M156.495 2.72384L155.01 10.4L152.905 10.0286L150.8 9.53337L152.286 1.85718L154.391 2.35242V2.22861L156.495 2.72384Z" fill="white" fill-opacity="0.5"/>
<path d="M155.01 249.6L156.495 257.276L154.391 257.771V257.648L152.286 258.143L150.8 250.467L152.905 249.971L155.01 249.6Z" fill="white" fill-opacity="0.5"/>
<path d="M155.752 55.3429C156.866 55.3429 157.857 55.4667 158.847 55.8381C159.59 56.0857 160.209 56.7048 160.58 57.3238C160.952 58.0667 161.199 58.8096 161.199 59.6762C161.199 60.5429 160.952 61.2857 160.58 62.0286C160.085 62.7715 159.466 63.2667 158.599 63.6381C157.485 64.0096 156.371 64.2572 155.133 64.2572H154.761V63.6381C155.133 63.6381 155.504 63.5143 155.752 63.2667C156.123 62.8953 156.247 62.5238 156.247 62.0286C156.371 61.1619 156.371 60.4191 156.371 59.5524C156.371 58.8096 156.371 58.0667 156.247 57.4477C156.247 57.0762 155.999 56.581 155.752 56.3334C155.504 56.0858 155.009 55.9619 154.637 55.9619V55.3429H155.752Z" fill="white" fill-opacity="0.5"/>
<path d="M151.667 112.171L154.39 116.876L152.781 118.981L149.562 113.41C149.19 112.79 149.438 112.048 149.933 111.676C150.552 111.429 151.295 111.552 151.667 112.171Z" fill="white" fill-opacity="0.5"/>
<path d="M150.677 212.581L123.067 245.019C122.572 245.514 121.829 245.514 121.334 245.143C120.839 244.648 120.715 243.905 121.21 243.41L148.448 211.59C149.067 211.838 149.81 212.21 150.677 212.581Z" fill="white" fill-opacity="0.5"/>
<path d="M147.334 118.362L150.429 122.076C149.934 122.695 149.439 123.314 148.944 124.057L144.363 118.362H147.334Z" fill="white" fill-opacity="0.5"/>
<path d="M150.057 63.1429C150.181 62.8953 150.181 62.6477 150.181 62.4001V50.5143C150.181 50.2667 150.181 50.0191 150.057 49.7715C150.057 49.6477 149.933 49.5239 149.809 49.5239C149.686 49.5239 149.562 49.4001 149.438 49.4001H148.324V48.781H156.743V49.5239H155.257C155.133 49.5239 155.009 49.5239 154.762 49.6477C154.638 49.6477 154.638 49.7715 154.514 49.8953C154.39 50.1429 154.39 50.2667 154.39 50.5143V55.3429H154.762V55.962H154.39V63.6381H154.762V64.2572H148.2V63.6381H149.19C149.314 63.6381 149.562 63.6381 149.686 63.5143C149.933 63.3905 149.933 63.2667 150.057 63.1429Z" fill="white" fill-opacity="0.5"/>
<path d="M148.448 1.36185L147.457 9.03804L145.352 8.79042L143.124 8.5428L144.114 0.742798L146.343 0.990417L148.448 1.36185Z" fill="white" fill-opacity="0.5"/>
<path d="M147.457 250.962L148.448 258.638L146.343 259.01L144.114 259.257L143.124 251.457L145.352 251.21L147.457 250.962Z" fill="white" fill-opacity="0.5"/>
<path d="M144.609 127.524C144.856 127.895 144.98 128.267 144.856 128.762C144.609 129.009 144.237 129.381 143.99 129.628C143.866 129.628 143.742 129.628 143.742 129.628C143.371 129.628 143.123 129.505 142.875 129.257L132.971 118.857C134.085 118.857 135.199 118.857 136.314 118.857L144.609 127.524Z" fill="white" fill-opacity="0.5"/>
<path d="M142.752 207.752L142.133 208.248C141.886 208.495 141.638 208.495 141.39 208.495C141.019 208.495 140.771 208.371 140.524 208.124C140.029 207.629 140.152 206.886 140.648 206.39L140.895 206.143C141.39 206.762 142.133 207.257 142.752 207.752Z" fill="white" fill-opacity="0.5"/>
<path d="M142.629 38.9999C142.876 39.619 142.505 40.3619 141.886 40.6095C141.762 40.6095 141.638 40.6095 141.514 40.6095C141.019 40.6095 140.524 40.238 140.4 39.7428L134.952 24.019C134.705 23.3999 135.076 22.6571 135.695 22.4095C136.314 22.1619 136.933 22.5333 137.181 23.1523L142.629 38.9999Z" fill="white" fill-opacity="0.5"/>
<path d="M140.276 0.371398L139.78 8.1714L137.676 8.04759L135.447 7.92378L135.942 0.123779L138.171 0.247589L140.276 0.371398Z" fill="white" fill-opacity="0.5"/>
<path d="M138.419 48.9047H146.096V49.5237H144.858C144.734 49.5237 144.61 49.5237 144.486 49.6475C144.362 49.7713 144.362 49.7713 144.362 49.8951C144.362 50.1428 144.238 50.2666 144.238 50.5142V62.7713C144.238 62.8951 144.238 63.1428 144.362 63.2666C144.362 63.3904 144.486 63.5142 144.61 63.5142C144.734 63.638 144.858 63.638 144.981 63.638H146.219V64.257H138.543V63.638H139.41C139.534 63.638 139.658 63.638 139.781 63.5142C139.905 63.3904 139.905 63.2666 140.029 63.1428C140.029 63.0189 140.153 62.7713 140.153 62.6475V50.3904C140.153 50.2666 140.153 50.0189 140.029 49.8951C140.029 49.7713 139.905 49.6475 139.781 49.6475C139.658 49.5237 139.534 49.5237 139.41 49.5237H138.543L138.419 48.9047Z" fill="white" fill-opacity="0.5"/>
<path d="M144.733 112.914H137.18V112.295H137.799C137.923 112.295 138.171 112.295 138.295 112.172C138.419 112.172 138.542 112.048 138.542 111.924C138.542 111.676 138.666 111.429 138.666 111.305V102.638L138.171 102.267L138.666 101.524V99.1715C138.666 98.9239 138.666 98.8001 138.542 98.5525C138.542 98.4287 138.419 98.4287 138.295 98.3049C138.171 98.3049 137.923 98.1811 137.799 98.1811H137.18V97.562H144.733V98.1811H143.619C143.495 98.1811 143.247 98.1811 143.123 98.3049C142.999 98.3049 142.999 98.4287 142.876 98.5525C142.752 98.8001 142.752 99.0477 142.752 99.2953V111.429C142.752 111.676 142.752 111.8 142.876 112.048C142.876 112.172 142.999 112.295 143.123 112.295C143.247 112.419 143.495 112.419 143.619 112.419H144.733V112.914Z" fill="white" fill-opacity="0.5"/>
<path d="M137.676 251.952L139.78 251.828L140.276 259.628L138.171 259.752L135.942 259.876L135.447 252.076L137.676 251.952Z" fill="white" fill-opacity="0.5"/>
<path d="M104.124 118.61L136.314 137.057C135.695 137.676 135.2 138.295 134.705 138.914L102.886 120.714C102.267 120.343 102.019 119.6 102.391 118.981C102.514 118.733 102.762 118.486 103.133 118.362H103.752C103.876 118.486 104 118.486 104.124 118.61Z" fill="white" fill-opacity="0.5"/>
<path d="M134.829 200.2L133.467 201.067C133.343 201.19 133.095 201.19 132.848 201.19C132.476 201.19 131.981 200.943 131.857 200.571C131.486 199.952 131.733 199.209 132.352 198.838L133.467 198.219C133.838 198.962 134.333 199.581 134.829 200.2Z" fill="white" fill-opacity="0.5"/>
<path d="M132.106 252.2V260H130.001H127.896V252.2H130.001H132.106Z" fill="white" fill-opacity="0.5"/>
<path d="M132.106 0V7.8H130.001H127.896V0H130.001H132.106Z" fill="white" fill-opacity="0.5"/>
<path d="M131.237 126.781C131.733 127.152 131.857 128.019 131.485 128.514C131.237 128.762 130.866 129.01 130.495 129.01C130.247 129.01 129.999 128.886 129.752 128.762L116.504 118.362H120.466L131.237 126.781Z" fill="white" fill-opacity="0.5"/>
<path d="M137.429 64.257H129.753V63.638H130.991C131.115 63.638 131.239 63.638 131.239 63.5142C131.362 63.3904 131.362 63.2666 131.486 63.2666C131.486 63.1428 131.61 63.019 131.61 62.7713V50.5142C131.61 50.2666 131.61 50.1428 131.486 49.8951C131.486 49.7713 131.362 49.6475 131.239 49.6475C131.115 49.5237 130.991 49.5237 130.867 49.5237H129.753V48.9047H137.429V49.5237H136.439C136.315 49.5237 136.191 49.5237 136.067 49.6475C135.943 49.6475 135.943 49.7713 135.943 49.8951C135.943 50.0189 135.82 50.2666 135.82 50.3904V55.9618H139.781V56.5809H135.82V62.7713C135.82 62.8951 135.82 63.1428 135.943 63.2666C135.943 63.3904 136.067 63.5142 136.067 63.5142C136.191 63.638 136.315 63.638 136.315 63.638H137.305L137.429 64.257Z" fill="white" fill-opacity="0.5"/>
<path d="M109.695 135.448L130.866 144.114C130.371 144.857 129.999 145.476 129.628 146.219L108.828 137.676C108.209 137.429 107.838 136.686 108.209 136.067C108.457 135.571 109.076 135.324 109.695 135.448Z" fill="white" fill-opacity="0.5"/>
<path d="M130.371 193.886L126.409 195.743C125.171 195.248 123.809 194.876 122.571 194.752L129.257 191.657C129.504 192.4 129.876 193.143 130.371 193.886Z" fill="white" fill-opacity="0.5"/>
<path d="M130.123 217.781C130.618 218.276 130.495 219.019 129.999 219.514L103.504 243.657C103.257 243.905 103.009 243.905 102.761 243.905H102.514C102.266 243.905 102.018 243.657 101.895 243.533C101.399 243.038 101.523 242.295 102.018 241.8L128.514 217.657C128.637 217.533 128.761 217.409 129.009 217.409C129.257 217.286 129.752 217.409 130.123 217.781Z" fill="white" fill-opacity="0.5"/>
<path d="M136.066 112.914H128.514V112.295H129.628C129.752 112.295 130 112.295 130.123 112.172C130.247 112.172 130.371 112.048 130.371 111.924C130.495 111.676 130.495 111.429 130.495 111.305V99.1715C130.495 98.9239 130.495 98.6763 130.371 98.5525C130.371 98.4287 130.247 98.3049 130.123 98.3049C130 98.3049 129.752 98.1811 129.628 98.1811H128.514V97.562H136.066V98.1811H135.447C135.323 98.1811 135.076 98.1811 134.952 98.3049C134.828 98.3049 134.828 98.4287 134.704 98.5525C134.581 98.8001 134.581 99.0477 134.581 99.2953V107.962L138.047 102.267L138.542 102.638L134.581 109.076V111.429C134.581 111.676 134.581 111.8 134.704 112.048C134.704 112.172 134.828 112.172 134.828 112.295C134.952 112.295 135.2 112.419 135.323 112.419H135.942L136.066 112.914Z" fill="white" fill-opacity="0.5"/>
<path d="M81.59 135.448L127.895 149.314C127.523 150.057 127.152 150.8 126.904 151.543L80.8472 137.924C80.2281 137.676 79.8567 137.057 79.9805 136.438C80.2281 135.695 80.8472 135.2 81.59 135.448Z" fill="white" fill-opacity="0.5"/>
<path d="M127.648 44.5714C128.019 45.1905 127.771 45.9333 127.152 46.181C126.533 46.4286 125.791 46.181 125.543 45.5619L118.61 30.9524C118.362 30.3333 118.486 29.5905 119.105 29.3429C119.724 29.0953 120.467 29.3429 120.714 29.8381L127.648 44.5714Z" fill="white" fill-opacity="0.5"/>
<path d="M125.171 182.619C125.418 183.362 125.666 184.229 126.037 184.972C122.447 185.714 118.609 186.581 114.523 187.572H114.275C113.656 187.572 113.285 187.2 113.037 186.581C112.914 185.962 113.285 185.219 113.904 185.095C117.866 184.229 121.704 183.362 125.171 182.619Z" fill="white" fill-opacity="0.5"/>
<path d="M124.057 0.123779L124.552 7.92378L122.324 8.04759L120.219 8.1714L119.724 0.371398L121.829 0.247589L124.057 0.123779Z" fill="white" fill-opacity="0.5"/>
<path d="M124.552 252.076L124.057 259.876L121.829 259.752L119.724 259.629L120.219 251.829L122.324 251.952L124.552 252.076Z" fill="white" fill-opacity="0.5"/>
<path d="M124.428 159.095C124.18 159.838 124.057 160.705 123.933 161.571C116.628 160.333 108.333 158.971 99.4185 157.486C98.7995 157.362 98.3042 156.743 98.428 156.124C98.5518 155.505 99.1709 155.01 99.7899 155.133C108.704 156.495 117.123 157.857 124.428 159.095Z" fill="white" fill-opacity="0.5"/>
<path d="M123.81 177.667L98.3053 181.133C97.5624 180.514 96.8195 180.019 96.2005 179.4C96.0767 179.276 96.0767 179.029 95.9529 178.905L123.439 175.19C123.562 175.933 123.686 176.8 123.81 177.667Z" fill="white" fill-opacity="0.5"/>
<path d="M92.7326 164.171L123.314 165.409C123.19 166.276 123.19 167.019 123.066 167.886L92.6088 166.648C91.866 166.648 91.3707 166.029 91.3707 165.409C91.4945 164.667 91.9898 164.171 92.7326 164.171Z" fill="white" fill-opacity="0.5"/>
<path d="M123.066 73.1715C124.676 73.0477 126.409 73.4192 127.771 74.2858C128.885 75.1525 129.38 76.3906 129.257 77.7525C129.257 78.4953 129.133 79.1144 128.885 79.7334C128.637 80.3525 128.266 80.9715 127.771 81.343C127.152 81.8382 126.409 82.2096 125.666 82.4572C124.676 82.7049 123.685 82.8287 122.571 82.8287H122.447V82.2096C122.818 82.2096 123.19 82.0858 123.561 81.962C123.809 81.8382 124.057 81.5906 124.304 81.343C124.552 80.9715 124.676 80.4763 124.676 79.9811C124.799 79.2382 124.799 78.6192 124.799 77.8763C124.799 77.0096 124.799 76.2668 124.552 75.4001C124.428 74.9049 124.18 74.5334 123.933 74.162C123.561 73.9144 123.19 73.7906 122.695 73.7906V73.1715H123.066Z" fill="white" fill-opacity="0.5"/>
<path d="M126.162 112.914H118.61V112.295H119.352C119.476 112.295 119.724 112.295 119.848 112.171C119.972 112.171 120.095 112.048 120.095 111.924C120.095 111.676 120.095 111.429 120.095 111.305V102.638L119.6 102.267L120.095 101.4V99.0476C120.095 98.8 120.095 98.6762 119.972 98.4286C119.972 98.3048 119.848 98.181 119.724 98.181C119.6 98.181 119.352 98.0572 119.229 98.0572H118.61V97.4381H126.162V98.0572H125.048C124.924 98.0572 124.676 98.0572 124.552 98.181C124.429 98.181 124.429 98.3048 124.305 98.4286C124.305 98.6762 124.181 98.9238 124.181 99.1714V111.305C124.181 111.552 124.181 111.676 124.305 111.924C124.305 112.048 124.429 112.171 124.552 112.171C124.676 112.295 124.924 112.295 125.048 112.295H126.162V112.914Z" fill="white" fill-opacity="0.5"/>
<path d="M116.133 73.1714H122.695V73.7904H122.324V82.3333H122.448V82.9523H122.324V87.0381C122.324 87.2857 122.324 87.5333 122.448 87.6571C122.448 87.7809 122.571 87.7809 122.695 87.9047C122.819 87.9047 122.943 88.0285 123.067 87.9047H124.552V88.5238H116.133V87.9047H117.124C117.248 87.9047 117.495 87.9047 117.619 87.7809C117.743 87.7809 117.867 87.6571 117.867 87.5333C117.99 87.2857 117.99 87.0381 117.99 86.7904V74.6571C117.99 74.4095 117.99 74.1619 117.867 74.0381C117.867 73.9142 117.743 73.7904 117.619 73.7904C117.495 73.7904 117.371 73.6666 117.248 73.6666H116.133V73.1714Z" fill="white" fill-opacity="0.5"/>
<path d="M115.886 0.74292L116.877 8.54292L114.648 8.79054L112.543 9.03816L111.553 1.36197L113.658 0.990539L115.886 0.74292Z" fill="white" fill-opacity="0.5"/>
<path d="M116.877 251.457L115.886 259.257L113.658 259.009L111.553 258.638L112.543 250.962L114.648 251.209L116.877 251.457Z" fill="white" fill-opacity="0.5"/>
<path d="M115.018 50.638C114.771 51.2571 114.647 51.7523 114.647 52.3714L114.523 53.4856H113.904L114.028 48.7809H127.647L127.771 53.4856H127.152L127.028 52.3714C127.028 51.7523 126.904 51.1333 126.656 50.638C126.533 50.2666 126.161 49.8952 125.79 49.7714C125.295 49.5237 124.675 49.5237 124.056 49.5237H122.942V62.5237C122.942 62.7714 122.942 63.019 123.066 63.2666C123.066 63.3904 123.19 63.5142 123.437 63.5142C123.561 63.5142 123.809 63.638 124.056 63.638H124.923V64.2571H116.752V63.638H117.618C117.866 63.638 117.99 63.638 118.237 63.5142C118.361 63.5142 118.485 63.3904 118.609 63.2666C118.733 63.019 118.733 62.7714 118.733 62.5237V49.5237H117.618C116.999 49.5237 116.38 49.6475 115.885 49.7714C115.514 49.8952 115.142 50.2666 115.018 50.638Z" fill="white" fill-opacity="0.5"/>
<path d="M114.524 201.067L110.191 203.048C109.076 202.676 107.838 202.305 106.724 201.933L113.41 198.838C113.657 199.705 114.152 200.448 114.524 201.067Z" fill="white" fill-opacity="0.5"/>
<path d="M113.41 218.524C119.229 217.657 124.924 216.543 130.495 215.057C131.362 214.809 132.352 214.562 133.219 214.314L133.467 214.933C132.476 215.305 131.61 215.552 130.743 215.8C130 216.048 129.381 216.295 128.638 216.419C123.562 217.905 118.486 219.143 113.286 220.133C113.162 220.257 113.038 220.257 112.791 220.257H112.543C108.952 220.876 105.486 221.495 102.019 221.99C100.905 225.829 99.1715 229.543 96.8191 232.762C94.4667 235.857 91.4953 238.457 88.2762 240.438L86.1715 239.571C87.2858 235.486 89.0191 231.771 91.4953 228.305C92.8572 226.571 94.3429 224.962 95.9524 223.6C92.3619 224.343 88.7715 224.714 85.181 224.714C84.3143 224.714 83.4477 224.714 82.581 224.59C76.0191 224.219 69.7048 222.609 63.7619 219.762C63.3905 219.638 63.1429 219.267 63.2667 218.771C63.2667 218.4 63.5143 218.029 63.8858 217.905C70.0762 215.8 76.6381 214.933 83.2 215.305C89.5143 215.676 95.8286 217.286 101.648 219.886L106.971 219.267C105.238 218.895 103.505 218.276 101.895 217.533C98.0572 215.8 94.7143 213.448 91.8667 210.352C91.6191 210.105 91.4953 209.609 91.7429 209.238C91.8667 208.867 92.2381 208.619 92.6096 208.619C96.6953 208.619 100.781 209.362 104.619 210.971C107.714 212.952 110.933 215.429 113.41 218.524ZM110.438 218.152C108.333 216.048 105.981 214.438 103.257 213.2C100.533 212.086 97.5619 211.343 94.5905 211.095C96.8191 213.076 99.4191 214.809 102.143 216.048C104.867 217.162 107.591 217.905 110.438 218.152ZM95.0858 231.524C96.9429 229.048 98.3048 226.324 99.4191 223.352C96.9429 225.086 94.7143 227.19 92.8572 229.667C91 232.143 89.5143 234.867 88.5238 237.838C91 236.105 93.2286 234 95.0858 231.524ZM98.4286 221.124C93.3524 219.143 88.1524 218.029 82.7048 217.657C77.381 217.409 71.9334 218.029 66.7334 219.39C76.8858 223.352 87.9048 223.971 98.4286 221.124Z" fill="white" fill-opacity="0.5"/>
<path d="M111.677 111.924C111.677 111.676 111.801 111.429 111.801 111.305V99.1715C111.801 98.9239 111.801 98.6763 111.677 98.5525C111.677 98.4287 111.553 98.3049 111.429 98.3049C111.306 98.3049 111.058 98.1811 110.934 98.1811H109.82V97.562H117.372V98.1811H116.629C116.506 98.1811 116.258 98.1811 116.134 98.3049C116.01 98.3049 116.01 98.4287 115.887 98.5525C115.887 98.8001 115.763 99.0477 115.763 99.2953V107.962L119.229 102.267L119.725 102.638L115.763 109.076V111.429C115.763 111.676 115.763 111.8 115.887 112.048C115.887 112.172 116.01 112.172 116.134 112.295C116.258 112.295 116.506 112.419 116.629 112.419H117.248V113.038H109.696V112.419H110.81C110.934 112.419 111.182 112.419 111.306 112.295C111.553 112.172 111.677 112.048 111.677 111.924Z" fill="white" fill-opacity="0.5"/>
<path d="M107.714 1.85706L109.199 9.53325L107.095 10.0285L104.99 10.3999L103.504 2.72372L105.609 2.22848V2.35229L107.714 1.85706Z" fill="white" fill-opacity="0.5"/>
<path d="M109.199 250.467L107.714 258.143L105.609 257.648V257.771L103.504 257.276L104.99 249.6L107.095 249.971L109.199 250.467Z" fill="white" fill-opacity="0.5"/>
<path d="M105.98 72.9238C107.342 72.9238 108.704 73.1714 109.942 73.9143C111.057 74.5334 111.923 75.5238 112.419 76.6381C113.533 79.2381 113.533 82.2095 112.419 84.9333C111.923 86.0476 111.057 87.0381 109.942 87.6572C108.828 88.2762 107.59 88.6476 106.228 88.6476V88.0286C106.6 88.0286 106.971 87.9048 107.342 87.6572C107.714 87.2857 108.085 86.9143 108.209 86.4191C108.457 85.6762 108.704 84.9333 108.704 84.1905C108.952 81.8381 108.952 79.6095 108.704 77.2572C108.58 76.5143 108.457 75.7714 108.209 75.0286C108.085 74.5333 107.838 74.1619 107.342 73.7905C106.971 73.5429 106.6 73.4191 106.104 73.4191L105.98 72.9238Z" fill="white" fill-opacity="0.5"/>
<path d="M104.99 188.686C105.114 189.305 104.742 190.048 104.123 190.171C102.761 190.543 101.276 190.914 99.9138 191.286C100.038 190.419 100.161 189.552 100.038 188.686L103.504 187.819C104.247 187.571 104.866 187.943 104.99 188.686Z" fill="white" fill-opacity="0.5"/>
<path d="M105.982 88.7714C104.496 88.7714 103.134 88.5238 101.896 87.7809C100.782 87.1619 99.9151 86.1714 99.4198 85.0571C98.8008 83.6952 98.5531 82.3333 98.6769 80.8476C98.6769 79.4857 98.9246 78 99.4198 76.7619C99.9151 75.6476 100.782 74.6571 101.896 74.0381C103.134 73.2952 104.496 73.0476 105.982 73.0476V73.6667C105.486 73.6667 105.115 73.7905 104.62 74.0381C104.248 74.4095 103.877 74.7809 103.753 75.2762C103.506 76.019 103.258 76.7619 103.258 77.5047C103.01 79.8571 103.01 82.0857 103.258 84.4381C103.382 85.1809 103.506 85.9238 103.753 86.6667C103.877 87.1619 104.248 87.5333 104.62 87.9048C104.991 88.1524 105.486 88.2762 105.982 88.2762H106.106V88.8952L105.982 88.7714Z" fill="white" fill-opacity="0.5"/>
<path d="M102.144 97.3142C103.134 97.3142 104.001 97.438 104.867 97.6856C105.486 97.8095 106.106 98.1809 106.601 98.6761C107.344 99.419 107.467 100.657 106.725 101.4C106.601 101.524 106.601 101.524 106.477 101.648C105.734 102.143 104.867 102.39 104.125 102.267H103.877V102.019C103.877 101.276 103.877 100.533 103.629 99.7904C103.506 99.2952 103.382 98.7999 103.01 98.4285C102.763 98.1809 102.267 97.9333 101.896 97.9333V97.3142H102.144Z" fill="white" fill-opacity="0.5"/>
<path d="M101.771 207.01L98.9238 208.371C97.6857 207.876 96.4476 207.629 95.2095 207.381L97.5619 206.267C98.9238 206.391 100.409 206.638 101.771 207.01Z" fill="white" fill-opacity="0.5"/>
<path d="M99.79 3.46667L101.771 11.1429L99.6662 11.6381H99.5424L97.5614 12.2572L95.5804 4.58096L97.6852 4.08572L99.79 3.46667Z" fill="white" fill-opacity="0.5"/>
<path d="M101.771 248.857L99.79 256.533L97.6852 255.914L95.5804 255.419L97.5614 247.743L99.5424 248.362H99.6662L101.771 248.857Z" fill="white" fill-opacity="0.5"/>
<path d="M98.0572 98.3048C99.2953 97.6858 100.533 97.3143 101.895 97.3143V97.9334C101.276 97.9334 100.657 98.181 100.286 98.6762C99.7905 99.4191 99.5429 100.162 99.4191 101.029C99.1715 102.391 99.1714 103.876 99.1714 105.238C99.1714 106.6 99.2953 108.086 99.5429 109.448C99.6667 110.314 100.038 111.057 100.657 111.8C101.152 112.295 101.895 112.543 102.638 112.543C103.505 112.543 104.495 112.295 105.114 111.552C105.733 110.81 106.229 109.819 106.229 108.705V108.457L106.476 108.581C106.724 108.705 106.971 108.829 107.095 109.076C107.219 109.324 107.343 109.695 107.343 109.943C107.343 110.314 107.219 110.686 107.095 110.933C106.848 111.305 106.6 111.676 106.229 112.048C105.733 112.419 105.238 112.667 104.619 112.791C103.752 113.038 103.01 113.162 102.143 113.038C100.657 113.038 99.1714 112.791 97.9333 112.048C96.8191 111.429 96.0762 110.438 95.4572 109.324C94.9619 107.962 94.5905 106.6 94.7143 105.238C94.7143 103.876 94.9619 102.391 95.581 101.152C95.9524 100.038 96.9429 99.0477 98.0572 98.3048Z" fill="white" fill-opacity="0.5"/>
<path d="M99.0471 48.9047H111.18L111.428 53.238H110.809V52.3713C110.809 51.7523 110.685 51.1332 110.314 50.638C110.19 50.2666 109.819 49.8951 109.447 49.7713C108.952 49.5237 108.333 49.5237 107.714 49.5237H105.238V55.9618H109.942V56.5809H105.238V63.638H108.333C108.952 63.638 109.447 63.5142 110.066 63.3904C110.438 63.2666 110.809 62.8951 110.933 62.5237C111.304 61.9047 111.428 61.2856 111.428 60.6666V59.7999H112.047L111.923 64.1332H99.0471V63.5142H100.285C100.409 63.5142 100.533 63.5142 100.657 63.3904C100.78 63.2666 100.78 63.2666 100.904 63.1428C101.028 63.0189 101.028 62.7713 101.028 62.6475V50.3904C101.028 50.1428 101.028 49.8951 100.904 49.6475C100.904 49.5237 100.78 49.5237 100.657 49.3999C100.533 49.3999 100.409 49.3999 100.285 49.3999H99.1709L99.0471 48.9047Z" fill="white" fill-opacity="0.5"/>
<path d="M98.9238 130.99C99.5429 131.238 99.7905 131.981 99.5429 132.6C99.419 133.095 98.9238 133.343 98.4286 133.343C98.3048 133.343 98.1809 133.343 97.9333 133.219L61.5333 118.486H68.0952L98.9238 130.99Z" fill="white" fill-opacity="0.5"/>
<path d="M91.8662 5.69531L94.3424 13.1239L92.2377 13.8667V13.7429L90.1329 14.4858L87.7805 7.05722L89.8853 6.31436L91.8662 5.69531Z" fill="white" fill-opacity="0.5"/>
<path d="M94.3424 246.876L91.8662 254.305L89.8853 253.562V253.686L87.7805 252.943L90.1329 245.514L92.2377 246.257V246.133L94.3424 246.876Z" fill="white" fill-opacity="0.5"/>
<path d="M91.1242 211.838L86.6671 213.819C84.81 213.695 82.9528 213.695 81.2195 213.695L88.6481 210.229C89.5147 210.848 90.3814 211.343 91.1242 211.838Z" fill="white" fill-opacity="0.5"/>
<path d="M90.629 226.819C91.0004 227.438 90.8766 228.181 90.2576 228.552C84.4385 232.39 80.6004 234.99 80.6004 234.99C80.3528 235.114 80.229 235.238 79.9814 235.238C79.61 235.238 79.2385 234.99 78.9909 234.619C78.6195 234 78.7433 233.257 79.3623 232.886C79.3623 232.886 83.2004 230.286 89.0195 226.324C89.5147 226.076 90.2576 226.324 90.629 226.819Z" fill="white" fill-opacity="0.5"/>
<path d="M96.9433 64.257H89.0195V63.638H89.7624C89.8862 63.638 90.1338 63.638 90.2576 63.5142C90.3814 63.3904 90.5052 63.3904 90.5052 63.2666C90.6291 63.0189 90.629 62.7713 90.629 62.5237V58.8094H90.5052L90.3814 58.1904L90.7529 58.0666V50.638C90.7529 50.3904 90.7529 50.1428 90.629 49.8951C90.629 49.7713 90.5052 49.6475 90.3814 49.6475C90.1338 49.5237 90.01 49.5237 89.8862 49.5237H89.2671V48.9047H96.9433V49.5237H95.9529C95.8291 49.5237 95.5814 49.5237 95.4576 49.6475C95.3338 49.6475 95.21 49.7713 95.21 49.8951C95.0862 50.1428 95.0862 50.3904 95.0862 50.638V62.2761C95.0862 62.5237 95.0862 62.7713 95.21 63.1428C95.21 63.2666 95.3338 63.3904 95.4576 63.3904C95.5814 63.5142 95.8291 63.5142 95.9529 63.5142H96.9433V64.257Z" fill="white" fill-opacity="0.5"/>
<path d="M88.1528 73.1714H95.829V73.7904H94.5909C94.4671 73.7904 94.3433 73.7904 94.2195 73.9142C94.0957 74.0381 94.0957 74.0381 94.0957 74.1619C94.0957 74.4095 93.9719 74.5333 93.9719 74.7809V87.0381C93.9719 87.1619 93.9719 87.4095 94.0957 87.5333C94.0957 87.6571 94.2195 87.7809 94.3433 87.7809C94.4671 87.9047 94.5909 87.9047 94.7147 87.9047H95.9528V88.5238H88.2766V87.9047H89.1433C89.2671 87.9047 89.3909 87.9047 89.5147 87.7809C89.6386 87.6571 89.6386 87.5333 89.7624 87.4095C89.7624 87.2857 89.8862 87.0381 89.8862 86.7904V74.5333C89.8862 74.4095 89.8862 74.1619 89.7624 74.0381C89.7624 73.9142 89.6386 73.7904 89.5147 73.7904C89.3909 73.7904 89.2671 73.6666 89.1433 73.6666H88.2766L88.1528 73.1714Z" fill="white" fill-opacity="0.5"/>
<path d="M84.1897 8.29529L87.0373 15.6001L85.0564 16.4667V16.3429L83.0754 17.2096L80.104 9.90481L82.085 9.03815L82.2088 9.16196L84.1897 8.29529Z" fill="white" fill-opacity="0.5"/>
<path d="M87.0373 244.4L84.1897 251.705L82.2088 250.838L82.085 250.962L80.104 250.095L83.0754 242.79L85.0564 243.657V243.533L87.0373 244.4Z" fill="white" fill-opacity="0.5"/>
<path d="M87.1614 98.4285C86.9138 98.1809 86.4185 97.9333 86.0471 97.9333V97.3142H86.2947C87.2852 97.3142 88.1519 97.438 89.0185 97.6856C89.6376 97.8095 90.2566 98.1809 90.7519 98.6761C91.4947 99.419 91.6185 100.657 90.8757 101.4C90.7519 101.524 90.7519 101.524 90.6281 101.648C89.8852 102.143 89.0186 102.39 88.2757 102.267H87.9043V102.019C87.9043 101.276 87.9043 100.533 87.6566 99.7904C87.6566 99.2952 87.409 98.7999 87.1614 98.4285Z" fill="white" fill-opacity="0.5"/>
<path d="M86.9143 241.057C86.6667 241.057 86.5429 240.933 86.2953 240.81C86.0476 240.562 85.9238 240.191 85.9238 239.819V239.695L88.0286 240.562L87.2857 241.057C87.1619 241.057 87.0381 241.057 86.9143 241.057Z" fill="white" fill-opacity="0.5"/>
<path d="M86.1719 113.162C84.6862 113.162 83.2005 112.914 81.9624 112.172C80.8481 111.552 79.9814 110.562 79.4862 109.448C78.991 108.086 78.6195 106.724 78.7434 105.362C78.7434 104 78.991 102.514 79.61 101.276C80.1053 100.162 80.9719 99.1715 82.0862 98.5525C83.3243 97.9334 84.5624 97.562 85.9243 97.562V98.1811C85.3053 98.1811 84.6862 98.4287 84.3148 98.9239C83.8195 99.6668 83.5719 100.41 83.4481 101.276C83.2005 102.638 83.2005 104.124 83.2005 105.486C83.2005 106.848 83.3243 108.333 83.5719 109.695C83.6957 110.562 84.0672 111.305 84.6862 112.048C85.1815 112.543 85.9243 112.791 86.6672 112.791C87.5338 112.791 88.5243 112.543 89.1434 111.8C89.7624 111.057 90.2576 110.067 90.2576 108.952V108.705L90.5053 108.829C90.7529 108.952 91.0005 109.076 91.1243 109.324C91.2481 109.572 91.3719 109.943 91.3719 110.191C91.3719 110.562 91.2481 110.933 91.1243 111.181C90.8767 111.552 90.6291 111.924 90.2576 112.295C89.7624 112.667 89.2672 112.914 88.6481 113.038C87.7815 113.038 87.0386 113.162 86.1719 113.162Z" fill="white" fill-opacity="0.5"/>
<path d="M82.7048 49.8953C82.7048 49.7715 82.581 49.6476 82.4572 49.6476C82.3334 49.5238 82.0858 49.5238 81.9619 49.5238H81.3429V48.9048H88.7715V49.5238H88.1524C88.0286 49.5238 87.781 49.5238 87.6572 49.6476C87.5334 49.6476 87.4096 49.7715 87.4096 49.8953C87.2858 50.1429 87.2858 50.3905 87.2858 50.6381V55.3429C87.2858 55.9619 87.2858 56.7048 87.4096 57.3238C87.5334 57.6953 87.6572 57.9429 88.0286 58.1905C88.4 58.3143 88.8953 58.4381 89.2667 58.4381H89.8858C90.0096 58.4381 90.2572 58.4381 90.381 58.3143L90.5048 58.9334H90.381C90.1334 59.0572 89.7619 59.0572 89.2667 59.181C88.7715 59.3048 88.2762 59.3048 87.6572 59.3048C87.0381 59.3048 86.4191 59.181 85.8 59.0572C85.181 58.9334 84.6858 58.6857 84.1905 58.3143C83.6953 57.9429 83.3238 57.3238 83.0762 56.7048C82.8286 55.8381 82.7048 54.9715 82.7048 54.1048V50.7619C82.8286 50.3905 82.8286 50.1429 82.7048 49.8953Z" fill="white" fill-opacity="0.5"/>
<path d="M81.2198 87.5333C81.2198 87.4095 81.3436 87.2857 81.3436 87.0381V74.6571C81.3436 74.4095 81.3436 74.2857 81.2198 74.0381C81.2198 73.9143 81.096 73.7905 80.9722 73.7905C80.8484 73.7905 80.7246 73.6667 80.6008 73.6667H79.4865V73.0476H87.1627V73.6667H86.1722C86.0484 73.6667 85.9246 73.6667 85.8008 73.7905C85.677 73.9143 85.677 73.9143 85.677 74.0381C85.677 74.1619 85.5531 74.4095 85.5531 74.5333V80.1047H89.5151V80.7238H85.5531V86.9143C85.5531 87.0381 85.5531 87.2857 85.677 87.4095C85.677 87.5333 85.8008 87.6571 85.8008 87.6571C85.9246 87.7809 86.0484 87.7809 86.0484 87.7809H87.0389V88.4H79.3627V87.9048H80.6008C80.7246 87.9048 80.8484 87.9048 80.8484 87.7809C81.096 87.7809 81.096 87.6571 81.2198 87.5333Z" fill="white" fill-opacity="0.5"/>
<path d="M76.6381 11.3905L79.9809 18.4476L78 19.5619V19.4381L76.019 20.4286L72.6761 13.3715L74.6571 12.381L76.6381 11.3905Z" fill="white" fill-opacity="0.5"/>
<path d="M79.9809 241.552L76.6381 248.61L74.6571 247.619L72.6761 246.629L76.019 239.571L78 240.562L79.9809 241.552Z" fill="white" fill-opacity="0.5"/>
<path d="M75.4005 168.257V168.381C76.8862 176.181 80.9719 189.429 92.4862 197.724L92.7338 197.848C89.1434 194.01 86.0481 189.552 83.6957 184.848C81.4672 182.743 79.9815 180.143 79.3624 177.172C78.991 174.076 79.4862 170.981 80.8481 168.133C80.9719 167.886 81.2196 167.638 81.4672 167.638C81.7148 167.638 82.0862 167.638 82.21 167.886C84.4386 169.991 86.0481 172.714 86.6672 175.686C87.0386 178.533 86.6672 181.505 85.4291 184.229C88.1529 189.552 91.6195 194.381 95.9529 198.467C95.4576 197.724 95.0862 197.105 94.7148 196.362C92.4862 194.257 91.0005 191.657 90.3815 188.686C90.01 185.591 90.5053 182.495 91.8672 179.648C91.991 179.4 92.2386 179.152 92.4862 179.152C92.7338 179.152 93.1053 179.152 93.2291 179.4C95.4576 181.505 97.0672 184.229 97.6862 187.2C98.0576 190.048 97.6862 193.019 96.4481 195.743C97.81 198.095 99.4195 200.448 101.029 202.676C102.639 203.419 104.372 204.162 106.229 204.905C111.924 207.133 117.867 208.867 123.81 210.229C123.562 210.105 123.315 209.857 123.067 209.61C117.62 205.152 116.134 197.971 116.134 197.724C116.134 197.476 116.134 197.105 116.258 196.857C116.381 196.61 116.753 196.486 117.001 196.486C121.581 196.486 126.039 197.971 129.753 200.819C135.201 205.276 136.686 212.457 136.686 212.705C136.686 212.829 136.686 212.952 136.686 213.076L137.429 212.829C140.772 211.714 143.991 210.105 147.086 208.248C144.115 210.352 141.02 211.962 137.677 213.2L136.315 213.695C136.191 213.695 136.067 213.819 136.067 213.819L135.82 213.943C135.696 214.067 135.572 214.067 135.448 214.067L133.343 214.81L133.096 214.191C133.343 214.067 133.715 214.067 134.086 213.943C124.429 212.581 114.896 210.229 105.734 206.638C100.905 204.781 96.2005 202.429 91.8672 199.705H72.9243C70.6957 201.438 67.8481 202.552 65.0005 202.676C62.0291 202.552 59.0576 201.438 56.8291 199.581C56.5815 199.333 56.4576 199.086 56.4576 198.838C56.4576 198.591 56.5815 198.219 56.8291 198.095C61.41 194.01 68.3434 193.886 73.0481 197.848H84.191C77.2576 195.743 70.4481 193.267 63.7624 190.419H63.5148L63.391 190.295L61.9053 189.676C60.791 190.172 59.8005 190.791 58.9338 191.533C58.81 191.657 58.5624 191.781 58.3148 191.781C58.0672 191.781 57.6957 191.657 57.5719 191.41C57.2005 191.038 57.3243 190.419 57.6957 190.048C58.3148 189.552 58.9338 189.181 59.5529 188.81C58.3148 189.181 57.2005 189.924 56.21 190.791C56.0862 190.914 55.8386 191.038 55.591 191.038C55.3434 191.038 54.9719 190.914 54.8481 190.667C54.4767 190.172 54.6005 189.676 54.9719 189.305C55.591 188.81 56.21 188.314 56.9529 187.943C56.3338 187.695 54.4767 188.81 53.2386 189.924C52.8672 190.295 52.2481 190.172 51.8767 189.8C51.5053 189.429 51.6291 188.81 52.0005 188.438C52.6195 187.819 53.3624 187.324 54.2291 186.952C52.8672 187.324 51.7529 188.067 50.6386 188.933C50.5148 189.057 50.2672 189.181 50.0195 189.181C49.7719 189.181 49.4005 189.057 49.2767 188.81C48.9053 188.438 49.0291 187.819 49.4005 187.448C50.6386 186.333 52.1243 185.467 53.8576 185.095C53.4862 183.981 53.1148 182.867 52.991 181.752C52.8672 181.257 53.2386 180.762 53.7338 180.638C54.2291 180.514 54.7243 180.886 54.8481 181.381C54.9719 182.743 55.4672 184.105 56.21 185.343C55.9624 184.476 55.7148 183.61 55.591 182.743C55.4672 182.248 55.8386 181.752 56.3338 181.629C56.8291 181.505 57.3243 181.876 57.4481 182.495C57.6957 184.352 58.4386 186.333 58.9338 186.581C58.6862 185.838 58.5624 184.972 58.4386 184.229C58.3148 183.733 58.6862 183.238 59.1815 183.114C59.6767 182.991 60.1719 183.362 60.2957 183.857C60.4195 185.095 60.9148 186.457 61.41 187.572C61.1624 186.829 61.0386 186.086 60.9148 185.343C60.791 184.848 61.1624 184.352 61.6576 184.229C62.1529 184.105 62.6481 184.476 62.7719 184.971C62.8957 186.457 63.391 187.819 64.1338 188.933C69.0862 191.038 75.4005 193.638 81.7148 195.619C70.6957 188.686 62.4005 177.543 61.1624 175.81C56.5815 173.829 52.6195 170.362 50.0195 166.029C46.1815 159.219 47.4195 151.172 47.5434 150.8C47.6672 150.305 48.1624 149.933 48.6576 150.057H48.7815C53.4862 152.038 57.5719 155.505 60.1719 159.962C63.5148 166.029 62.8957 172.962 62.7719 174.695C64.3815 176.8 73.6672 188.933 85.1815 195.372C78.0005 189.429 72.3053 181.876 68.4672 173.333C65.3719 166.648 63.5148 159.467 63.0196 152.162C58.191 151.419 53.7338 149.314 50.2672 145.972C44.8195 140.4 43.9529 132.352 43.9529 131.981C43.9529 131.733 43.9529 131.362 44.2005 131.238C44.4481 130.991 44.6957 130.867 44.9434 130.991C50.0195 131.61 54.8481 133.714 58.5624 137.305C60.4195 139.162 61.7815 141.391 62.8957 143.867C63.1434 141.267 63.8862 138.667 65.0005 136.314C67.4767 131.733 71.4386 128.143 76.0196 126.038C76.2672 125.914 76.6386 125.914 76.8862 126.038C77.1338 126.162 77.2576 126.41 77.3815 126.657C77.5053 127.029 78.991 134.952 75.4005 142.01C73.0481 146.343 69.3338 149.81 64.8767 152.038C65.991 165.781 71.5624 178.657 80.9719 188.686C76.8862 182 74.2862 174.571 73.1719 166.771C72.3053 166.029 71.4386 165.533 70.4481 165.038C69.9529 164.791 69.7053 164.171 69.9529 163.676C70.2005 163.181 70.6957 162.933 71.191 163.181C71.6862 163.429 72.3053 163.676 72.8005 164.048V163.924C71.9338 163.181 71.0672 162.562 70.0767 162.191C69.5815 161.943 69.3338 161.324 69.5815 160.829C69.8291 160.333 70.3243 160.086 70.8195 160.333C71.5624 160.705 72.1815 161.076 72.9243 161.448C72.8005 160.829 71.191 159.591 69.5815 158.848C69.0862 158.6 68.8386 157.981 69.0862 157.486C69.3338 156.991 69.8291 156.743 70.3243 156.991C71.0672 157.362 71.9338 157.857 72.6767 158.352C71.81 157.362 70.5719 156.495 69.3338 156C68.8386 155.752 68.591 155.133 68.8386 154.638C69.0862 154.143 69.5815 153.895 70.0767 154.143C71.6862 154.762 73.0481 155.876 74.1624 157.114C74.9053 156.248 75.7719 155.505 76.6386 154.762C77.01 154.391 77.6291 154.514 78.0005 154.886C78.2481 155.381 78.2481 156 77.7529 156.248C76.6386 156.991 75.6481 158.105 75.0291 159.219C75.6481 158.6 76.2672 157.981 77.01 157.486C77.3815 157.114 78.0005 157.238 78.3719 157.61C78.7434 158.105 78.6195 158.724 78.1243 158.971C76.6386 160.086 75.2767 161.695 75.2767 162.191C75.8957 161.572 76.391 161.076 77.1338 160.581C77.5053 160.21 78.1243 160.333 78.4957 160.829C78.7434 161.324 78.7434 161.943 78.2481 162.191C77.1338 162.933 76.2672 163.924 75.5243 164.914C76.0196 164.419 76.6386 163.924 77.2576 163.429C77.6291 163.057 78.2481 163.181 78.6195 163.552C78.991 164.048 78.8672 164.667 78.3719 164.914C76.7624 166.152 75.4005 167.638 75.4005 168.257ZM134.829 211.838C133.715 208.124 131.734 204.905 128.886 202.305C125.915 200.076 122.324 198.714 118.61 198.467C119.724 202.181 121.705 205.4 124.553 208C127.524 210.229 131.115 211.591 134.829 211.838ZM95.4576 194.01C96.2005 192.029 96.5719 189.8 96.2005 187.572C95.7053 185.467 94.7148 183.486 93.2291 181.876C92.3624 183.857 92.1148 186.086 92.4862 188.314C92.9814 190.419 93.9719 192.4 95.4576 194.01ZM84.3148 182.619C85.0576 180.638 85.4291 178.41 85.0576 176.181C84.5624 174.076 83.5719 172.095 82.0862 170.486C81.2196 172.467 80.9719 174.695 81.3434 176.924C81.8386 179.029 82.8291 181.01 84.3148 182.619ZM73.6672 140.4C75.5243 136.438 76.1434 131.981 75.6481 127.771C71.81 129.752 68.7148 132.848 66.61 136.562C64.7529 140.524 64.1338 144.981 64.6291 149.191C68.4672 147.21 71.5624 144.114 73.6672 140.4ZM65.0005 200.695C67.1053 200.572 69.21 199.952 70.9434 198.714C67.3529 196.114 62.6481 196.114 59.0576 198.714C60.791 199.952 62.8957 200.695 65.0005 200.695ZM62.6481 149.562C61.9053 145.352 59.9243 141.267 57.0767 138.048C53.9815 135.2 50.1434 133.219 45.9338 132.476C46.6767 136.686 48.6576 140.648 51.5053 143.867C54.6005 146.962 58.4386 148.819 62.6481 149.562ZM60.9148 172.838C61.2862 168.505 60.4195 164.171 58.5624 160.21C56.3338 156.495 53.1148 153.648 49.2767 151.667C48.9053 156 49.7719 160.333 51.6291 164.295C53.8576 168.133 57.0767 170.981 60.9148 172.838Z" fill="white" fill-opacity="0.5"/>
<path d="M69.2103 14.9808L73.0484 21.9142L71.1912 23.0285L71.0674 22.9046L69.2103 24.0189L65.496 17.2094L67.3531 15.9713V16.0951L69.2103 14.9808Z" fill="white" fill-opacity="0.5"/>
<path d="M73.0484 238.086L69.2103 245.019L67.3531 243.905L65.496 242.79L69.2103 235.981L71.0674 237.095L71.1912 236.971L73.0484 238.086Z" fill="white" fill-opacity="0.5"/>
<path d="M75.5243 63.3905C74.41 64.0095 73.1719 64.3809 71.81 64.3809V63.7619C72.1814 63.7619 72.5528 63.6381 72.9243 63.3905C73.2957 63.019 73.6671 62.6476 73.7909 62.1524C74.0385 61.4095 74.2862 60.6667 74.2862 59.9238C74.5338 57.5714 74.5338 55.3428 74.2862 52.9905C74.1623 52.2476 74.0385 51.5048 73.7909 50.7619C73.6671 50.2667 73.2957 49.8952 72.9243 49.5238C72.5528 49.2762 72.1814 49.1524 71.6862 49.1524V48.5333C73.0481 48.5333 74.41 48.7809 75.6481 49.5238C76.7623 50.1428 77.629 51.1333 78.1242 52.2476C79.2385 54.8476 79.2385 57.9429 78.1242 60.5429C77.629 61.7809 76.6385 62.7714 75.5243 63.3905Z" fill="white" fill-opacity="0.5"/>
<path d="M69.4572 88.7714V88.1524C69.8286 88.1524 70.2 88.0286 70.5715 87.781C70.9429 87.4095 71.3143 87.0381 71.4381 86.5429C71.6858 85.8 71.8096 85.0572 71.9334 84.3143C72.181 81.9619 72.181 79.7334 71.9334 77.381C71.8096 76.6381 71.6858 75.8953 71.4381 75.1524C71.3143 74.6572 70.9429 74.2857 70.5715 73.9143C70.2 73.6667 69.8286 73.5429 69.3334 73.5429V72.9238C70.6953 72.9238 72.0572 73.1714 73.2953 73.9143C74.4096 74.5334 75.2762 75.5238 75.7715 76.6381C76.8858 79.2381 76.8858 82.2095 75.7715 84.9333C75.2762 86.0476 74.4096 87.0381 73.2953 87.6572C72.181 88.4 70.8191 88.7714 69.4572 88.7714Z" fill="white" fill-opacity="0.5"/>
<path d="M71.6857 64.3809C70.2 64.3809 68.8381 64.1333 67.6 63.3904C66.4857 62.7714 65.619 61.7809 65.1238 60.6666C64.5047 59.3047 64.2571 57.9428 64.3809 56.4571C64.3809 55.0952 64.6285 53.6095 65.1238 52.3714C65.619 51.2571 66.4857 50.2666 67.6 49.6476C68.8381 48.9047 70.2 48.6571 71.6857 48.6571V49.2762C71.1905 49.2762 70.819 49.4 70.3238 49.6476C69.9524 49.8952 69.5809 50.3904 69.4571 50.7619C69.2095 51.5047 68.9619 52.2476 68.9619 52.9904C68.7143 55.3428 68.7143 57.5714 68.9619 59.9238C69.0857 60.6666 69.2095 61.4095 69.4571 62.1523C69.5809 62.6476 69.9524 63.019 70.3238 63.3904C70.6952 63.6381 71.1905 63.7619 71.6857 63.7619H71.8095L71.6857 64.3809Z" fill="white" fill-opacity="0.5"/>
<path d="M69.2088 112.171C69.5802 111.8 69.9517 111.428 70.0755 110.933C70.3231 110.19 70.5707 109.448 70.5707 108.705C70.8183 106.352 70.8183 104.124 70.5707 101.771C70.5707 101.028 70.3231 100.286 70.0755 99.5428C69.9517 99.0475 69.5802 98.6761 69.2088 98.3047C68.8374 98.0571 68.4659 97.9333 67.9707 97.9333V97.3142C69.3326 97.3142 70.6945 97.5618 71.9326 98.3047C73.0469 98.9237 73.9136 99.9142 74.4088 101.028C75.5231 103.628 75.5231 106.6 74.4088 109.324C73.9136 110.438 73.0469 111.428 71.9326 112.048C70.8183 112.667 69.5802 113.038 68.2183 113.038V112.419C68.5897 112.419 68.9612 112.295 69.2088 112.171Z" fill="white" fill-opacity="0.5"/>
<path d="M69.3326 88.7714C67.8469 88.7714 66.485 88.5238 65.2469 87.7809C64.1326 87.1619 63.266 86.1714 62.7707 85.0571C62.1517 83.6952 61.9041 82.3333 61.9041 80.8476C61.9041 79.4857 62.1517 78 62.7707 76.7619C63.266 75.6476 64.1326 74.6571 65.2469 74.0381C66.485 73.2952 67.8469 73.0476 69.3326 73.0476V73.6667C68.8374 73.6667 68.466 73.7905 67.9707 74.0381C67.5993 74.4095 67.2279 74.7809 67.1041 75.2762C66.8564 76.019 66.6088 76.7619 66.6088 77.5047C66.3612 79.8571 66.3612 82.0857 66.6088 84.4381C66.6088 85.1809 66.8564 85.9238 67.1041 86.6667C67.2279 87.1619 67.5993 87.5333 67.9707 87.9048C68.3422 88.1524 68.8374 88.2762 69.3326 88.2762H69.4564V88.8952L69.3326 88.7714Z" fill="white" fill-opacity="0.5"/>
<path d="M67.9719 113.162C66.4862 113.162 65.1243 112.914 63.8862 112.171C62.7719 111.552 61.9053 110.562 61.41 109.448C60.791 108.086 60.5434 106.724 60.6672 105.238C60.6672 103.876 60.9148 102.39 61.41 101.152C61.9053 100.038 62.7719 99.0475 63.8862 98.4285C65.1243 97.6856 66.4862 97.438 67.9719 97.438V98.057C67.4767 98.057 67.1053 98.1808 66.7339 98.4285C66.3624 98.7999 65.991 99.1713 65.8672 99.6666C65.6196 100.409 65.3719 101.152 65.3719 101.895C65.1243 104.248 65.1243 106.476 65.3719 108.828C65.4958 109.571 65.6196 110.314 65.8672 111.057C65.991 111.552 66.3624 111.924 66.7339 112.295C67.1053 112.543 67.4767 112.667 67.9719 112.667H68.0958V113.286L67.9719 113.162Z" fill="white" fill-opacity="0.5"/>
<path d="M62.1531 19.0667L66.3626 25.6286L64.5055 26.8667L62.7721 27.9809L58.5626 21.419L60.296 20.1809L60.4198 20.3047L62.1531 19.0667Z" fill="white" fill-opacity="0.5"/>
<path d="M66.3626 234.371L62.1531 240.933L60.4198 239.695L60.296 239.819L58.5626 238.581L62.7721 231.895L64.5055 233.133L66.3626 234.371Z" fill="white" fill-opacity="0.5"/>
<path d="M65.6191 223.6L62.5239 224.962C62.4001 225.086 62.1524 225.086 62.0286 225.086C61.5334 225.086 61.162 224.838 60.9143 224.343C60.6667 223.724 60.9143 222.981 61.5334 222.733L63.5143 221.867C64.1334 222.486 64.7524 223.105 65.6191 223.6Z" fill="white" fill-opacity="0.5"/>
<path d="M55.3429 23.5238L59.9238 29.8381L58.1905 31.2V31.0762L56.4572 32.4381L51.8762 26.1238L53.6096 24.7619V24.8857L55.3429 23.5238Z" fill="white" fill-opacity="0.5"/>
<path d="M59.9238 230.162L55.3429 236.476L53.6096 235.114V235.238L51.8762 233.876L56.4572 227.562L58.1905 228.8L59.9238 230.162Z" fill="white" fill-opacity="0.5"/>
<path d="M56.581 202.057C57.3239 202.305 58.0667 202.552 58.6858 202.8C49.8953 205.4 44.0762 207.257 43.9524 207.257C43.8286 207.257 43.7048 207.257 43.581 207.257C43.0858 207.257 42.5905 206.886 42.4667 206.39C42.2191 205.771 42.5905 205.029 43.2096 204.905C43.3334 204.905 48.0382 203.419 55.3429 201.19C55.7143 201.686 56.0858 201.933 56.581 202.057Z" fill="white" fill-opacity="0.5"/>
<path d="M61.4095 64.2572H53.6095V63.6381H54.1047C54.3524 63.6381 54.4762 63.6381 54.7238 63.5143C54.8476 63.5143 54.9714 63.3905 54.9714 63.2667C55.0952 63.0191 55.0952 62.7715 55.0952 62.5238V48.9048H61.2857V49.5238H60.2952C60.1714 49.5238 59.9238 49.5238 59.8 49.6476C59.6762 49.6476 59.5524 49.7715 59.5524 49.8953C59.4285 50.1429 59.4285 50.3905 59.4285 50.6381V62.7715C59.4285 63.0191 59.4285 63.2667 59.5524 63.3905C59.6762 63.5143 59.6762 63.6381 59.8 63.6381C59.9238 63.6381 60.1714 63.7619 60.2952 63.7619H61.1619L61.4095 64.2572Z" fill="white" fill-opacity="0.5"/>
<path d="M48.7802 28.3524L53.7326 34.4191L52.1231 35.9048L50.5136 37.2667L45.4374 31.2L47.1707 29.8381L48.7802 28.3524Z" fill="white" fill-opacity="0.5"/>
<path d="M53.7326 225.581L48.7802 231.648L47.1707 230.162L45.4374 228.8L50.5136 222.733L52.1231 224.095L53.7326 225.581Z" fill="white" fill-opacity="0.5"/>
<path d="M51.8762 97.5619C53.4858 97.4381 55.2191 97.8095 56.581 98.6762C57.6953 99.5429 58.1905 100.781 58.1905 102.143C58.1905 102.886 58.0667 103.505 57.8191 104.124C57.5715 104.743 57.0762 105.362 56.581 105.733C55.962 106.229 55.2191 106.6 54.4762 106.848C53.4858 107.095 52.4953 107.219 51.381 107.219H51.2572V106.6C51.6286 106.6 52.0001 106.476 52.3715 106.352C52.6191 106.229 52.8667 105.981 53.1143 105.733C53.362 105.362 53.4858 104.867 53.4858 104.371C53.6096 103.629 53.6096 103.01 53.6096 102.267C53.6096 101.4 53.6096 100.657 53.362 99.7905C53.2382 99.2952 53.1143 98.9238 52.7429 98.5524C52.3715 98.3048 52.0001 98.181 51.5048 98.181V97.5619H51.8762Z" fill="white" fill-opacity="0.5"/>
<path d="M42.5912 33.6763L47.915 39.3715L46.4293 40.981H46.3055L44.8198 42.4667L39.496 36.7715L40.9817 35.162L41.1055 35.2858L42.5912 33.6763Z" fill="white" fill-opacity="0.5"/>
<path d="M47.915 220.629L42.5912 226.324L41.1055 224.714L40.9817 224.838L39.496 223.229L44.8198 217.533L46.3055 219.019H46.4293L47.915 220.629Z" fill="white" fill-opacity="0.5"/>
<path d="M46.6762 125.048C47.2952 125.295 47.6667 125.914 47.5429 126.533C47.419 127.029 46.9238 127.4 46.4286 127.4C46.3048 127.4 46.1809 127.4 46.0571 127.4L32.0667 123.19C31.4476 122.943 31.0762 122.324 31.2 121.705C31.4476 121.086 32.0667 120.714 32.6857 120.838L46.6762 125.048Z" fill="white" fill-opacity="0.5"/>
<path d="M45.0667 97.5619H51.6286V98.1809H51.2571V106.724H51.3809V107.343H51.2571V111.429C51.2571 111.676 51.2571 111.924 51.3809 112.048C51.3809 112.171 51.5047 112.171 51.6286 112.295C51.7524 112.295 51.8762 112.295 52 112.295H53.4857V112.914H45.0667V112.295H46.0571C46.1809 112.295 46.4286 112.295 46.5524 112.171C46.6762 112.171 46.8 112.048 46.8 111.924C46.9238 111.676 46.9238 111.429 46.9238 111.181V99.0476C46.9238 98.8 46.9238 98.5524 46.8 98.4286C46.8 98.3047 46.6762 98.1809 46.5524 98.1809C46.4286 98.1809 46.3047 98.0571 46.1809 98.0571H45.0667V97.5619Z" fill="white" fill-opacity="0.5"/>
<path d="M45.0667 48.9048H55.3428V49.5238H51.2571V62.5238C51.2571 62.7715 51.2571 63.0191 51.3809 63.2667C51.3809 63.3905 51.5047 63.5143 51.6286 63.5143C51.7524 63.5143 52 63.6381 52.1238 63.6381H52.7428V64.2572H45.0667V63.6381H45.9333C46.1809 63.6381 46.3047 63.6381 46.4286 63.5143C46.5524 63.5143 46.6762 63.3905 46.6762 63.2667C46.8 63.0191 46.8 62.7715 46.8 62.5238V50.3905C46.8 50.1429 46.8 49.8953 46.6762 49.7715C46.5524 49.6476 46.5524 49.5238 46.4286 49.5238C46.3047 49.5238 46.0571 49.4 45.9333 49.4H45.0667V48.9048Z" fill="white" fill-opacity="0.5"/>
<path d="M45.6862 164.667L19.0672 163.552C18.4481 163.552 17.9529 162.933 17.9529 162.314C17.9529 161.571 18.4481 161.076 19.191 161.076L44.9434 162.19C45.0672 163.057 45.3148 163.924 45.6862 164.667Z" fill="white" fill-opacity="0.5"/>
<path d="M46.1817 146.962C45.5627 147.581 45.3151 148.571 45.6865 149.438C24.7627 146.714 17.2103 146.59 14.7341 146.962C14.1151 147.086 13.496 146.59 13.3722 145.971C13.2484 145.352 13.6198 144.61 14.3627 144.486C17.7056 143.867 28.3532 144.733 46.1817 146.962Z" fill="white" fill-opacity="0.5"/>
<path d="M46.7992 87.9047H52.7421V73.7904H51.0088C51.0088 74.9047 50.885 76.019 50.6373 77.2571C50.3897 78.4952 50.1421 79.7333 49.7707 80.8476C49.3993 82.0857 48.904 83.3238 48.4088 84.5619C48.0373 85.6762 47.4183 86.7904 46.7992 87.9047ZM47.2945 88.5238C46.9231 88.5238 46.5516 88.5238 46.304 88.7714C46.0564 88.8952 45.8088 89.1428 45.685 89.3904C45.5612 89.7619 45.4373 90.2571 45.3135 90.6285C45.1897 91.3714 45.1897 91.9904 45.1897 92.7333V92.8571H44.5707V87.9047H46.0564C46.7993 86.6666 47.4183 85.4285 47.9135 84.3142C48.4088 83.2 48.904 81.9619 49.2754 80.8476C49.6469 79.7333 49.8945 78.7428 50.0183 77.6285C50.1421 76.6381 50.2659 75.6476 50.2659 74.6571C50.2659 74.5333 50.2659 74.2857 50.1421 74.1619C50.0183 74.0381 49.8945 73.9142 49.7707 73.9142C49.5231 73.9142 49.2754 73.7904 49.1516 73.7904H47.7897V73.1714H58.685V73.7904H57.9421C57.6945 73.7904 57.5707 73.7904 57.3231 73.9142C57.1992 73.9142 57.0754 74.0381 57.0754 74.1619C56.9516 74.4095 56.9516 74.6571 56.9516 75.0285V86.6666C56.9516 86.9142 56.9516 87.2857 57.0754 87.5333C57.1992 87.6571 57.3231 87.7809 57.5707 87.9047C57.9421 87.9047 58.1897 87.9047 58.4373 87.9047H59.1802V92.8571H58.5612V92.6095C58.5612 91.8666 58.5612 91.2476 58.4373 90.5047C58.4373 90.1333 58.3135 89.6381 58.0659 89.2666C57.9421 89.019 57.6945 88.7714 57.4469 88.6476C57.0754 88.5238 56.8278 88.4 56.4564 88.4L47.2945 88.5238Z" fill="white" fill-opacity="0.5"/>
<path d="M45.1911 188.438L39.6197 189.181H39.4959C38.753 189.181 38.2578 188.686 38.134 188.067C38.0102 187.448 38.6292 186.829 39.2483 186.705L44.3245 185.962C44.4483 186.829 44.8197 187.695 45.1911 188.438Z" fill="white" fill-opacity="0.5"/>
<path d="M42.5913 107.962V110.562L34.9151 107.467C34.2961 107.219 34.0484 106.476 34.2961 105.857C34.5437 105.238 35.1627 104.867 35.7818 105.114C35.7818 105.114 35.7818 105.114 35.9056 105.114L42.5913 107.962Z" fill="white" fill-opacity="0.5"/>
<path d="M42.3429 44.6953L40.981 46.4286L40.8572 46.3048L39.4953 48.0381L33.8 42.5905L35.162 40.981H35.2858L36.6477 39.3715L42.3429 44.6953Z" fill="white" fill-opacity="0.5"/>
<path d="M40.981 213.571L42.3429 215.181L36.6477 220.629L35.2858 219.019H35.162L33.8 217.41L39.4953 211.962L40.8572 213.695L40.981 213.571Z" fill="white" fill-opacity="0.5"/>
<path d="M35.9048 207.752L37.2667 209.609L31.2 214.562L29.8381 212.829V212.952L28.4762 211.095L34.5429 206.143L35.781 207.876L35.9048 207.752Z" fill="white" fill-opacity="0.5"/>
<path d="M37.2667 50.3905L35.9048 52.1238H35.781L34.5429 53.8572L28.4762 48.781L29.8381 47.0476V47.1714L31.2 45.4381L37.2667 50.3905Z" fill="white" fill-opacity="0.5"/>
<path d="M32.4381 56.4572L31.2 58.1905H31.0762L29.9619 59.9239L23.5238 55.3429L24.7619 53.4858L24.8857 53.6096L26.1238 51.7524L32.4381 56.4572Z" fill="white" fill-opacity="0.5"/>
<path d="M31.2 201.686L32.4381 203.543L26.1238 208.248L24.8857 206.39L24.7619 206.514L23.5238 204.657L29.9619 200.076L31.0762 201.809L31.2 201.686Z" fill="white" fill-opacity="0.5"/>
<path d="M27.9809 62.6476L26.8667 64.6286L26.7428 64.5048L25.7524 66.3619L19.0667 62.1524L20.1809 60.2953H20.3047L21.419 58.4381L27.9809 62.6476Z" fill="white" fill-opacity="0.5"/>
<path d="M26.8667 195.371L27.9809 197.352L21.419 201.562L20.3047 199.705H20.1809L19.0667 197.848L25.7524 193.514L26.7428 195.495L26.8667 195.371Z" fill="white" fill-opacity="0.5"/>
<path d="M24.0183 69.2096L22.904 71.1906L21.9135 73.0477L15.104 69.3335L16.0945 67.3525L17.085 65.4954L24.0183 69.2096Z" fill="white" fill-opacity="0.5"/>
<path d="M22.904 188.81L24.0183 190.79L17.085 194.629L16.0945 192.648L15.104 190.667L21.9135 186.952L22.904 188.81Z" fill="white" fill-opacity="0.5"/>
<path d="M20.3043 76.0191L19.4376 78.0001L18.5709 79.981L11.5138 76.6382L12.3805 74.5334V74.6572L13.2471 72.6763L20.3043 76.0191Z" fill="white" fill-opacity="0.5"/>
<path d="M19.4376 182L20.3043 183.981L13.2471 187.324L12.3805 185.343V185.467L11.5138 183.362L18.5709 180.019L19.4376 182Z" fill="white" fill-opacity="0.5"/>
<path d="M17.2103 82.9522L16.4675 85.057H16.3436L15.6008 87.038L8.29602 84.1903L9.16269 82.0856L9.90554 80.1046L17.2103 82.9522Z" fill="white" fill-opacity="0.5"/>
<path d="M16.4675 174.943L17.2103 177.048L9.90554 179.895L9.16269 177.914L8.29602 175.81L15.6008 172.962L16.3436 174.943H16.4675Z" fill="white" fill-opacity="0.5"/>
<path d="M14.4864 90.1333L13.8674 92.3619L13.7435 92.2381L13.1245 94.3428L5.69592 91.9904L6.31497 89.7619H6.43878L7.05783 87.6571L14.4864 90.1333Z" fill="white" fill-opacity="0.5"/>
<path d="M13.8674 167.638L14.4864 169.867L7.05783 172.219L6.43878 170.238H6.31497L5.69592 168.133L13.1245 165.657L13.7435 167.762L13.8674 167.638Z" fill="white" fill-opacity="0.5"/>
<path d="M12.2571 97.4381L11.6381 99.6667L11.1428 101.771L3.59045 99.7905L4.08569 97.5619L4.58093 95.5809L12.2571 97.4381Z" fill="white" fill-opacity="0.5"/>
<path d="M11.6381 160.333L12.2571 162.562L4.58093 164.419L4.08569 162.314V162.438L3.59045 160.209L11.1428 158.229L11.6381 160.333Z" fill="white" fill-opacity="0.5"/>
<path d="M10.4 104.99L10.0286 107.219L9.65718 109.324L1.85718 107.838L2.35242 105.61L2.72384 103.505L10.4 104.99Z" fill="white" fill-opacity="0.5"/>
<path d="M10.0286 152.781L10.4 155.009L2.72384 156.495L2.35242 154.39L1.85718 152.162L9.65718 150.676L10.0286 152.781Z" fill="white" fill-opacity="0.5"/>
<path d="M9.03804 112.543L8.79042 114.771L8.5428 116.876L0.742798 115.886L0.990417 113.657L1.23804 111.552L9.03804 112.543Z" fill="white" fill-opacity="0.5"/>
<path d="M8.79042 145.229L9.03804 147.457L1.23804 148.448L0.990417 146.343L0.742798 144.114L8.5428 143.124L8.79042 145.229Z" fill="white" fill-opacity="0.5"/>
<path d="M8.1714 120.095L8.04759 122.324L7.92378 124.552L0.123779 124.057L0.247589 121.829L0.371398 119.6L8.1714 120.095Z" fill="white" fill-opacity="0.5"/>
<path d="M8.04759 137.676L8.1714 139.905L0.371398 140.4L0.247589 138.171L0.123779 135.943L7.92378 135.448L8.04759 137.676Z" fill="white" fill-opacity="0.5"/>
<path d="M7.8 130V132.229H0V130V127.771H7.8V129.876V130Z" fill="white" fill-opacity="0.5"/>
</g>
<defs>
<clipPath id="clip0_339_6329">
<rect width="260" height="260" fill="white"/>
</clipPath>
</defs>
</svg>
