<svg width="207" height="256" viewBox="0 0 207 256" fill="none" xmlns="http://www.w3.org/2000/svg">
<path d="M156.701 186.129V160.468C156.701 158.415 156.016 156.362 154.306 154.994C152.937 153.625 150.884 152.599 148.831 152.599C146.778 152.599 144.726 153.283 143.357 154.994C141.988 156.362 140.962 158.415 140.962 160.468V175.865C140.962 179.971 139.251 184.076 136.172 186.814C133.092 189.551 129.329 191.261 125.223 191.261C121.117 191.261 117.011 189.551 114.274 186.814C111.195 184.076 109.826 179.971 109.484 175.865V132.754C109.484 131.043 108.8 128.99 107.431 127.964C106.063 126.595 104.352 125.911 102.641 125.911C100.93 125.911 98.8776 126.595 97.8512 127.964C96.4826 129.333 95.7983 131.043 95.7983 132.754V195.709C95.7983 197.762 95.4561 199.815 94.7718 201.526C94.0875 203.237 93.0611 205.29 91.3503 206.658C89.9817 208.027 88.271 209.395 86.2181 210.08C84.5074 210.764 82.4545 211.106 80.4016 211.106C78.3487 211.106 76.2958 210.764 74.585 210.08C72.8743 209.395 71.1635 208.027 69.4528 206.658C68.0842 205.29 67.0578 203.579 66.0313 201.526C65.0049 199.473 65.0049 197.762 65.0049 195.709V159.442C65.0049 157.389 64.3206 155.678 62.952 154.309C61.5834 152.941 59.8726 152.256 57.8197 152.256C55.7669 152.256 54.0561 152.941 52.6875 154.309C51.3189 155.678 50.6346 157.389 50.6346 159.442V186.129C50.6346 190.235 48.9239 193.999 46.1867 196.736C43.4495 199.473 39.6859 201.184 35.5801 201.184H12.314C21.2098 217.607 34.2115 231.293 50.2925 240.873C66.3735 250.453 84.5074 255.585 103.326 255.585C122.144 255.585 140.278 250.453 156.359 240.873C172.44 231.293 185.441 217.607 194.337 201.184H171.071C167.307 201.184 163.544 199.473 160.807 197.078C158.069 193.656 156.701 190.235 156.701 186.129Z" fill="white" fill-opacity="0.5"/>
<path d="M40.3736 185.787V159.099C40.3736 154.309 42.0843 149.861 45.5058 146.782C48.9273 143.703 53.3752 141.65 57.8231 141.65C62.6132 141.65 67.0612 143.36 70.1405 146.782C73.562 150.203 75.2727 154.651 75.2727 159.099V195.709C75.2727 196.393 75.2727 197.078 75.6149 197.762C75.957 198.446 76.2992 199.131 76.6413 199.473C76.9835 199.815 77.6678 200.499 78.3521 200.499C79.0364 200.841 79.7207 200.841 80.405 200.841C81.0893 200.841 81.7736 200.841 82.4579 200.499C83.1422 200.157 83.4843 199.815 84.1686 199.473C84.5107 199.131 84.8529 198.446 85.195 197.762C85.5372 197.078 85.5372 196.393 85.5372 195.709V132.754C85.5372 128.306 87.2479 123.858 90.6694 120.436C93.7488 117.357 98.1967 115.304 102.987 115.304C107.435 115.304 111.883 117.015 115.304 120.436C118.383 123.516 120.436 127.964 120.436 132.754V175.865C120.436 177.233 121.121 178.602 122.147 179.628C123.174 180.655 124.542 180.997 125.911 180.997C127.279 180.997 128.648 180.312 129.674 179.628C130.701 178.602 131.385 177.233 131.385 175.865V160.468C131.385 155.678 133.438 151.23 136.517 147.808C139.939 144.387 144.387 142.676 149.177 142.676C153.967 142.676 158.415 144.729 161.836 147.808C165.258 151.23 166.969 155.678 166.969 160.468V186.129C166.969 187.155 167.311 188.524 168.337 189.208C169.021 189.893 170.39 190.577 171.417 190.577H199.473C204.263 178.26 207 165.258 207 152.256C206.316 95.1174 103.329 0 103.329 0C103.329 0 0 95.1174 0 152.256C0 165.6 2.39504 178.602 7.52727 190.919H35.9256C36.6099 190.919 37.2942 190.919 37.6364 190.577C38.3207 190.235 38.6628 189.893 39.3471 189.55C40.0314 189.208 40.0314 188.524 40.3736 187.84C40.3736 187.155 40.3736 186.471 40.3736 185.787ZM148.835 108.461C151.572 108.461 153.967 109.146 156.02 110.514C158.073 111.883 159.783 113.936 160.81 116.331C161.836 118.726 162.179 121.463 161.494 123.858C161.152 126.253 159.783 128.648 158.073 130.359C156.362 132.069 153.967 133.438 151.572 133.78C149.177 134.122 146.44 134.122 144.045 133.096C141.65 132.069 139.597 130.359 138.228 128.306C136.86 126.253 136.175 123.516 136.175 121.121C136.175 117.699 137.544 114.278 139.939 111.883C142.334 109.488 145.413 108.461 148.835 108.461ZM103.329 79.7207C106.066 79.7207 108.461 80.405 110.514 81.7736C112.567 83.1422 114.278 85.1951 115.304 87.5901C116.331 89.9852 116.673 92.7224 115.988 95.1174C115.646 97.5124 114.278 99.9075 112.567 101.618C110.856 103.329 108.461 104.698 106.066 105.04C103.671 105.382 100.934 105.382 98.5388 104.355C96.1438 103.329 94.0909 101.618 92.7223 99.5653C91.3537 97.5124 90.6694 94.7752 90.6694 92.3802C90.6694 88.9587 92.038 85.5372 94.4331 83.1422C96.486 81.0893 99.9074 79.7207 103.329 79.7207ZM57.1388 108.119C59.876 108.119 62.2711 108.803 64.324 110.172C66.3769 111.541 68.0876 113.593 69.1141 115.988C70.1405 118.384 70.4826 121.121 69.7983 123.516C69.4562 125.911 68.0876 128.306 66.3769 130.017C64.6661 131.727 62.2711 133.096 59.876 133.438C57.481 133.78 54.7438 133.78 52.3488 132.754C49.9537 131.727 47.9008 130.017 46.5322 127.964C45.1636 125.911 44.4793 123.174 44.4793 120.779C44.4793 117.357 45.8479 113.936 48.243 111.541C50.638 109.488 53.7174 108.119 57.1388 108.119Z" fill="white" fill-opacity="0.5"/>
</svg>
