<svg width="209" height="334" viewBox="0 0 209 334" fill="none" xmlns="http://www.w3.org/2000/svg">
<path opacity="0.1" d="M208.954 143.85C207.76 98.3895 161.842 72.1481 125.125 105.524C95.0348 71.967 51.9423 67.7336 27.5211 85.8302C1.84805 105.202 -4.12535 135.778 2.49189 169.818C14.242 230.136 54.7189 290.952 65.0516 307.266C74.2531 321.833 86.2983 340.071 102.443 332.031C118.566 324.006 100.718 298.852 96.9932 292.687C86.6515 275.467 1.5306 142.747 67.1754 117.061C82.6007 111.029 99.4746 120.212 106.217 125.355C98.4865 134.764 91.9274 148.24 91.9274 159.798C91.9274 180.78 104.509 196.301 122.854 196.301C141.23 196.301 156.128 180.429 156.128 160.196C156.128 145.91 146.842 131.842 138.583 121.609C154.661 107.617 185.458 121.327 183.491 159.146C182.069 186.683 167.158 220.164 139.33 275.19C139.33 275.202 139.33 275.238 139.33 275.274C138.668 276.578 138.279 278.489 138.279 280.035C138.279 285.918 143.126 290.735 149.672 290.735C157.684 290.735 161.963 282.98 162.584 281.858C170.798 267.689 187.56 229.717 189.008 226.244C195.791 209.826 209.906 178.136 208.954 143.85ZM123.145 177.983C115.691 177.983 110.335 172.723 110.335 162.031C110.335 151.323 122.63 136.892 122.63 136.892C122.63 136.892 136.312 151.311 136.312 162.031C136.321 172.727 130.567 177.983 123.145 177.983ZM156.736 85.1098C167.829 84.0636 175.613 72.5143 174.115 59.287C172.604 46.1442 162.352 36.2166 151.205 37.271C140.063 38.3092 132.248 49.8665 133.786 63.0978C135.306 76.2809 145.563 86.1601 156.736 85.1098ZM60.3882 61.9912C73.7479 64.7276 88.042 53.1421 92.3253 36.1563C96.6265 19.1463 89.2716 3.1423 75.9343 0.405891C62.5657 -2.35064 48.2581 9.22679 43.9793 26.2126C39.687 43.2629 47.0464 59.2588 60.3882 61.9912Z" fill="white"/>
</svg>
