<svg width="82" height="32" viewBox="0 0 82 32" fill="none" xmlns="http://www.w3.org/2000/svg">
<g clip-path="url(#clip0_339_4756)">
<path d="M46.2117 12.6619H47.8331V8.97844H46.5591V0.575557H44.9377V8.97844H40.5365V0.575557H38.9151V10.2446H46.2117V12.6619ZM50.9603 5.87052H54.7823V4.60433H50.9603V1.84174H55.3614V0.575557H49.3388V10.2446H55.4772V8.97844H50.9603V5.87052ZM58.4885 6.10074H62.8896V10.2446H64.5111V0.575557H62.8896V4.83455H58.4885V0.575557H56.867V10.2446H58.4885V6.10074ZM65.4377 1.84174H68.449V10.2446H70.0704V1.84174H73.0817V0.575557H65.4377V1.84174ZM75.9772 6.56117H78.062C79.1043 6.56117 80.0309 6.33095 80.61 5.75541C81.1891 5.17987 81.5365 4.48923 81.5365 3.56836C81.5365 2.6475 81.1891 1.95685 80.61 1.38131C80.0309 0.805773 79.1043 0.575557 78.062 0.575557H74.3557V10.2446H75.9772V6.56117ZM75.9772 1.84174H78.062C78.6411 1.84174 79.1043 1.95685 79.4518 2.30218C79.7992 2.6475 79.9151 2.99282 79.9151 3.56836C79.9151 4.1439 79.7992 4.48923 79.4518 4.83455C79.1043 5.17987 78.6411 5.29498 78.062 5.29498H75.9772V1.84174ZM40.5365 18.7626H41.3473L44.5902 22.9065H46.6749L42.7371 17.8417L46.3275 13.3525H44.2427L41.1156 17.4964H40.5365V13.3525H38.9151V23.0216H40.5365V18.7626ZM51.4235 13.3525H47.7173V23.0216H49.3388V19.3381H51.4235C52.4659 19.3381 53.3925 19.1079 53.9716 18.5324C54.5506 17.9569 54.8981 17.2662 54.8981 16.3453C54.8981 15.4245 54.5506 14.7338 53.9716 14.1583C53.3925 13.5828 52.4659 13.3525 51.4235 13.3525ZM52.8134 17.6115C52.4659 17.9569 52.0026 18.072 51.4235 18.072H49.3388V14.6187H51.4235C52.0026 14.6187 52.4659 14.7338 52.8134 15.0792C53.1608 15.4245 53.2766 15.7698 53.2766 16.3453C53.2766 16.9209 53.1608 17.2662 52.8134 17.6115ZM59.9942 23.1367C61.1523 23.1367 62.1947 22.7914 62.8896 21.9856C63.7004 21.1799 64.0478 20.1439 64.0478 18.9928V17.2662C64.0478 16.1151 63.5845 15.1943 62.8896 14.3885C62.1947 13.5828 61.1523 13.2374 59.9942 13.2374C58.7201 13.2374 57.7936 13.5828 57.0987 14.3885C56.4038 15.0792 56.0563 16.1151 56.0563 17.2662V18.9928C56.0563 20.259 56.4038 21.1799 57.0987 21.9856C57.9094 22.7914 58.836 23.1367 59.9942 23.1367ZM57.6778 17.2662C57.6778 16.4605 57.7936 15.7698 58.2569 15.3094C58.7201 14.7338 59.2992 14.5036 59.9942 14.5036C60.6891 14.5036 61.2682 14.8489 61.7314 15.3094C62.1947 15.7698 62.4264 16.4605 62.4264 17.2662V18.9928C62.4264 19.7986 62.1947 20.4892 61.7314 20.9497C61.2682 21.5252 60.6891 21.7554 59.9942 21.7554C59.1834 21.7554 58.7201 21.5252 58.2569 20.9497C57.9094 20.4892 57.6778 19.7986 57.6778 18.9928V17.2662ZM71.1128 17.9569C71.5761 17.7266 71.9235 17.4964 72.1552 17.1511C72.3903 16.8135 72.5119 16.4105 72.5026 16C72.5026 15.1943 72.1552 14.5036 71.5761 14.0432C70.997 13.5828 70.0704 13.3525 69.0281 13.3525H65.7851V23.0216H69.6071C70.6495 23.0216 71.4603 22.7914 72.0394 22.331C72.6184 21.8705 72.9659 21.1799 72.9659 20.259C72.9659 19.6835 72.8501 19.223 72.5026 18.7626C72.271 18.3022 71.6919 18.072 71.1128 17.9569ZM67.4066 14.6187H68.9122C69.4913 14.6187 69.9546 14.7338 70.3021 14.964C70.6495 15.1943 70.7653 15.5396 70.7653 16C70.7653 16.4604 70.6495 16.8058 70.3021 17.036C70.0704 17.2662 69.6071 17.3813 69.1439 17.3813H67.4066V14.6187ZM70.8812 21.4101C70.6495 21.6403 70.1862 21.7554 69.6071 21.7554H67.4066V18.6475H69.6071C70.1862 18.6475 70.5337 18.8777 70.8812 19.1079C71.2286 19.3381 71.3444 19.7986 71.3444 20.259C71.3444 20.8346 71.2286 21.1799 70.8812 21.4101ZM80.3783 13.3525L76.093 20.259V13.3525H74.4716V23.0216H76.093L80.3783 16.1151V23.0216H81.9998V13.3525H80.3783ZM1.85291 0.460449C0.810541 2.6475 0.231445 5.87052 0.231445 9.55398C0.231445 16.1151 2.20037 21.5252 4.74839 21.5252C7.29642 21.5252 9.26534 16.1151 9.26534 9.55398C9.26534 5.87052 8.68625 2.6475 7.64387 0.460449H1.85291ZM4.74839 23.5971C2.77947 23.5971 1.158 26.8202 0.463084 31.4245H8.91789C8.33879 26.8202 6.71732 23.5971 4.74839 23.5971ZM22.1213 0.460449C21.1947 2.6475 20.4998 5.87052 20.4998 9.55398C20.4998 16.1151 22.4687 21.5252 25.0168 21.5252C27.5648 21.5252 29.5337 16.1151 29.5337 9.55398C29.5337 5.87052 28.9546 2.6475 27.9122 0.460449H22.1213ZM25.0168 23.5971C23.0478 23.5971 21.4264 26.8202 20.7314 31.4245H29.1862C28.6072 26.8202 26.9857 23.5971 25.0168 23.5971ZM14.593 10.1295C12.045 10.1295 10.0761 15.5396 10.0761 22.1007C10.0761 25.8993 10.771 29.2374 11.8134 31.4245H17.3727C18.4151 29.2374 19.11 25.8993 19.11 22.1007C19.11 15.5396 17.1411 10.1295 14.593 10.1295ZM14.593 8.86333C16.562 8.86333 18.2992 5.29498 18.8783 0.460449H10.3077C10.8868 5.29498 12.6241 8.86333 14.593 8.86333Z" fill="#5B5B5B"/>
<path d="M79.2205 30.3885V26.59H78.5256V31.8849H79.2205L81.1895 28.0864V31.8849H81.8844V26.59H81.3053L79.2205 30.3885ZM63.8166 26.4749C63.5849 26.4749 63.2375 26.4749 63.0058 26.59C62.7742 26.7051 62.5426 26.9353 62.3109 27.1655C61.9635 27.6259 61.8477 28.3166 61.8477 29.1223C61.8477 29.9281 61.9635 30.6187 62.3109 31.0792C62.6584 31.5396 63.1217 31.8849 63.8166 31.8849C64.5115 31.8849 64.9748 31.6547 65.3222 31.0792C65.6697 30.6187 65.7855 29.9281 65.7855 29.1223C65.7855 28.3166 65.6697 27.6259 65.3222 27.1655C64.9748 26.8202 64.5115 26.4749 63.8166 26.4749ZM64.859 30.6187C64.7431 30.849 64.6273 30.9641 64.5115 30.9641C64.3957 31.0792 64.2799 31.0792 64.164 31.1943H63.8166C63.3533 31.1943 63.0058 30.9641 62.7742 30.6187C62.5426 30.2734 62.5426 29.813 62.5426 29.2374C62.5426 29.0072 62.5426 28.777 62.6584 28.4317C62.6584 28.2015 62.7742 27.9713 62.89 27.741L63.2375 27.3957C63.3533 27.2806 63.5849 27.2806 63.8166 27.2806H63.9324C64.164 27.2806 64.3957 27.3957 64.5115 27.5108L64.859 27.8561C65.0906 28.2015 65.2064 28.6619 65.2064 29.3526L64.859 30.6187Z" fill="#454545"/>
<path d="M73.198 30.0432C73.198 30.2734 73.0822 30.5036 73.0822 30.6187C72.9664 30.849 72.8506 30.9641 72.7347 31.0792C72.6189 31.1943 72.3873 31.1943 72.1556 31.1943C72.0398 31.1943 71.8082 31.1943 71.6924 31.0792C71.5765 30.9641 71.4607 30.849 71.2291 30.7338C70.9974 30.3885 70.8816 29.9281 70.8816 29.2374C70.8816 28.5468 70.9974 27.9713 71.2291 27.6259C71.4607 27.2806 71.6924 27.1655 72.0398 27.1655C72.2715 27.1655 72.5031 27.1655 72.6189 27.2806L72.9664 27.6259C73.0822 27.741 73.0822 27.9713 73.0822 28.0864V28.2015H73.7771V28.0864C73.7771 27.6259 73.6613 27.1655 73.4297 26.9353C73.0822 26.59 72.6189 26.3597 72.0398 26.3597C71.4607 26.3597 70.9974 26.59 70.65 26.9353C70.1867 27.3957 69.9551 28.2015 69.9551 29.2374C69.9551 30.1583 70.1867 30.849 70.5342 31.3094C70.8816 31.6547 71.3449 31.8849 71.924 31.8849C72.6189 31.8849 73.0822 31.6547 73.4297 31.0792C73.6613 30.7338 73.6613 30.3885 73.7771 30.0432V29.9281L73.198 30.0432Z" fill="#454545"/>
<path d="M75.051 30.3885V26.59H74.3561V31.8849H75.051L77.1358 28.0864V31.8849H77.8307V26.59H77.1358L75.051 30.3885ZM52.3505 29.4677C52.2346 29.2374 52.1188 29.0072 51.8872 28.8921C51.7714 28.777 51.4239 28.777 51.0764 28.777H49.9183V27.5108H52.2346V26.7051H49.2233V31.8849H51.0764C51.4239 31.8849 51.7714 31.7698 51.8872 31.6547C52.1188 31.5396 52.2346 31.3094 52.3505 31.0792C52.4663 30.8489 52.4663 30.6187 52.4663 30.2734C52.4663 30.0432 52.4663 29.6979 52.3505 29.4677ZM51.5397 30.9641C51.4239 31.0792 51.1923 31.0792 50.9606 31.0792H49.9183V29.4677H50.9606C51.1923 29.4677 51.3081 29.4677 51.4239 29.5828C51.6555 29.6979 51.7714 29.9281 51.7714 30.2734C51.7714 30.6187 51.6555 30.8489 51.5397 30.9641ZM61.0369 26.9353C60.8053 26.7051 60.4578 26.7051 60.1103 26.7051H58.3731V31.8849H59.068V29.9281H59.9945C60.342 29.9281 60.6894 29.813 60.9211 29.6979C61.2685 29.4677 61.5002 28.8921 61.5002 28.3166C61.5002 27.9712 61.3844 27.6259 61.2685 27.3957C61.2685 27.0504 61.1527 26.9353 61.0369 26.9353ZM60.5736 29.0072C60.4578 29.1223 60.2262 29.1223 59.9945 29.1223H59.068V27.3957H59.9945C60.2262 27.3957 60.4578 27.3957 60.5736 27.5108C60.8053 27.6259 60.9211 27.8561 60.9211 28.2015C60.9211 28.5468 60.8053 28.777 60.5736 29.0072ZM54.0877 26.59L52.4663 31.7698H53.1612L53.5087 30.5036H55.1301L55.4776 31.7698H56.2883L54.6668 26.59H54.0877ZM53.7403 29.813L54.3194 27.741L54.8985 29.813H53.7403ZM43.2007 27.5108C42.8533 27.2806 42.5058 27.0504 41.9267 27.0504H41.8109V26.2446H41.116V27.0504H41.0002C40.4211 27.0504 40.0736 27.1655 39.7262 27.5108C39.6103 27.6259 39.3787 27.8561 39.2629 28.0864C39.1471 28.3166 39.0312 28.6619 39.0312 29.1223C39.0312 29.5828 39.1471 29.9281 39.2629 30.1583C39.3787 30.3885 39.4945 30.6187 39.7262 30.7338C40.0736 30.9641 40.4211 31.1943 41.0002 31.1943H41.116V32H41.8109V31.1943H41.9267C42.5058 31.1943 42.8533 31.0792 43.2007 30.7338L43.5482 30.3885C43.664 30.2734 43.664 30.0432 43.7798 29.813C43.8957 29.5828 43.8957 29.3525 43.8957 29.1223C43.8957 28.6619 43.7798 28.3166 43.664 28.0864C43.5482 27.8561 43.3166 27.6259 43.2007 27.5108ZM41.116 30.6187H40.5369C40.4211 30.6187 40.3053 30.5036 40.1894 30.3885C39.9578 30.1583 39.842 29.813 39.842 29.2374C39.8327 28.8269 39.9543 28.424 40.1894 28.0864C40.4211 27.8561 40.6527 27.8561 41.0002 27.8561H41.116V30.6187ZM42.7375 30.2734C42.6216 30.3885 42.5058 30.5036 42.39 30.5036H41.9267V27.741H42.39C42.5058 27.741 42.6216 27.8561 42.7375 27.9712C42.9691 28.2015 43.0849 28.5468 43.0849 29.1223C43.0849 29.6979 42.9691 30.0432 42.7375 30.2734Z" fill="#454545"/>
<path d="M69.2595 30.0432C69.2595 30.2734 69.1437 30.5036 69.1437 30.6187C69.0279 30.849 68.9121 30.9641 68.7963 31.0792C68.6804 31.1943 68.4488 31.1943 68.2172 31.1943C68.1013 31.1943 67.8697 31.1943 67.7539 31.0792C67.6381 30.9641 67.5222 30.849 67.2906 30.7338C67.059 30.3885 66.9432 29.9281 66.9432 29.2374C66.9432 28.5468 67.059 27.9713 67.2906 27.6259C67.5222 27.2806 67.7539 27.1655 68.1013 27.1655C68.333 27.1655 68.5646 27.1655 68.6804 27.2806L69.0279 27.6259C69.1437 27.741 69.1437 27.9713 69.1437 28.0864V28.2015H69.8386V28.0864C69.8386 27.6259 69.7228 27.1655 69.4912 26.9353C69.1437 26.59 68.6804 26.3597 68.1013 26.3597C67.5223 26.3597 67.059 26.59 66.7115 26.9353C66.2482 27.3957 66.0166 28.2015 66.0166 29.2374C66.0166 30.1583 66.2482 30.849 66.5957 31.3094C66.9432 31.6547 67.4064 31.8849 67.9855 31.8849C68.6804 31.8849 69.1437 31.6547 69.4912 31.0792C69.7228 30.7338 69.7228 30.3885 69.8386 30.0432V29.9281L69.2595 30.0432Z" fill="#454545"/>
<path d="M46.4437 30.6187L45.1697 26.59H44.2432V31.8849H44.9381V28.0864L46.0963 31.8849H46.6754L47.8336 28.0864V31.8849H48.5285V26.59H47.6019L46.4437 30.6187Z" fill="#454545"/>
</g>
<defs>
<clipPath id="clip0_339_4756">
<rect width="82" height="32" fill="white"/>
</clipPath>
</defs>
</svg>
