<svg width="148" height="66" viewBox="0 0 148 66" fill="none" xmlns="http://www.w3.org/2000/svg">
<path d="M40.5717 28.4255C40.3399 19.4422 31.4241 14.2568 24.295 20.8521C18.4525 14.221 10.0854 13.3845 5.34365 16.9605C0.358827 20.7885 -0.801 26.8303 0.483838 33.5568C2.7653 45.4759 10.6245 57.4936 12.6308 60.7172C14.4174 63.5958 16.7561 67.1996 19.891 65.6108C23.0215 64.0252 19.5559 59.0545 18.8327 57.8363C16.8247 54.4337 0.297189 28.2076 13.0431 23.1319C16.0382 21.9399 19.3145 23.7545 20.6237 24.7708C19.1227 26.6299 17.8491 29.293 17.8491 31.5768C17.8491 35.7229 20.2921 38.7899 23.854 38.7899C27.422 38.7899 30.3147 35.6537 30.3147 31.6555C30.3147 28.8326 28.5116 26.0526 26.9081 24.0305C30.0299 21.2656 36.0096 23.9748 35.6276 31.448C35.3516 36.8894 32.4564 43.5054 27.0531 54.3788C27.0531 54.3812 27.0531 54.3883 27.0531 54.3955C26.9246 54.6531 26.8491 55.0309 26.8491 55.3362C26.8491 56.4988 27.7901 57.4506 29.0611 57.4506C30.6168 57.4506 31.4476 55.9183 31.5683 55.6964C33.163 52.8966 36.4176 45.3932 36.6989 44.7069C38.0159 41.4626 40.7566 35.2005 40.5717 28.4255ZM23.9104 35.1702C22.4633 35.1702 21.4232 34.1309 21.4232 32.0181C21.4232 29.9021 23.8106 27.0506 23.8106 27.0506C23.8106 27.0506 26.4671 29.8997 26.4671 32.0181C26.4688 34.1317 25.3515 35.1702 23.9104 35.1702ZM30.4327 16.8181C32.5866 16.6114 34.098 14.3292 33.8072 11.7154C33.5137 9.11831 31.5231 7.15658 29.3589 7.36492C27.1955 7.57008 25.678 9.85386 25.9766 12.4684C26.2718 15.0735 28.2633 17.0257 30.4327 16.8181ZM11.7253 12.2498C14.3193 12.7905 17.0947 10.5011 17.9264 7.14465C18.7615 3.7834 17.3335 0.620934 14.7438 0.0802059C12.1481 -0.464498 9.37006 1.82326 8.53926 5.17974C7.70585 8.54895 9.1348 11.7098 11.7253 12.2498Z" fill="#EE2E22"/>
<path d="M58.3867 33.5715C56.9479 33.5715 55.6345 33.2728 54.4466 32.6753C53.2586 32.0645 52.3214 31.2148 51.635 30.1261C50.9487 29.0241 50.6055 27.7627 50.6055 26.3421C50.6055 24.9214 50.9487 23.6667 51.635 22.578C52.3214 21.476 53.2586 20.6263 54.4466 20.0288C55.6345 19.418 56.9479 19.1127 58.3867 19.1127C59.6143 19.1127 60.7428 19.345 61.7724 19.8097C62.802 20.2744 63.66 20.9184 64.3463 21.7415C65.0327 22.5647 65.5079 23.5008 65.7719 24.5497H62.2278C61.9242 23.846 61.4292 23.2817 60.7428 22.8568C60.0564 22.4187 59.2711 22.1996 58.3867 22.1996C57.5683 22.1996 56.8225 22.3722 56.1493 22.7174C55.4894 23.0626 54.968 23.5472 54.5852 24.1713C54.2024 24.7953 54.011 25.5189 54.011 26.3421C54.011 27.1653 54.2024 27.8889 54.5852 28.5129C54.968 29.1369 55.4894 29.6215 56.1493 29.9668C56.8225 30.312 57.5683 30.4846 58.3867 30.4846C59.2843 30.4846 60.0696 30.2655 60.7428 29.8273C61.4292 29.3759 61.9242 28.7784 62.2278 28.0349H65.7719C65.5211 29.1104 65.0459 30.0663 64.3463 30.9028C63.66 31.7393 62.802 32.3965 61.7724 32.8744C60.7428 33.3392 59.6143 33.5715 58.3867 33.5715Z" fill="#00608A"/>
<path d="M66.565 33.4719V30.146H67.0798C68.2545 30.146 68.9013 29.595 69.0201 28.493L69.9309 19.3716H80.8404V33.3126H77.4349V22.6975H73.0196L72.3464 29.3693C72.2012 30.7103 71.7326 31.7326 70.9407 32.4363C70.1619 33.1267 69.0729 33.4719 67.6737 33.4719H66.565Z" fill="#00608A"/>
<path d="M93.1293 19.3716H96.9902L90.6345 31.4405C89.9745 32.6886 88.8922 33.3126 87.3874 33.3126H84.5957V30.2854H86.7736C87.0376 30.2854 87.2554 30.2456 87.427 30.1659C87.5986 30.0862 87.7504 29.9601 87.8824 29.7875L88.1002 29.4888L82.3187 19.3716H86.239L89.5852 25.4658H90.0405L93.1293 19.3716Z" fill="#00608A"/>
<path d="M101.266 33.3126H97.1877L102.138 26.2226L97.6431 19.3716H101.662L105.583 25.4658V19.3716H108.988V25.4658L112.909 19.3716H116.928L112.433 26.2226L117.383 33.3126H113.305L108.988 26.9196V33.3126H105.583V26.9196L101.266 33.3126Z" fill="#00608A"/>
<path d="M118.874 33.3126V19.3716H130.456V22.2394H122.279V24.6293H126.873C128.272 24.6293 129.374 25.0276 130.179 25.8243C130.984 26.6076 131.387 27.6565 131.387 28.971C131.387 30.2854 130.984 31.3409 130.179 32.1376C129.374 32.9209 128.272 33.3126 126.873 33.3126H118.874ZM126.437 30.4447C126.912 30.4447 127.288 30.312 127.566 30.0464C127.843 29.7676 127.981 29.4091 127.981 28.971C127.981 28.5328 127.843 28.181 127.566 27.9154C127.288 27.6366 126.912 27.4972 126.437 27.4972H122.279V30.4447H126.437Z" fill="#00608A"/>
<path d="M148 33.3126H144.357L143.367 30.7235H136.813L135.823 33.3126H132.18L137.784 19.3716H142.397L148 33.3126ZM139.862 22.8369L137.982 27.7362H142.199L140.318 22.8369H139.862Z" fill="#00608A"/>
<path d="M54.605 53.2283H51.1995V39.2873H54.605V45.3019L59.5747 39.2873H63.594L57.9313 46.1583L64.0493 53.2283H59.9508L54.605 46.9549V53.2283Z" fill="#00608A"/>
<path d="M65.237 53.2283V39.2873H72.7014C73.7046 39.2873 74.589 39.4865 75.3546 39.8848C76.1201 40.2831 76.7075 40.8474 77.1167 41.5776C77.5391 42.3079 77.7503 43.1642 77.7503 44.1468C77.7503 45.1293 77.5391 45.9856 77.1167 46.7159C76.7075 47.4461 76.1201 48.0104 75.3546 48.4087C74.589 48.807 73.7046 49.0062 72.7014 49.0062H68.6425V53.2283H65.237ZM72.5232 45.8595C73.0776 45.8595 73.5198 45.7068 73.8498 45.4015C74.1798 45.0828 74.3448 44.6646 74.3448 44.1468C74.3448 43.6289 74.1798 43.2174 73.8498 42.912C73.5198 42.5933 73.0776 42.434 72.5232 42.434H68.6425V45.8595H72.5232Z" fill="#00608A"/>
<path d="M87.1192 53.4872C85.6804 53.4872 84.3671 53.1885 83.1791 52.591C81.9911 51.9803 81.0539 51.1305 80.3676 50.0418C79.6812 48.9398 79.338 47.6785 79.338 46.2578C79.338 44.8372 79.6812 43.5825 80.3676 42.4938C81.0539 41.3917 81.9911 40.542 83.1791 39.9445C84.3671 39.3338 85.6804 39.0284 87.1192 39.0284C88.558 39.0284 89.8713 39.3338 91.0593 39.9445C92.2473 40.542 93.1844 41.3917 93.8708 42.4938C94.5572 43.5825 94.9004 44.8372 94.9004 46.2578C94.9004 47.6785 94.5572 48.9398 93.8708 50.0418C93.1844 51.1305 92.2473 51.9803 91.0593 52.591C89.8713 53.1885 88.558 53.4872 87.1192 53.4872ZM87.1192 50.4003C87.9376 50.4003 88.6768 50.2277 89.3367 49.8825C90.0099 49.5373 90.5379 49.0527 90.9207 48.4286C91.3035 47.8046 91.4949 47.081 91.4949 46.2578C91.4949 45.4346 91.3035 44.711 90.9207 44.087C90.5379 43.463 90.0099 42.9784 89.3367 42.6332C88.6768 42.288 87.9376 42.1154 87.1192 42.1154C86.3008 42.1154 85.555 42.288 84.8818 42.6332C84.2219 42.9784 83.7005 43.463 83.3177 44.087C82.9349 44.711 82.7435 45.4346 82.7435 46.2578C82.7435 47.081 82.9349 47.8046 83.3177 48.4286C83.7005 49.0527 84.2219 49.5373 84.8818 49.8825C85.555 50.2277 86.3008 50.4003 87.1192 50.4003Z" fill="#00608A"/>
<path d="M97.0825 53.2283V39.2873H105.062C105.933 39.2873 106.698 39.4533 107.358 39.7852C108.018 40.1171 108.527 40.5818 108.883 41.1793C109.253 41.7768 109.437 42.4672 109.437 43.2506C109.437 43.9277 109.259 44.5318 108.903 45.0629C108.56 45.5807 108.177 45.9458 107.754 46.1583V46.2578C108.243 46.4703 108.685 46.8553 109.081 47.4129C109.49 47.9573 109.695 48.5747 109.695 49.2651C109.695 50.0485 109.517 50.7389 109.16 51.3363C108.804 51.9338 108.296 52.3985 107.636 52.7304C106.976 53.0624 106.21 53.2283 105.339 53.2283H97.0825ZM104.468 44.8836C104.969 44.8836 105.352 44.7641 105.616 44.5252C105.893 44.2729 106.032 43.941 106.032 43.5294C106.032 43.1178 105.893 42.7925 105.616 42.5535C105.352 42.3145 104.969 42.195 104.468 42.195H100.488V44.8836H104.468ZM104.765 50.3206C105.24 50.3206 105.61 50.2011 105.874 49.9622C106.151 49.7099 106.289 49.3846 106.289 48.9863C106.289 48.5747 106.151 48.2494 105.874 48.0104C105.61 47.7581 105.24 47.632 104.765 47.632H100.488V50.3206H104.765Z" fill="#00608A"/>
<path d="M116.087 53.2283H112.068V39.2873H115.473V48.3291H115.948L121.532 39.2873H125.551V53.2283H122.145V44.1866H121.67L116.087 53.2283Z" fill="#00608A"/>
</svg>
